/* XPM */
static const char *sprite_1[] = {
/* columns rows colors chars-per-pixel */
"129 129 71 1 ",
"  c black",
". c #0F0000",
"X c #1B0700",
"o c gray12",
"O c #2B0000",
"+ c #230B00",
"@ c #2B1700",
"# c #2B230F",
"$ c #372300",
"% c #3B2F17",
"& c #232323",
"* c #2F2F2F",
"= c gray23",
"- c #630000",
"; c #6F0000",
": c #770000",
"> c #43331B",
", c #4B3B1B",
"< c #573F1F",
"1 c #5F4323",
"2 c #6F4B27",
"3 c #774F2B",
"4 c #004343",
"5 c #005B5B",
"6 c #007373",
"7 c #4B4B4B",
"8 c gray34",
"9 c #676767",
"0 c none",
"q c gray45",
"w c gray50",
"e c #830000",
"r c #8F0000",
"t c #9B0000",
"y c #A70000",
"u c #B30000",
"i c #BF0000",
"p c #CB0000",
"a c #D70000",
"s c #E30000",
"d c #EF0000",
"f c red",
"g c #83532F",
"h c #8B5B33",
"j c #935F37",
"k c #9F633B",
"l c #A3673F",
"z c #CF6300",
"x c #E76F00",
"c c #FF7B00",
"v c #BF7B4B",
"b c #F35353",
"n c #BBBB00",
"m c #C7C700",
"M c #D7D700",
"N c #E3E300",
"B c #EFEF00",
"V c yellow",
"C c #008787",
"Z c #009F9F",
"A c none",
"S c #43FFFF",
"D c gray56",
"F c #9B9B9B",
"G c gray67",
"H c #B7B7B7",
"J c #C3C3C3",
"K c LightGray",
"L c #DFDFDF",
"P c #EFEFEF",
"I c white",
/* pixels */
"AAAAAAAAAAAAAAAAAAAAAAAAAAAAAAAAAAAAAAAAAAAAAAAAAAAAAAAAAAAAAAAAAAAAAAAAAAAAAAAAAAAAAAAAAAAAAAAAAAAAAAAAAAAAAAAAAAAAAAAAAAAAAAAAA",
"A00000000000000000000000000000000000000000000000000000000000000000000000000000000000000000000000000000000000000000000000000000000",
"A00000000000000000000000000000000000000000000000000000000000000000000000000000000000000000000000000000000000000000000000000000000",
"A00000000000000000000000000000000000000000000000000000000000000000000000000000000000000000000000000000000000000000000000000000000",
"A00000000000000000000000000000000000000000000000000000000000000000000000000000000000000000000000000000000000000000000000000000000",
"A00000000000000000000000000000000000000000000000000000000000000000000000000000000000000000000000000000000000000000000000000000000",
"A00000000000000000000000000000000000000000000000000000000000000000000000000000000000000000000000000000000000000000000000000000000",
"A00000000000000000000000000000000000000000000000000000000000000000000000000000000000000000000000000000000000000000000000000000000",
"A00000000000000000000000000000000000000000000000000000**************************0000000000000000000000000000000000000000000000000",
"A0000000000000000000000000000000000000000000000000000*=77777777777777777777777=* 000000000000000000000000000000000000000000000000",
"A0000000000000000000000000000000000000000000000000000*=77777777777777777777777=* 000000000000000000000000000000000000000000000000",
"A0000000000000000000000000000000000000000000000000000***=777777777777777777=**   000000000000000000000000000000000000000000000000",
"A0000000000000000000000000000000000000000000000000000**&&&&****========**oo      000000000000000000000000000000000000000000000000",
"A0000000000000000000000000000000000000000000000000000*=&&&&&&&&********oo    oo= 000000000000000000000000000000000000000000000000",
"A0000000000000000000000000000000000000000000000000000*=8GJJJGw88=&&&&=88wGJJJG8= 000000000000000000000000000000000000000000000000",
"A0000000000000000000000000000000000000000000000000000*8wGKLPKKJHDwqqwDHJJJKJKGw8 000000000000000000000000000000000000000000000000",
"A0000000000000000000000000000000000000000000000000000*8wGKLPPPLLLPIIPLLLPPKJKGw8 000000000000000000000000000000000000000000000000",
"A000000000000DD00000000000000000000000000000000000000*8wFHLLLLPPPLLLLPPPLLLLHFw8 000000000000000000000000000000000000000000000000",
"A00000000000GDw00000000000000000000000000000000000000*8qFLPPPPLLLPPPPLLLPPIILFq8 000000000000000000000000000000000000000000000000",
"A0000000000GGww00000000000000000000000000000000000000*8wFLPPPPPPPPPPPPPPPPIIKFw8 000000000000000000000000000000000000000000000000",
"A000000000LGGww0000000000000000000000000000000000000q88DGJGGGJLIPKJJKPILJGGGGGD89q00000000000000000000000000000000000000000000000",
"A00000000LLGDqb0000000000000000000000000000000000000G99DKK=*77FJGGFFFGJF7*==KKD99G00000000000000000000000000000000000000000000000",
"A00000000LLGDqf0000000000000000000000000000000000000F9wDLH    *=8qwwq8=*    HKDw&F00000000000000000000000000000000000000000000000",
"A00000000LLDDbd0000000000000000000000000000000000000F&wFLH 46C4   =8=  4C64 HGFw&F00000000000000000000000000000000000000000000000",
"A00000000LLDDfd0000000000000000000000000000000000000F&qFJH86ZS64 &wJw&56SZ68LKFq&F00000000000000000000000000000000000000000000000",
"A00000000LLDDda0000000000000000000000000000000000000w&qKPLGD6C4= &JIJ&45C6DGIKGq&w0000000000000HHFF000000000000000000000000000000",
"A00000000LLDbaa0000000000000000000000000000000000000w&qKPILJGJGJqqJPJqqGJGJLIKGqGw0000000000000HHFF000000000000000000000000000000",
"A00000000LLbfaa0000000000000000000000000000000000000wGwHKLLKLLDDJHJPJGJDLLKKLHFqqw0000000000000HHHH000000000000000000000000000000",
"A00000000LLfdaa00000000000000000000000000000000000000wqDJJJLJDq7qKKPKGq77JLJHFwq800000000000000HHHH000000000000000000000000000000",
"A00000000JJdsaa00000000000000000000000000000000000000889DDFLFq788qDHDq887FLFDq98000000000000000sbHH000000000000000000000000000000",
"A00000000JJssaa000000000000000000000000000000000000000798wDKF89wq8777=898FLDq897000000000000000sbHH000000000000000000000000000000",
"A00000000JJaapp0000000000000000000000000000000000000000989DKD89FHHw9wHG98DLD9890000000000000000sbII000000000000000000000000000000",
"A00000000JJaapp00000000000000000000000000000000000000<>qq9DKD99wwFFwFww99DLD9q90000000000000000sbII000000000000000000000000000000",
"A00000000JJaapp000000000000000000000000<233322<<<121,<>qwqDKDq889FHKHF98qDLDqD9###0000000000000sbPP000000000000000000000000000000",
"A00000000JJaapp0000000000000000000,,,,2gghjjhg22<<1,,,#9FqDKDw9        9wDLDqF9######0000000000sbPP000000000000000000000000000000",
"A00000000JJaapp0000000000000000<<<,<122ghhhkkjh32<<,<>#9GqDKDw9        9wDLDwG9#$########000000sbPP000000000000000000000000000000",
"A00000000JJaapp0000000000000,,,<<<1<,113gghjjkjg32<<2>#9FwDKFwq=;;;;;;=qwFLDwF9##########%%%000sbPP000000000000000000000000000000",
"A00000000JJaapp00000000000,,<22222211,<123ghjjkjgg<,3>#7DwDKGFF7;;;;;;7qFGLDDF7#############%>>sbPP00000000000000000www0000000000",
"A00000000JJaapp0000000000,,111,<122221,,<23ghjkjgg1>g,#=9DwKJGFq788887qFGJLDF9=##########%%%%,,sbPP0000000000000000wwww0000000000",
"A00000000HHaaii000322111223gjjg3<<12221,,<23ghhhgg1%1,%#=9DKKHGHGFFFFGHFHKLF9=########%%%%>>><<sbPP<<<<00000000000FFF990000000000",
"A00000000HHaaiigggg222223ggjjllh3<<12211,,12gghhg31%,2%##79KKJJGHKLLKHGGKLHD7######%%%%>>>>,,<<sbPP<<<<,,00000000FFFF990000000000",
"A00000gggHHqq88ggggg32222111ggjlh3,<<221,><13ggh32;>>1<%##7FKKJJFq999DGKKJF7###%>>>>>>>>>>,>>,,sbPP>,<<<<,,000000FFww990000000000",
"A0003ggggHHqq88<1gggg33223<%12ghhg1<<121<>,1133g22;;%>,,%##7FKKKJGFFGJKLKF7###%>,>>>>>>,,,,>>,,sbPP>>,,<<,,,,,,00FFww990000000000",
"A000ggFJJvvvv33GG<<gggggg22%#,<3gg31><21,>>,1122221e;%>,%###7FJPPPIIIPPJF7###%,,1,,>>>,<<<<<<,,sbKK>>>>>,,,,,,,,,GGqq990000000000",
"A00ggFFJJvvvv33JJw>,ggg3321,#%,12321>,2<,>>>,112221;t;########9FJKJJJJFq7##>>,<32,>>>,,<<<<<<,,sbKK,,%%>>>,,,,,,,GGqq990000000000",
"A00gFLLJJvv3333FGJw>,332211,##%,1221%,<>>%%>>,,1221>eye###>>99wwwww99997777<<133>-->,<<<<<,,999FFKK7*%%%>>>,,,112PPqq990000000000",
"A00gFLLLJvv3333FFGw>>2221<<,###>,221%>,>>%%%>>,,121>>eyy#>=8wwwwwwwwwwwwq7=<122<-te,,<<<,,,99wwFFKK97*%%%>>,<1122PPqq990000000000",
"A00gFJLLLLqqqFFFFww>><<<<<<>%##%,11,%%%%%%%%%%>,,11>>>ypy:w55558&&&&&&&5555=71:tue,<<<<,,,9w9w8qq88898=%%%><<>%%>PPqq990000000000",
"A00gFJJLLLLFFFFDDww#><<<<<,>%##%,,,>%#%%%%%%%%%>,,1>>>=ypye:C664&&&&&&6CZC64&:tue,,<<<,,,9Dw9F=qq88=w88=%%>>%%###PPqq99,000000000",
"A00gFJJLLLLLLKFqq99#><<<<,>%%#>%%,>%%#>%####%%>>,,,>>=8eipye: 454&&&&5C4  4:true>,,<<<>,<9GDwH=jj11=Fw87=%%%###>>PPqq99,,00000000",
"A00gFJJJJKLLLKDww99#><<,>>>%>%,%%,>%%@#%%%###%>>>,,>>8q=eyxye: 55&&&&CZ   :tsue->,,<<>%,<<99wHwwwwwwGF87=%%###>12PPqq991,00000000",
"A00gGJJJJJJJJDw9997#>>>>>%%%,,>%>,>>@+++@#%####>>>,>=q=&&rycye::4&&&&6Z  :tzyt;&#>,<<%%,<<<9DHHHHHHGGFq7=%#@#%<21PPqq9921,0000000",
"A00gGJJJJJJJJDw9997#>>>>>%%%,<#%,>>#@XX..@#%####>>>>8=&&&;ricpye-------=tzcyte&&#>,<<%%,<<,8DDDDDDDDFHq7=%#@#%<22PPqq9931,0000000",
"A00gDGGJJGGGGDw9977#%%%%%%%><##%%##@@@@XX.@#>qqbs>>=8&&&& eipmcpyyyyyuudcmzte&&&&#>,,#%,<,>9wwwwwwwwFF87=##@#>122PPqq9931,%000000",
"A00g9DGJJGGGGww9977#%%%%%%>,$X%###,,,>##@X@qqFFbs>>9=&&&& ;upfmmcssyyffcmcye &&&&&#,,#%><>>9DHHHHHHGDFq7=#@#%,122PPqq9921,%000000",
"A00299DGGGGFF9999###%%%%%>,$X+#%<1<<<,,%@qqFFHHbs,,9&&&555eyipcmmnnnnmmmcy:5555&&&#%%##%,>>wDDDDDDDDDHq==#@#%,,<<PPqq99<<,%000000",
"A002>99DDGGFD9999###%%%%%,$X#%<121<<<,,qqFFFHHHbs,,9&&6CC;ryipfmmMMMMmmmur:CC664&&#%%##%>>>9wwwwwwwww88==#@#%,,<<PPqq99<<,%000000",
"A0002#99999999977###%%%,,##%<12221<<<qqFFFFHHHHbs>>8&rtttttyipfcMNNNNMmcr---- 454&&####%%>,99GGFFFDqDFq==#@#%,,<<PPqq99,,,%%00000",
"A0002>#77777777####%%,,##%><122221<<<FFFFFFHHHJbs>>8&rrttttyipffMNVVNMmcfrrrre-54&&####%%%>99wwwwwwwFHq==#+#%,,<<PPqq99,,%%%00000",
"A00002%###########,,,>>%#><122qwDHJJJFFFFFFHHHJbsOO7&6Z ;rtyipffMNVVNMmmcffffrre;&&#####%%#789999999977=#@+#%<<,,PPFF99qq%%%00000",
"A000002>%#######>,,,,00%#,122wDJJHGGGFFFFFFHHHJbsOO7&56=:--yipfcmMNNMBBcfrrrre;;;&&###@##%#778qwwq99DD=##+X#%<<,,PPFF99qq7%%00000",
"A00000022>>>>>>>>,00000%><22wFJJHGFw9FFFFFFHJKKbs%%=& 5=7-:yippmBnnnnBBmr------4 &&###@####>778999987=##@+X#%99FFHHqq88qq88%%0000",
"A0000000000000000000000%>12wFJJHGFw98FFFFFGHJKKbs%%=&  **;ruipcBmcpppfmBc--****  &&###@@###>,7788887=###+ +#%99FFHHqq88qq987%0000",
"A0000000000000000000000%>2wFJJHGw87**FFFFGHKKPHbs%%*&&    eyyymc:rrrr::cm--     &&####+@@###>,>########@X +%<wwHHHHjj11qq99770000",
"A0000000000000000000000%>wFGJHHww7gg1FFFGHHKKHFbs%%&&&&   :yymy::rrrr::ppc-5   &&&#####++@##>>,%#######+  @%<w9wHwwwwwwGF99770000",
"A0000000000000000000000%>wGJJHGw8gg1,FFGHJJHFDwqq>>%&&&&&&:ycy: 455&&5C-uyx--&&&&###@++  +@##>>,>%####@X  @%<D9DHHHHHHGGF99770000",
"A0000000000000000000000%>FJJJHGw8g,%%GGHHJFDwqq>>>>%@&&&&:yyy::  55&&CZ--uyr-&&&&#####@@+  +@#%>,%%###+X  #%<D8DDDDDDDDFH99770000",
"A0000000000000000000000%2FJJJGGw8%%%%JJJFDqqq>>,,,,,@&&&:yy:Z    54&&6Z  -ru--&&&@@@@@@@@+  +@#%%%###@##0%%<<D9wwwwwwwwFF99770000",
"A0000000000000000000000%2HJJHGww87%%%JDwqqq%%>>,,,,,$+&&:y:56=  =44&&56= ---u-&&@@@@@@@@@@+  +@########00%%<<D9DHHHHHHGDF99770000",
"A0000000000000000000000%2GHHGGDw8877=qqq#%###%%>>>>>>@+:y:& 5=77=4 && 5=77=----@######@@@@@+  +@#0####0000%<<7wDDDDDDDDDH88==0000",
"A000000000000000000000002GGGGDw998877############>>>>$:y:&&  ****  &&  **** ---@@@@@@@@@@@@@+  +#000000000%<<79wwwwwwwww888==0000",
"A00000000000000000000000222DDw9998877#############,,,:y:+&&&      &&&&      +@--#%<11<,,>%#@@   @000000000%<<%99GGFFFDqDF88==0000",
"A00000000000000000000000022Dw9988777=#0#######>>>,,,,y:$@++&&&   &&&&&&   ++@##--<1111<<<,>%#+  +000000000%<<%99wwwwwwwFH88==0000",
"A00000000000000000000000000222220000000########>>>>>y:>>>$@+++&&&&&&&&&+++@@######%%%%%%%%%%%#++ 0000000000,<%78999999997==##0000",
"A00000000000000000000000000000000000000##########>>y:<<,>%%%@@@++++ +++@@###################%%#  0000000000,<%778qwwq99DD==##0000",
"A0000000000000000000000000000000000000#####%%<<<>>y>>,<<<<%%%%%####  #######%%%,112211,,>>%##%%#+00000000000,<>778999987=###00000",
"A00000000000000000000000000000000000#####%%%%%%>1y1<<<>%,<<>%%%###@  @####%%%,,,<<221<<,,>%%%%%%#000000000000,>,7788887=####00000",
"A0000000000000000000000000000000000##############%%122<>>,<<>#@###@  +@##%%,,,,>>>>>>>>>%%####%%%>000000000000>>%##########000000",
"A000000000000000000000000000000000#################,,122<%%,<>#+@#+   +#%%,,,>%%%%%%%%%##########%%0000000000000>>%######00000000",
"A00000000000000000000000000000000###%%%%%%%##########%%1<<%%%>$ +@    +#%,,>%>>>>,,,,,,,,>>>>>>%%##%00000000000000000000000000000",
"A00000000000000000000000000000000#%%%%%%%%%%%%###@+@###%1<%@#$$  @     %%,>%%>>>>,,,,,,,,,,,>>>%%%%#%0000000000000000000000000000",
"A0000000000000000000000000000000,,,,,>>>%%%%%%%%%##+@@###%>$  +  +     >%%%>>,,<<<<<<<<<<<<,,>>>>%%%#>000000000000000000000000000",
"A000000000000000000000000000000,,,,,,,,,,>>%%%%%%%%#++@@@$$$+  + +     >%%%>>,,<<<<<<<<<<<<,,,>>>%%%%>000000000000000000000000000",
"A000000000000000000000000000000<<1111<<<<,,>>,>>%%%%#++@@+  ++ +       %###>>,,<<<<<<111111<<,,,,>>>%%%00000000000000000000000000",
"A00000000000000000000000000000,<<11111<<<,,>><,,>%%%%#++@@+  +         ####>>,,<<<<<11111111111,,,>>%>%00000000000000000000000000",
"A0000000000000000000000000000<<11122211<<,,>><1#>>>%%%@+@+@+  +         #%%,,<<<<<<1112222221111,,>>%>%>0000000000000000000000000",
"A000000000000000000000000000<<<22233221<<<,>>,1>#%>%%%#X+++@+ @         #%%,,<<<<<<1122222222111,,,>>>,>0000000000000000000000000",
"A00000000000000000000000000<<12233gg3221<<,>>>11>###%%%X+#X#@+#  ++++   #>%,,<<,,<<1122222222211<,,,,>,%%000000000000000000000000",
"A0000000000000000000000000<<12233ggg3221<<,>>><31#++#%%..#X@#+# +####@ +#>%,,<<,,<<1112222222211<<,,,>>,%000000000000000000000000",
"A000000000000000000000000<<12233ghhg3221<<,,>%%13<#+ +#@+#X+#@#000000#@+#%>,,,,<<<<11122222222211<<,,,>,%>00000000000000000000000",
"A00000000000000000000000<<12233ghhhg3221<<,,>%%<31#X .+#+#. ##00000000#+#%>,,,,<<<<11122222222211<<,,,>,,>00000000000000000000000",
"A0000000000000000000000<<13333ghhhg33211<<,,,>%%13<#.  +#@  ##00000000#+#%>>,,,,,<111112222222211<,,,,,>,%%0000000000000000000000",
"A0000000000000000000000<133333ghhg332211<<,,,>%%<3<#X   @+++#0000000000+##>>>,,,,1111111222222211<,,,,,>,%%0000000000000000000000",
"A000000000000000000000112333333gg332211<<,,,>%%%<1<>#.  ++@#00000000000###%>>>,,11111111112222211<,,,,,>>,%>000000000000000000000",
"A00000000000000000000011222233333322111<<,,>>%,,,,,>#+ ++@#0000000000000###>>>1111111111111222111<,,,,,>>,%>000000000000000000000",
"A0000000000000000000001112222222221111<,,,>>133g31>###+@##00000000000000###%><<1111111111111111<11111111<,>>000000000000000000000",
"A0000000000000000000001111111111111111<,,>>13hg11>>###+##0000000000000000###%<<11<<,,,,,,111111<111111111<,>000000000000000000000",
"A0000000000000000000000<<<<<<<<<<<<<<<,,,>>13g,##   ###000000000000000000####><<<,,,,,,,,,,,,,,,,>>>>%%%,<<%000000000000000000000",
"A0000000000000000000000<<<<<<<<<<<<<<,,,>>><11,##    #00000000000000000000####,<,,,,,,,,,,,,,,,>>>>>>##%%,,%000000000000000000000",
"A0000000000000000000000%>,,,,,,,,,,,>>>%%%%,<13%%#   #00000000000000000000##%%%,,,<<<<<,,>>>>>>>>>>>>##%%,,#000000000000000000000",
"A0000000000000000000000%>>>>>>>>>>>>%%%%%%%>,<13%#   #000000000000000000000##%%,,%>,<,,>>>>>>>>>>>>>###%>,@#000000000000000000000",
"A00000000000000000000000%%%%%%%%%%%%%%%%##%%>,<1%#   0000000000000000000000####%,%%%%%%>>,<<<,,,,>%%##%%%@+#000000000000000000000",
"A00000000000000000000000#%%%%%%%%%%%%%%#####%>,1%#  #0000000000000000000000####%,,%%%%%>,121,,,,>%%##%%%@++#000000000000000000000",
"A000000000000000000000000#%%%%%%%%%%%######%>,1#    #0000000000000000000000>####%,,,%>>,21,>%%%%%######@+++#000000000000000000000",
"A000000000000000000000000###%%%%%%%#######%>,1#    #00000000000000000000000>##@#%,,1,,,1,>%%%%######@@@+++@#000000000000000000000",
"A0000000000000000000000000###############%>,1#  ###0000000000000000000000000>#+@#%,,11<###########@XXXX++@#0000000000000000000000",
"A00000000000000000000000000###########%>>,,>####   0000000000000000000000000>#+X+##%,,%###############@XX##0000000000000000000000",
"A0000000000000000000000000000#######>,,,,>###      00000000000000000000000000%#XX+#####              #####00000000000000000000000",
"A0000000000000000000000000000                      00000000000000000000000000%#XX.X##                   ##00000000000000000000000",
"A0000000000000000000000000000                      000000000000000000000000000>#.X#  ******  &&          000000000000000000000000",
"A0000000000000000000000000000                      000000000000000000000000000>###   ******  &&          000000000000000000000000",
"A00000000000000000000000000&&&&&&&                 0000000000000000000000000000##  &&**********&&  &&    000000000000000000000000",
"A0000000000000000000000000&&&&&&&&&&               0000000000000000000000000000##  &&**********&&  &&    000000000000000000000000",
"A000000000000000000000000&&********&&              000000000000000000000000000000  &&******  &&    &&    000000000000000000000000",
"A000000000000000000000000&&**====**&&&             000000000000000000000000000000  &&******  &&    &&    000000000000000000000000",
"A000000000000000000000000&&*=777==**&&             000000000000000000000000000000  **&&                00000000000000000000000000",
"A000000000000000000000000&&*=77===**&&&            000000000000000000000000000000  **&&                00000000000000000000000000",
"A000000000000000000000000&&**====***&&&           0000000000000000000000000000000  &&****  &&  &&      00000000000000000000000000",
"A000000000000000000000000&&&&******&&&&           0000000000000000000000000000000  &&****  &&  &&      00000000000000000000000000",
"A000000000000000000000000  &&&&&&&&&&            00000000000000000000000000000000    ****&&&&&&      0000000000000000000000000000",
"A000000000000000000000000  &&&&&&&&&&            00000000000000000000000000000000    ****&&&&&&      0000000000000000000000000000",
"A0000000000000000000000000                      000000000000000000000000000000000&&&&**====****&&&&&&  00000000000000000000000000",
"A000000000000000000000000000                   0000000000000000000000000000000000&&&&**====****&&&&&&  00000000000000000000000000",
"A00000000000000000000000000000000000000000000000000000000000000000000000000000000&&&&**********&&&&&&   0000000000000000000000000",
"A00000000000000000000000000000000000000000000000000000000000000000000000000000000&&&&**********&&&&&&   0000000000000000000000000",
"A00000000000000000000000000000000000000000000000000000000000000000000000000000000&&&&**********&&&&&&   0000000000000000000000000",
"A00000000000000000000000000000000000000000000000000000000000000000000000000000000&&&&**********&&&&&&   0000000000000000000000000",
"A00000000000000000000000000000000000000000000000000000000000000000000000000000000&&&&              #####0000000000000000000000000",
"A00000000000000000000000000000000000000000000000000000000000000000000000000000000&&&&              #####0000000000000000000000000"
};
