/* XPM */
static const char *sprite_4[] = {
/* columns rows colors chars-per-pixel */
"129 129 51 1 ",
"  c black",
". c #0F0000",
"X c #1B0700",
"o c gray12",
"O c #230B00",
"+ c #2B1700",
"@ c #2B230F",
"# c #372300",
"$ c #3F3300",
"% c #3B2F17",
"& c #232323",
"* c #2F2F2F",
"= c gray23",
"- c #6F0000",
"; c #43331B",
": c #4B3B1B",
"> c #573F1F",
", c #5F4323",
"< c #6F4B27",
"1 c #774F2B",
"2 c #004343",
"3 c #005B5B",
"4 c #007373",
"5 c #4B4B4B",
"6 c gray34",
"7 c #676767",
"8 c none",
"9 c gray45",
"0 c gray50",
"q c #83532F",
"w c #8B5B33",
"e c #935F37",
"r c #9F633B",
"t c #A3673F",
"y c #AB6B43",
"u c #008787",
"i c #009F9F",
"p c #00B7B7",
"a c none",
"s c #00CFCF",
"d c #00E7E7",
"f c gray56",
"g c #9B9B9B",
"h c gray67",
"j c #B7B7B7",
"k c #C3C3C3",
"l c LightGray",
"z c #DFDFDF",
"x c #DBFFFF",
"c c #EFEFEF",
"v c white",
/* pixels */
"aaaaaaaaaaaaaaaaaaaaaaaaaaaaaaaaaaaaaaaaaaaaaaaaaaaaaaaaaaaaaaaaaaaaaaaaaaaaaaaaaaaaaaaaaaaaaaaaaaaaaaaaaaaaaaaaaaaaaaaaaaaaaaaaa",
"a88888888888888888888888888888888888888888888888888888888888888888888888888888888888888888888888888888888888888888888888888888888",
"a88888888888888888888888888888888888888888888888888888888888888888888888888888888888888888888888888888888888888888888888888888888",
"a8888888888888888888888888888888888888888888888&***********************8888888888888888888888888888888888888888888888888888888888",
"a888888888888888888888888888888888888888888888&=======================* 888888888888888888888888888888888888888888888888888888888",
"a88888888888888888888888888888888888888888888***======================*  88888888888888888888888888888888888888888888888888888888",
"a88888888888888888888888888888888888888888888****===================**o  88888888888888888888888888888888888888888888888888888888",
"a88888888888888888888888888888888888888888888**&****=============***oo   88888888888888888888888888888888888888888888888888888888",
"a88888888888888888888888888888888888888888888**&&&&****========**oo      88888888888888888888888888888888888888888888888888888888",
"a88888888888888888888888888888888888888888888*=&&&&&&&&********oo    oo= 88888888888888888888888888888888888888888888888888888888",
"a88888888888888888888888888888888888888888888*665=&&&&&&&&&&&o    oo=566 88888888888888888888888888888888888888888888888888888888",
"a88888888888888888888888888888888888888888888*6999955=&&&&&&&ooo=5599996 88888888888888888888888888888888888888888888888888888888",
"a88888888888888888888888888888888888888888888*70hlllh066=&&&&=660hlllh07 88888888888888888888888888888888888888888888888888888888",
"a88888888888888888888888888888888888888888888*9fkvvvvvzjf0990fjzvvvvvkf9 88888888888888888888888888888888888888888888888888888888",
"a88888888888888888888888888888888888888888888*9fkvccccvvvvvvvvvvvcccvkf9 88888888888888888888888888888888888888888888888888888888",
"a88888888888888888888888888888888888888888888*70jczzzzccvvvvvvccczzzcj07 88888888888888888888888888888888888888888888888888888888",
"a88888888888888888888888888888888888888888888*69hzccczzzzzzzzzzzzccczh96 88888888888888888888888888888888888888888888888888888888",
"a88888888888888888888888888888888888888888889760hkzvvcczlkkkklzccvvzkh06798888888888888888888888888888888888888888888888888888888",
"a8888888888888888888888888888888888888888888h76fhkkzvvvvcljjlcvvvvzkkhf67h8888888888888888888888888888888888888888888888888888888",
"a8888888888888888888888888888888888888888888g&6fh7=*0hlvvcggcvvlh0*=7hf6&h8888888888888888888888888888888888888888888888888888888",
"a8888888888888888888888888888888888888888888g&6f7=  *50hlj99jlh05*  =7f6&g8888888888888888888888888888888888888888888888888888888",
"a88888888888888888888888888888888888888888880&gk7524322260066=22234257f9&08888888888888888888888888888888888888888888888888888888",
"a88888888888888888888888888888888888888888880&glkg4isxu 5hlh6  uxsi4glf9&08888888888888888888888888888888888888888888888888888888",
"a888888888888888888888888888888888888888888806glvvkhhhhkzvvkjzkhhhhkvlh9608888888888888888888888888888888888888888888888888888888",
"a888888888888888888888888888888888888888888880glvvvzzzzzcvvljczzzzzvvlh9988888888888888888888888888888888888888888888888888888888",
"a8888888888888888888888888888888888888888888860kzvvvvvvlvvvzjclvvvvvvjg9688888888888888888888888888888888888888888888888888888888",
"a8888888888888888888888888888888888888888888859fkvvvvvlkzvvcjzklvvvvzg09588888888888888888888888888888888888888888888888888888888",
"a88888888888888888888888888888888888888888888867fkvvvk0fjcvljgf0kvvvk976>>>::;;@%%%8888888888888888888888888888888888888888888888",
"a888888888888888888888888888888888888888888888597fkcck6990000996hcck9675>>>::::;@%:;%%8888888888888888888888888888888888888888888",
"a888888888888888888888888888888888888888888>>,@099fzch9jh977fhj9flkf677@;::;%%;:;@%:;:%%%8888888888888888888888888888888888888888",
"a888888888888888888888888888888888888888>>><<,@009flchhhzkggkzhffljf797@%;::;@%;:@@:;::::%%88888888888888888888888888888888888888",
"a8888888888888888888888888888888888>>>>><<qqq,@9f9flc0700gggg0070ljf907@@%;::;@%:@@:;%>,<>:;%075888888888888888888888888888888888",
"a88888888888888888888888888888888>>>>><qqwew1,@709flc0*--------*0ljf007@@@%;::@%;@@%%%%%>1<>:075888888888888888888888888888888888",
"a888888888888888888888888888888>>>><qqqwrrw1<,@5790lchgfggggggfgfljf095@@@%;::@@%@@%;%%%%,1<:h07588888888888888888888888888888888",
"a8888888888888888888888888888>>><qqwwrttre<<<,@@570lcf0fhlzzlhf0fljf05@@@@@;::@@%@@%;;@@%><>:j07588888888888888888888888888888888",
"a88888888888888888888888888>>:1qwerrwwrtrq<,,,>@@57lcg0009999000fljf5@@@@@@;::@@%@@%;%+@%:>:%kg0758888888888888888888888888888888",
"a8888888888888888888888888<>>::,1weq11qwr<,>>>>>@@5glkhhjjkkjhggjkg5@@@@@@@%:;@+@@@%;#+@%::%@kj0758888888888888888888888888888888",
"a888888888888888888888888<qw<>>:,,q<,<<qq<,>>>>::@@5gllllcvvzllllg5@@@@@@@@%:;@+@@@%;#+@%%%@@gkg075888888888888888888888888888888",
"a88888888888888888888888<qryw<>::>,<>,<<q<,>>:;%::@@5gkcccccccckg5@@@@@@@@@@:;@+@+@%;#+@%%@@@#kj075888888888888888888888888888888",
"a8888888888888888888888,<wtyyw<>>;;::>,<1,>:>:;%%::@@57gklcclkg95@@@@@@@@@@@:;@+@+@%;#+@%@@@#+gkg075:%%88888888888888888888888888",
"a888888888888888888888><wqwrtrq>>;;::>><<,>:::;%@%:::@@@@@@@@@@@@@@@@@@@@@@@;@+OO+@%;#+@@@@#+++kj075:;%@@888888888888888888888888",
"a88888888888888888888><qqqqwrrw<>::;;::,<,:::::%@@%;;;:3333690fghhhg95=**@@@;@+OOO@%;#O+#@#+++Xgkg075;@@@@@8888888888888888888888",
"a88888888888888888888,1q1<<qeee<>,:;;::,<,:::%:%@@@;;33447765==&&&&&&&&&**&@@OOOO@%%;#O++#+++OX+kj075%;;;%@%888888888888888888888",
"a8888888888888888888><11<,<1eee<><:;;:::<,:::%@%@@%334477663433332&&&=2333332@OOO@%%%@OO+#++OX++gkg075%%@@@@%88888888888888888888",
"a8888888888888888888>11<,,<1eww<>q:;%:::,,:::@@%@;3447775=34pdpi432&&234ipu442@O@@%%%#OO+++OOX+#;kj075%%%%@@@@8888888888888888888",
"a888888888888888888>,1<,>,11wq1<>q:;%;;:,,:::@@;;34u7775=34ud2  232&&34up2  232@@%;;@+O+O+OO+X#;;gkg075:<<<>;@%888888888888888888",
"a888888888888888888>,<,,><11q1<,><:;%;;::::::@@;34i4776=*34ui    33&&34uu    33@$%;%#+O@OOO++X#;;,kj075:@@@@@@@%88888888888888888",
"a88888888888888888>>,,,,,11q<<,>,,:;@:::::::%@@34iu7765**344u    23&&3344    22@#;$@+O+%@O+@+X;::,gkg00,,9995==%88888888888888888",
"a88888888888888888>,,,>><1q1<,>>,::;@:::::::%@@3ui4776=**34442  222&&33442  222@@##++X@%%@@%+O;:<>:kj0q,,hhg055588888888888888888",
"a8888888888888888>,,,>>,<11<,,>,<%%@@;:::::%@@34iu7775*&&223332222&&&222333222&&@@#+OXXXXXOXOO;:1>>$+ww,,90gf66658888888888888888",
"a8888888888888888>,,>>><11<,,>>1<%@@@%;::::%@@3ui47775*&&22222222&&&&&2222222&&&&#+OXX@@@@@+XX;:1>$#+,,,,999766668888888888888888",
"a888888888888888>,,>>>,<1<,,>><q<%@@@@;;:::%@@3ui77777733333322&&2333&&&&&2334443+OXX%%%::%@+X%;<>$#+ff00990766668888888888888888",
"a888888888888888>,,>>,<1<,,>,<q1,;@@@@%;;:%@@334u777gg044uu4432&232223&&&2344iiu43+X@%:::::%@+X;:>$#+ff06990076666888888888888888",
"a88888888888888>,,,>,<<<,,,<qq<,:;%@@@@%;;%@@334u77gggg042  23323222223&&344i2  232@@@%::%@;;%+XX:,#+hh666fff77666888888888888888",
"a88888888888888>,,>,<<,,,<qq<,,:::;%@@@@%%@O@33447gggggg0    3323222223&&344i    32@@@@%@@%;:::;#X1,+h9=66fff97666888888888888888",
"a88888888888888>,,><,,>,q1,,,;;;;::%%@O@@@@O@3344gggggggk    3323222223&&344u    22@@@%@@@@@%;:>:+X1,hhf99fff07766888888888888888",
"a88888888888888>,>>>>>,1<,:;;;;;;::;%%OO@@OO@334gggggggkk   23223322232&&23442  222@@%@@+@@;:::>>:+X1hhffffff09766888888888888888",
"a88888888888888>>>>>>><,>::>>111>::::;@OOOOO@33gggggggkk333222& 233332 &&223333222@@%%@+@@;:%@@##@%;;%%999999f0776888888888888888",
"a88888888888888>>>>:><,q<;%%1eew111,:;@OOOOO@3gggggggkk233322&&  2222  &&&2222222@@@%@@+@;%@@@@%%%%%%%%hhffffff077888888888888888",
"a888888888888888::::,<q<;%<qeew1,,<e,;@OOOOOOgggggggkk&&&==33333322   2333333&&&&@@@@++@@%@@+O+@%%:::::%%999999007888888888888888",
"a888888888888888::::,q,%%<1<ww1,:;;<e;@OOOOOgggggggkk&&&&=333uu4432  2334uu443&&&@@@++@@@@+OO+@%%::%::::%hhffff008888888888888888",
"a888888888888888:::,<q:><1<<qw,:;%;:q;@OOOOgggggggkk=**&&334u2  233&&334u2  233&@@@@++@@@+OO+@@%%%@@@%:::%%8888888888888888888888",
"a8888888888888888::,<<<<1,,,,q,:%%%;<,;@OOgggggggkk5=**&&334u    33&&334u    33&@@@@++@@+OO+@@%%@@@@@@@@@@%%888888888888888888888",
"a88888888888888888::,,,,,,,,,1<>>%%%:,:;@gggggggkk355=*&&3344    32&&3344    32@@@@@O++++OO+@%%@@@@@%%%%@@@%888888888888888888888",
"a8888888888888888:;::>>::::>><1<<<>>>::;;ggggggkk3355==&&23442  222&&23442  232@@@@@O+++OOO@%%@+@@%%;:::%@@%888888888888888888888",
"a8888888888888888:;;;::::::>>><<<<<90rrgg77gggkkO22255=**223333222&&&222333332@@@@+@OOOXOOO%%@++@%;;%@@@@@@%%88888888888888888888",
"a88888888888888881:;;%:::::>>>>>>9g0rrrgg77;;kkOOO22255=**2222222&&&&&2222222@@@@+++OOXXXOO%:@+O@%;@@@@@@@@@%88888888888888888888",
"a8888888888888888q<::;%::::::>>9ggg1rrq<>;;OOOOOOOO2225==**&&&&&&&&&&&&&&&&@@@++++OOOXXXXXO@%@OO#%%@%;;;;%@@;88888888888888888888",
"a8888888888888888qq,::;%%::::7ghggg>1q1<<>OOOOOOOOOOO222=**&&&&&&&&&&&&&&+++++OOOOXXXOO++OX@@@XO#%%%%;;;;%%@;88888888888888888888",
"a88888888888888881q,>>:;%%::0hhghjjgg<<<>OOOOOOOOOOOO559995@OOOOOOOOOOO++#######+OXXO99O++OXXXXO#;;;:%%%%@@@:88888888888888888888",
"a8888888888888888<1,<>>:;%%:ghhhjjjggf<>OOOOOOOOOOO559999995OOOOOO++++@@@@@@@@@@@@+++999O+O88XXO#;::::%%%@@@:88888888888888888888",
"a8888888888888888<1,<<<1,;;9hhhjjhg97f7OOOOOOOOOO559999999995OO+++@@@@%;;;;;;%%%%@@@+0009+O888XO#;:>>:;;;%@@:88888888888888888888",
"a8888888888888888,<,<<1>;%>hjjjjjgg556f5OOOOOOO5599999999fgg9O++@@@%%;;;;;;;;%%%%%%@@00099O888XO#;:>>>:;;%@@:88888888888888888888",
"a8888888888888888,<,11>;;>7hjjjhg90f56695OOOO5599999999ffgh9=O+@@%%%%%%%%%%%%%%%%%%;@g00999888XO#;:>>>:;;%@@:88888888888888888888",
"a8888888888888888><<<1>;>70hjjjhh97775555OO5599999999fghh97OO+@%%%%%;;;:::::;;;%%%%;;g00099988XO#;:>>>;;%%@@:88888888888888888888",
"a8888888888888888>,<1,;;790jjhg90h75655%%55999999990fhh07OOO+@%%%;;::::::::::::;;;;%%g00099998XO#%>>,,,:::@@;88888888888888888888",
"a8888888888888888>>,1,;>790jjhg970h65555599999999ffgh07=@OO@@%%;;:::::::,,,,,,,,,,,%%g00009999XO#%%%%%%%%;:@;88888888888888888888",
"a88888888888888888::1;%679000h5656995%%999999990fhhf7@OOOOO@@%;;:::>>>>>>>>>>>>>>>>>;g0f0099999@@@7gg95==@;:%88888888888888888888",
"a888888888888888888:,;%6790509f565655%%999999ffggf75@+OOOOO@%#;::::>>>>>,>>,,>>::::>@g0ff009999@@7ggg965==@;%88888888888888888888",
"a8888888888888888888:;%67955579955555:::599ffhhf7@+++++O+O @;#;::>>>><1qqq1<<<,>>:::@z0gff0099599,,779665==@%88888888888888888888",
"a88888888888888888888>;6676555796555:::::55ff97@@@@@+++++O %#@::>>><<<<<<<<,,>>>>>::;zz0gff009599,,7796665=@@:8888888888888888888",
"a8888888888888888888888866765555555::::::%%;;;;%%@@@O++++  ;#@;%>><<<,>>>>>>>>>>>>>::;fj0gff007,,,,779666558888888888888888888888",
"a888888888888888888888888667655555:::::::%%;;;;%%@@+@@%%+  ;#@@%,<,>:::>>>>>>>>::>>::;;jj0gff07,,,,776666558888888888888888888888",
"a8888888888888888888888888667====::>>:::;;;:::;%%@@@%%%%+  ;##@;;,>:::>,,,,,,,,>>:::::;%fh0gff7gg77666666668888888888888888888888",
"a8888888888888888888888888866====::>>::;;;::::;%%@@%%%%@O  ;@@#@%%;:>>>,,<<<<<,>>:::::;%%hh0g07gg77666666668888888888888888888888",
"a8888888888888888888888888888::::>>:::;;;:::::%%@@%;;;@+.. @@+###;:>>>>,<11<<<<,,>>:::;;%%ff0986655555566668888888888888888888888",
"a8888888888888888888888888888::::>>::;;::::::;%%@%%:;@@OO. ..#++%;:>>,<<1qq11<<<<,>::::;;%%ff986655555566668888888888888888888888",
"a8888888888888888888888888888::::>,::::>>:::;%%%%;:;@@+++O ..#+@;:>,<<1qqqqqqq11<<,>:::;;%%88888866555555668888888888888888888888",
"a8888888888888888888888888888:::,<>::::>>::;%%%%;:;@@+@%@OO +;#%;:,<<1111qwwwqqqq1<,,>>:;%%88888866555555668888888888888888888888",
"a8888888888888888888888888888::,<,>>>>>:::;%%%%::;@@@%%@+OOOO;#;:><,>>><qweeeeq<<<<,>>>>>:%88888888555555558888888888888888888888",
"a8888888888888888888888888888:,<,>>>>,>::;%%%::::@@;;%@@O+++O;#::,>>,<<11qwwwq11<<<<,>>::>:%8888888555555558888888888888888888888",
"a8888888888888888888888888888:,,:>>>,:::;%%::::;;;;%%@@@@@+O@;;:,>><q111<1qwq11<>>>,,,,:;%;:8888888888888888888888888888888888888",
"a8888888888888888888888888888::::>,<>::;:::,,::;;;;%@@@%@++O%;;:,,<q<<,>>,<<<,,,>:::::>,,:%%8888888888888888888888888888888888888",
"a8888888888888888888888888888::>>,<,>:::::,,::;%%%%@@@%@#+O ;::,,<q,>:>>>>,,,,>:::;;::::>,:%%888888888888888888888888888888888888",
"a888888888888888888888888888>:,,<<,>::::,<,::;%%%@@@@%%#+O @;::,<,,::::::>>,,>::;;;;;;;::>,:%888888888888888888888888888888888888",
"a888888888888888888888888888>>,1q<>>>>><1,:>:%%@@@@%%%@+O  %#>,<>>::;;;;;::,,>:;;;@@@@%;:::::888888888888888888888888888888888888",
"a888888888888888888888888888>>qwq,,,,<1q<:>:%%%%%%%%%@OO   ;#;>>::$##@;:>>>,,>::::;;%@@@;::::888888888888888888888888888888888888",
"a88888888888888888888888888>><www<<1qqq<,>:%%%%%%;;%%+++   ;+#;;$##@;>>>>>>,,>::;;;;;%@@@%;:;888888888888888888888888888888888888",
"a88888888888888888888888888>><<wwwwwwqq1,:;%%%%%%%;%%@@@+++%+####@;>>::;;;,,<,>:;;;;;%@@@%;;;888888888888888888888888888888888888",
"a88888888888888888888888888>>::>,<1qqqqq1,:;;%%%%%%%@%%@@@@@@+O+++@@%%%;:>>::::::::%%%@@@@%%%888888888888888888888888888888888888",
"a88888888888888888888888888>::::,>,<<q1<,::;;%%%%%%@@@%@@@@ %++O+@@%:>>>>:::;;;;;;%@@@@@%@%%%888888888888888888888888888888888888",
"a88888888888888888888888888::;::::,,,,,,:%%%%%%:;%@@@%@@@@  @@+O+%:>>:::;%%%@@@@@@@@@@@@%%@%8888888888888888888888888888888888888",
"a88888888888888888888888888::;;::::::::%%%%;:::;%@@@%%@@@    %++%:>::;;;;%%%%%%%%%@@@@@%%:@%8888888888888888888888888888888888888",
"a888888888888888888888888888>%%:::::::::::::;::%%%%%%@@@     8@+:>:;;%%%%%%%%%%%%%%%%@%:::@%8888888888888888888888888888888888888",
"a88888888888888888888888888888%:::::::::;;;;;::::;;%@@@      8%+::;;;@@@@@@@@@@@@@@@@@@%%%@%8888888888888888888888888888888888888",
"a888888888888888888888888888888%:::%%%%%%%%;;;:;;;@@@@       8%#@@%@@                @@@@@%88888888888888888888888888888888888888",
"a8888888888888888888888888888888%::::;%%%%%%%%;:@@@@@      & 88%@%%@                    @@%88888888888888888888888888888888888888",
"a88888888888888888888888888888888%%::::::;%%%%%;:@@      &&&   %%@@  &&&&&&&&&&&&&&      %%88888888888888888888888888888888888888",
"a8888888888888888888888888888888888%%%%%%%%%%%%@@        &&    %%@  &**==========**&     %888888888888888888888888888888888888888",
"a888888888888888888888888888888888888 &                &&&     88  &&*=======*******&    8888888888888888888888888888888888888888",
"a8888888888888888888888888888888888888 &&           &&&&       88  &&********&&&&&&&&    8888888888888888888888888888888888888888",
"a88888888888888888888888888888888888888  &&&&&                 88  &&****  &&      &&    8888888888888888888888888888888888888888",
"a8888888888888888888888888888888888888888                      88  &&**&&  &&       &    8888888888888888888888888888888888888888",
"a8888888888888888888888888888888888888888&&&&&&&&  &&          88  **  &&*****&&         8888888888888888888888888888888888888888",
"a8888888888888888888888888888888888888888&&&&&&&&  &&          88  **  &&*****&&&&      88888888888888888888888888888888888888888",
"a88888888888888888888888888888888888888                        8888 &&&**  &&  &&&&&   888888888888888888888888888888888888888888",
"a8888888888888888888888888888888888888  &*==**&             &  8888  &&**  &&  &&&&&&  888888888888888888888888888888888888888888",
"a888888888888888888888888888888888888  &*=5=***&&&          & 88888    **&&&&&&&&      888888888888888888888888888888888888888888",
"a888888888888888888888888888888888888  &*===***&&&&&&      &  8888  && **&&&&&&&&      888888888888888888888888888888888888888888",
"a888888888888888888888888888888888888  &******&&&&&&&     &  8888  &&**====****&&&&     88888888888888888888888888888888888888888",
"a888888888888888888888888888888888888  &&****&&&&&&&&     &  8888 &&&**====****&&&&&&    8888888888888888888888888888888888888888",
"a888888888888888888888888888888888888  &&&&&&&&&&&&&&    &  88888 &&&**********&&&&&&&   8888888888888888888888888888888888888888",
"a888888888888888888888888888888888888                 &&&  888888 &&&**********&&&&&&&   8888888888888888888888888888888888888888",
"a8888888888888888888888888888888888888  &&&&&&&&&&&&&&    8888888 &&&**********&&&&&&&   8888888888888888888888888888888888888888",
"a8888888888888888888888888888888888888                   88888888 &&&**********&&&&&&&   8888888888888888888888888888888888888888",
"a8888888888888888888888888888888888888888888888888888888888888888 &&&&&*************&&&  8888888888888888888888888888888888888888",
"a8888888888888888888888888888888888888888888888888888888888888888 &&*****************&&  8888888888888888888888888888888888888888",
"a8888888888888888888888888888888888888888888888888888888888888888                        8888888888888888888888888888888888888888",
"a8888888888888888888888888888888888888888888888888888888888888888                       88888888888888888888888888888888888888888"
};
