/* XPM */
static const char *sprite_10[] = {
/* columns rows colors chars-per-pixel */
"129 129 53 1 ",
"  c black",
". c #0F0000",
"X c #1B0700",
"o c #230B00",
"O c #2B1700",
"+ c #2B230F",
"@ c #3B2F17",
"# c #232323",
"$ c #2F2F2F",
"% c gray20",
"& c #373737",
"* c gray23",
"= c #43331B",
"- c #4B3B1B",
"; c #573F1F",
": c #5F4323",
"> c #6F4B27",
", c #774F2B",
"< c #430043",
"1 c #5B005B",
"2 c #6F0073",
"3 c #004343",
"4 c #005B5B",
"5 c #007373",
"6 c #434343",
"7 c #4B4B4B",
"8 c gray34",
"9 c #676767",
"0 c none",
"q c gray45",
"w c gray50",
"e c #83532F",
"r c #8B5B33",
"t c #935F37",
"y c #9F633B",
"u c #A3673F",
"i c #B77347",
"p c #870087",
"a c #9F009F",
"s c #B700B7",
"d c #CB00CF",
"f c #E300E7",
"g c magenta",
"h c #008787",
"j c #00B7B7",
"k c none",
"l c gray56",
"z c #9B9B9B",
"x c gray67",
"c c #B7B7B7",
"v c #C3C3C3",
"b c LightGray",
"n c #DFDFDF",
/* pixels */
"kkkkkkkkkkkkkkkkkkkkkkkkkkkkkkkkkkkkkkkkkkkkkkkkkkkkkkkkkkkkkkkkkkkkkkkkkkkkkkkkkkkkkkkkkkkkkkkkkkkkkkkkkkkkkkkkkkkkkkkkkkkkkkkkk",
"k00000000000000000000000000000000000000000000000000000000000000000000000000000000000000000000000000000000000000000000000000000000",
"k00000000000000000000000000000000000000000000000000000000000000000000000000000000000000000000000000000000000000000000000000000000",
"k00000000000000000000000000000000000000000000000000000000000000000000000000000000000000000000000000000000000000000000000000000000",
"k00000000000000000000000000000000000000000000000000000000000000000000000000000000000000000000000000000000000000000000000000000000",
"k00000000000000000000000000000000000000000000000000000000000000000000000000000000000000000000000000000000000000000000000000000000",
"k00000000000000000000000000000000000000000000000000000000000000000000000000000000000000000000000000000000000000000000000000000000",
"k00000000000000000000000000000000000000000000000000000000000000000000000000000000000000000000000000000000000000000000000000000000",
"k00000000000000000000000000000000000000000000000000000000000000000000000000000000000000000000000000000000000000000000000000000000",
"k00000000000000000000000000000000000000000000000000000000000000000000000000000000000000000000000000000000000000000000000000000000",
"k00000000000000000000000000000000000000000000000000000000000000000000000000000000000000000000000000000000000000000000000000000000",
"k00000000000000000000000000000000000000000000000000000000000000000000000000000000000000000000000000000000000000000000000000000000",
"k00000000000000000000000000000000000000000000000000000000000000000000000000000000000000000000000000000000000000000000000000000000",
"k00000000000000000000000000000000000000000000000000000000000000000000000000000000000000000000000000000000000000000000000000000000",
"k00000000000000000000000000000000000000000000000000000000000000000000000000000000000000000000000000000000000000000000000000000000",
"k00000000000000000000000000000000000000000000000000000000000000000000000000000000000000000000000000000000000000000000000000000000",
"k00000000000000000000000000000000000000000000000000000000000000000000000000000000000000000000000000000000000000000000000000000000",
"k00000000000000000000000000000000000000000000000000000000000000000000000000000000000000000000000000000000000000000000000000000000",
"k00000000000000000000000000000000000000000000000000000000000000000000000000000000000000000000000000000000000000000000000000000000",
"k00000000000000000000000000000000000000000000000000000000000000000000000000000000000000000000000000000000000000000000000000000000",
"k00000000000000000000000000000000000000000000000000000000000000000000000000000000000000000000000000000000000000000000000000000000",
"k00000000000000000000000000000000000000000000000000000000000000000000000000000000000000000000000000000000000000000000000000000000",
"k00000000000000000000000000000000000000000000000000000000000000000000000000000000000000000000000000000000000000000000000000000000",
"k00000000000000000000000000000000000000000000000000000000000000000000000000000000000000000000000000000000000000000000000000000000",
"k00000000000000000000000000000000000000000000000000000000000000000000000000000000000000000000000000000000000000000000000000000000",
"k00000000000000000000000000000000000000000000000000000000000000000000000000000000000000000000000000000000000000000000000000000000",
"k00000000000000000000000000000000000000000000000000000000000000000000000000000000000000000000000000000000000000000000000000000000",
"k00000000000000000000000000000000000000000000000000000000000000000000000000000000000000000000000000000000000000000000000000000000",
"k00000000000000000000000000000000000000000000000000000000000000000000000000000000000000000000000000000000000000000000000000000000",
"k00000000000000000000000000000000000000000000000000000000000000000000000000000000000000000000000000000000000000000000000000000000",
"k00000000000000000000000000000000000000000000000000000000000000000000000000000000000000000000000000000000000000000000000000000000",
"k00000000000000000000000000000000000000000000000000000000000000000000000000000000000000000000000000000000000000000000000000000000",
"k00000000000000000000000000000000000000000000000000000000000000000000000000000000000000000000000000000000000000000000000000000000",
"k00000000000000000000000000000000000000000000000000000000000000000000000000000000000000000000000000000000000000000000000000000000",
"k00000000000000000000000000000000000000000000000000000000000000000000000000000000000000000000000000000000000000000000000000000000",
"k00000000000000000000000000000000000000000000000000000000000000000000000000000000000000000000000000000000000000000000000000000000",
"k00000000000000000000000000000000000000000000000000000000000000000000000000000000000000000000000000000000000000000000000000000000",
"k00000000000000000000000000000000000000000000000000000000000000000000000000000000000000000000000000000000000000000000000000000000",
"k00000000000000000000000000000000000000000000000000000000000000000000000000000000000000000000000000000000000000000000000000000000",
"k00000000000000000000000000000000000000000000000000000000000000000000000000000000000000000000000000000000000000000000000000000000",
"k00000000000000000000000000000000000000000000000000000000000000000000000000000000000000000000000000000000000000000000000000000000",
"k00000000000000000000000000000000000000000000000000000000000000000000000000000000000000000000000000000000000000000000000000000000",
"k00000000000000000000000000000000000000000000000000000000000000000000000000000000000000000000000000000000000000000000000000000000",
"k00000000000000000000000000000000000000000000000000000000000000000000000000000000000000000000000000000000000000000000000000000000",
"k00000000000000000000000000000000000000000000000000000000000000000000000000000000000000000000000000000000000000000000000000000000",
"k00000000000000000000000000000000000000000000000000000000000000000000000000000000000000000000000000000000000000000000000000000000",
"k00000000000000000000000000000000000000000000000000000000000000000000000000000000000000000000000000000000000000000000000000000000",
"k00000000000000000000000000000000000000000000000000000000000000000000000000000000000000000000000000000000000000000000000000000000",
"k00000000000000000000000000000000000000000000000000000000000000000000000000000000000000000000000000000000000000000000000000000000",
"k00000000000000000000000000000000000000000000000000000000000000000000000000000000000000000000000000000000000000000000000000000000",
"k00000000000000000000000000000000000000000000000000000000000000000000000000000000000000000000000000000000000000000000000000000000",
"k00000000000000000000000000000000000000000000000000000000000000000000000000000000000000000000000000000000000000000000000000000000",
"k00000000000000000000000000000000000000000000000000000000000000000000000000000000000000000000000000000000000000000000000000000000",
"k00000000000000000000000000000000000000000000000000000000000000000000000000000000000000000000000000000000000000000000000000000000",
"k00000000000000000000000000000000000000000000000000000000000000000000000000000000000000000000000000000000000000000000000000000000",
"k00000000000000000000000000000000000000000000000000000000000000000000000000000000000000000000000000000000000000000000000000000000",
"k00000000000000000000000000000000000000000000000000000000000000000000000000000000000000000000000000000000000000000000000000000000",
"k00000000000000000000000000000000000000000000000000000000000000000000000000000000000000000000000000000000000000000000000000000000",
"k00000000000000000000000000000000000000000000000000000000000000000000000000000000000000000000000000000000000000000000000000000000",
"k00000000000000000000000000000000000000000000000000000000000000000000000000000000000000000000000000000000000000000000000000000000",
"k00000000000000000000000000000000000000000000000000000000000000000000000000000000000000000000000000000000000000000000000000000000",
"k00000000000000000000000000000000000000000000000000000000000000000000000000000000000000000000000000000000000000000000000000000000",
"k00000000000000000000000000000000000000000000000000000000000000000000000000000000000000000000000000000000000000000000000000000000",
"k00000000000000000000000000000000000000000000000000000000000000000000000000000000000000000000000000000000000000000000000000000000",
"k00000000000000000000000000000000000000000000000000000000000000000000000000000000000000000000000000000000000000000000000000000000",
"k00000000000000000000000000000000000000000000000000000000000000000000000000000000000000000000000000000000000000000000000000000000",
"k00000000000000000000000000000000000000000000000000000000000000000000000000000000000000000000000000000000000000000000000000000000",
"k00000000000000000000000000000000000000000000000000000000000000000000000000000000000000000000000000000000000000000000000000000000",
"k00000000000000000000000000000000000000000000000000000000000000000000000000000000000000000000000000000000000000000000000000000000",
"k00000000000000000000000000000000000000000000000000000000000000000000000000000000000000000000000000000000000000000000000000000000",
"k00000000000000000000000000000000000000000000000000000000000000000000000000000000000000000000000000000000000000000000000000000000",
"k00000000000000000000000000000000000000000000000000000000000000000000000000000000000000000000000000000000000000000000000000000000",
"k00000000000000000000000000000000000000000000000000000000000000000000000000000000000000000000000000000000000000000000000000000000",
"k00000000000000000000000000000000000000000000000000000000000000000000000000000000000000000000000000000000000000000000000000000000",
"k00000000000000000000000000000000000000000000000000000000000000000000000000000000000000000000000000000000000000000000000000000000",
"k00000000000000000000000000000000000000000000000000000000000000000000000000000000000000000000000000000000000000000000000000000000",
"k00000000000000000000000000000000000000000000000000000000000000000000000000000000000000000000000000000000000000000000000000000000",
"k00000000000000000000000000000000000000000000000000000000000000000000000000000000000000000000000000000000000000000000000000000000",
"k00000000000000000000000000000000000000000000000000000000000000000000000000000000000000000000000000000000000000000000000000000000",
"k00000000000000000000000000000000000000000000000000000000000000000000000000000000000000000000000000000000000000000000000000000000",
"k00000000000000000000000000000000000000000000000000000000000000000000000000000000000000000000000000000000000000000000000000000000",
"k00000000000000000000000000000000000000000wzzvvvvz0000000000000000000000000000000000000000000000000000000000000000000000000000000",
"k000000000000000000000000000000000000>>>;wzzzvvvvzz000000000000000000000000000000000000000000000000000000000000000000000000000000",
"k0000000000000000000000000000000000>>>,;@zzwqqqqqqq800000000000000000000000000000000000000000000000000000000000000000000000000000",
"k00000000000000000000000000000000>>tutt@@zwqqq8888q880000jjjjjjjjhh0000jjjjjjjjh0000000000000000000000000000000000000000000000000",
"k000000000000000000000000000000,,tuytt,@@wqq8tttt88880000445544443300004445h5443000000nbzzzlw97;;,,000000000000000000000000000000",
"k0000000000000000000000000000>>tuuytr,,@@qq88tttt78880000445544443300004445h544300000wcnzzzzlw97--,,00000000000000000000000000000",
"k00000000000000000000000000>>tuuryrr>:,@@9q88iitt*877@@334455444433*##*4445h544300000zwcc99888877+-,,0000000000000000000000000000",
"k000000000000000000000000>>tuuuterr>>:,@@8q88iitt*877@@334455444433*##*4445h5443$#000zwcl99888877++:,,000000000000000000000000000",
"k0000000000000000000000,,tttuut>>er>:=:>@@8w8****aaaassaa**5544443$####$345h543$###$0zwcl87,,,,77++:=;,>>;00000000000000000000000",
"k00000000000000000000>>,,eeetue>>ee>:==:>@@8w888pppasffsspp**333*$######$*333*$####$$zwcl8*,,,,77++:+@;;et;0000000000000000000000",
"k000000000000000000,,>>>>ee>>te>>:,e:-==->>>>>>>>pppppssaapp211$$$#######$$$2ppasddsazwcl8*tt,,7*+-:++@;;et;000000000000000000000",
"k000000000000000000,,>>>>ee>>eee>-:,,:---;;;;;;;;;;;-=pppppp221+++$$######$2assdsaaa,zzcl8*tt,,7++:=+++;=>e:;00000000000000000000",
"k0000000000000000,,>>>>>>>>;;-:>>:--;pasdddddffsspp22@@---222211+++#######2asdsaaee>;-zcl87***7*+@:=+++=+>>::;0000000000000000000",
"k0000000000000000,,>>>>>>>>;;--:>>;pasdddddffggfdsa2211@@@-@@111<+++######2addaae>;;;--ql88777*+-:-@++@@+;:@@@@000000000000000000",
"k0000000000000000777766;;;;-----:,;;;;;:;;aaffffdssapp21<+@---@11<+++11###passa--------@@+++++--:::-@@@@+--+++++00000000000000000",
"k00000000000007789877666%;;---->eeeee,:::::sfffssssaapp22<++@--@1<<+++1###ppppp11ppaaaa@@++@;;:----::-@@@=-+++++00000000000000000",
"k000000000000776898666666%%--:,pas>>---:>esfffapaaaaaapp21<+++@-@1<++++++@p22psdgggggffffdsap@@@@@@+++++%689w87670000000000000000",
"k0000000000077&$$$$$$$$$666%:,,asfsp>---:>dffa@2ppaaaaapp21<+++@@1<<+++++22asggggggffddssapp>>>;;--@++%6889wxw8876000000000000000",
"k000000000077##     ####$$6%%;;:::paaaassfgfsp-@2pppaapppp2<+++@@1<<++++2pdfgggggffdsappp,e>---@@@@++67887%##OOOOOOO0000000000000",
"k00000000077#          ###$%%;:>>>>:;paasfgap,:@@22ppppppp21<+++@1<<+++2pdfgggggfdsapp:,>-=@@@@@@+++*7876##OOOOOOOOOO000000000000",
"k0000000066#             ###$==;:>>,:;paasfa>e,@@122222pp221<+++@1<<+++psffggggffsap>>;-=@@++++++++*686#OOOOOOOOOOOOOO00000000000",
"k000000006#                ##$===-;:,:;paaaa:>:@@112112p2221<+++@1<<++2pdfffdfgfsap,:;=@@+++++++++*676#OOOOOOOOOOOOOOO00000000000",
"k00000000%#                 ##$***$;:>:;---ap>;++<121<<221221<++@1<<++2affdfsdgfsap>;=@+++++######*66#ooOOOOOOOOOOOOOOO0000000000",
"k00000000%                  ###$77*=;:>:;---a;;++<12<<<22<221<+++1<<+22sfdsdadgfsa;:-@+++    ####%66%#oooOOOOOOOOOOOOOO0000000000",
"k00000000%                   ###$**$$-:::---p;-++<11<<<21<221<<++1<<+2psfsadadgdap;;@++   #$$###%*66%ooooooOOOOOOOOOOOO0000000000",
"k00000000%                   ####$$$$#-;:;--p-=++<1<<<<21<221<<++1<<+2psfsadadgdap;-@+  #$$$$###%66%# XXoooooOOOOOOOOOO0000000000",
"k00000000%                   #####$$$$#=;;=@2=@  <1@@<<21<221<<<<1<<+2psfspdasgdp--=+  #$%%$$##%*66#   XXXoooooOOOOOOOO0000000000",
"k000000000%                   #####$$$$#===@2@+  <1@@<<11<121<<<<1<<+2psfspdesfdp--=+  $**%$###%66%#     XXXoooooOOOOOO0000000000",
"k000000000%                   ######$$  #==@1++  <1@@<<11<121<<  1<<+2psfs2d-adsp--+   %*7*###$%66$#       XXXoooooOOOO0000000000",
"k000000000%                   #######   #=@@1++  <1@@<<11<121<<  1<<+2psfs2a-adsp-@+   #%**###$*66#          XXXoooooOO0000000000",
"k0000000000                    #  ##     #@+1++  <1++<<<1<121<<  1<<+2pafa2a+asap=+     #$$##%%66%#            XXoooooo0000000000",
"k0000000000                    #         #@+1++  <1++<<<1<121<<  1<<+ppasa2a+asap=+      ####%%66#               XXoooo0000000000",
"k00000000000                   #          ++1+   <1++<<<1<121<<  1<<+ppasa2a+psp2=+       ###$$$$#                 XXo00000000000",
"k00000000000                   #          ++1    <1++<<<<<121<<  1<<+pppsp2a+pap2=+        ##$$$#                    .00000000000",
"k000000000000                   #         ++<    <1++<<++<121<<  1<<+pppsp2a+pa2-@+       ##$*$##                    000000000000",
"k000000000000                               <    <1++<<++<121<<  1<<+pp2sp2a+pa2-@+      #%**$##                     000000000000",
"k0000000000000                              <    <1  <<++<121<<  1<<+pp2sp2a p2--@+     #*77*$#                     0000000000000",
"k0000000000000                              <    <1  <<++<121<<  1<<+pp2ap2a 22--@++   #$77*%88                    00000000000000",
"k00000000000000                             <    <1  <<++<121<<  1<< pp2ap2a 22==@++   #$**%87w9                 0000000000000000",
"k000000000000000                            <    <1  <<++<121<<  2<< pp2ap2a p2==@@++  ##%%87$#q9              000000000000000000",
"k000000000000000077**$$########7#           <    <1  <<++<121<<  21< pp2ap2a+p2@==@@+   ##87$  #88           00000000000000000000",
"k000000000000000077777**$#####7*#     ##$$  <    <1  <<++<121<<  p2< pp2ap2a+p2@===@@+   87$    #**        0000000000000000000000",
"k0000000000000000              *#   ##      <    <1<<<<<<<121<<<<pp2<pp2ap2a+p2++====@++ 8$      #$$      00000000000000000000000",
"k0000000000000000              *$  #       <<<<<<<1<<<<<<12p21112aa22pppappa p2 +++++++  $        ###    000000000000000000000000",
"k00000000000000000             #$ #  <<<<<<<<<<<<<1122222pppppppppppaaaaaaaapp2000000000           ###  0000000000000000000000000",
"k000000000000000000             $  <<<<<<<<<<<<11222222222pppp222ppppppppppppppp00000000            #  00000000000000000000000000",
"k0000000000000000000            # <<<<<<<<<<<11112220000000000000000000000000000000000000             000000000000000000000000000",
"k00000000000000000000            000000000000000000000000000000000000000000000000000000000           0000000000000000000000000000"
};
