/* XPM */
static const char *sprite_8[] = {
/* columns rows colors chars-per-pixel */
"129 129 60 1 ",
"  c black",
". c #0F0000",
"X c #130000",
"o c #1B0700",
"O c gray12",
"+ c #230B00",
"@ c #2B1700",
"# c #2B230F",
"$ c #372300",
"% c #3F3300",
"& c #3B2F17",
"* c #232323",
"= c #2F2F2F",
"- c #373737",
"; c gray23",
": c #6F0000",
"> c #43331B",
", c #4B3B1B",
"< c #573F1F",
"1 c #5F4323",
"2 c #6F4B27",
"3 c #774F2B",
"4 c #430043",
"5 c #5B005B",
"6 c #6F0073",
"7 c #004343",
"8 c #005B5B",
"9 c #007373",
"0 c #4B4B4B",
"q c gray34",
"w c #676767",
"e c none",
"r c gray45",
"t c gray50",
"y c #83532F",
"u c #8B5B33",
"i c #935F37",
"p c #9F633B",
"a c #A3673F",
"s c #AB6B43",
"d c #B77347",
"f c #BF7B4B",
"g c #D38353",
"h c #870087",
"j c #9F009F",
"k c #008787",
"l c #009F9F",
"z c #00B7B7",
"x c none",
"c c #5FFFFF",
"v c gray56",
"b c #9B9B9B",
"n c gray67",
"m c #B7B7B7",
"M c #C3C3C3",
"N c LightGray",
"B c #DFDFDF",
"V c #DBFFFF",
"C c #EFEFEF",
"Z c white",
/* pixels */
"xxxxxxxxxxxxxxxxxxxxxxxxxxxxxxxxxxxxxxxxxxxxxxxxxxxxxxxxxxxxxxxxxxxxxxxxxxxxxxxxxxxxxxxxxxxxxxxxxxxxxxxxxxxxxxxxxxxxxxxxxxxxxxxxx",
"xeeeeeeeeeeeeeeeeeeeeeeeeeeeeeeeeeeeeeeeeeeeeeeeeeeeeeeeeeeeeeeeeeeeeeeeeeeeeeeeeeeeeeeeeeeeeeeeeeeeeeeeeeeeeeeeeeeeeeeeeeeeeeeee",
"xeeeeeeeeeeeeeeeeeeeeeeeeeeeeeeeeeeeeeeeeeeeeeeeeeeeeeee;000000000000000000;==eeeeeeeeeeeeeeeeeeeeeeeeeeeeeeeeeeeeeeeeeeeeeeeeeee",
"xeeeeeeeeeeeeeeeeeeeeeeeeeeeeeeeeeeeeeeeeeeeeeeeeeeeee=****====;;;;;;;;==OO     eeeeeeeeeeeeeeeeeeeeeeeeeeeeeeeeeeeeeeeeeeeeeeeee",
"xeeeeeeeeeeeeeeeeeeeeeeeeeeeeeeeeeeeeeeeeeeeeeeeeeeee=;********========OO    OO; eeeeeeeeeeeeeeeeeeeeeeeeeeeeeeeeeeeeeeeeeeeeeeee",
"xeeeeeeeeeeeeeeeeeeeeeeeeeeeeeeeeeeeeeeeeeeeeeeeeeeee=;qtvnMntqq;****;qqtnMnvtq; eeeeeeeeeeeeeeeeeeeeeeeeeeeeeeeeeeeeeeeeeeeeeeee",
"xeeeeeeeeeeeeeeeeeeeeeeeeeeeeeeeeeeeeeeeeeeeeeeeeeeee=0qbnBCNNMmvtrrtvmMMMNMnnq0 eeeeeeeeeeeeeeeeeeeeeeeeeeeeeeeeeeeeeeeeeeeeeeee",
"xeeeeeeeeeeeeeeeeeeeeeeeeeeeeeeeeeeeeeeeeeeeeeeeeeeee=0qnNBCCCNMBCZZCBMNCCNMNnq0 eeeeeeeeeeeeeeeeeeeeeeeeeeeeeeeeeeeeeeeeeeeeeeee",
"xeeeeeeeeeeeeeeeeeeeeeeeeeeeeeeeeeeeeeeeeeeeeeeeeeeee=0wnmBBMBCCCBBBBCCCBBBBmnw0 eeeeeeeeeeeeeeeeeeeeeeeeeeeeeeeeeeeeeeeeeeeeeeee",
"xeeeeeeeeeeeeeeeeeeeeeeeeeeeeeeeeeeeeeeeeeeeeeeeeeeee=0rnBCZZCBBBBBBBBBBBCZZBnr0 eeeeeeeeeeeeeeeeeeeeeeeeeeeeeeeeeeeeeeeeeeeeeeee",
"xeeeeeeeeeeeeeeeeeeeeeeeeeeeeeeeeeeeeeeeeeeeeeeeeeeee=qtnMNCZZZCCmBBBmCZZZCCMntq eeeeeeeeeeeeeeeeeeeeeeeeeeeeeeeeeeeeeeeeeeeeeeee",
"xeeeeeeeeeeeeeeeeeeeeeeeeeeeeeeeeeeeeeeeeeeeeeeeeeeee=qvnNNnnnnnnwnnnwnnnnnnNnvq eeeeeeeeeeeeeeeeeeeeeeeeeeeeeeeeeeeeeeeeeeeeeeee",
"xeeeeeeeeeeeeeeeeeeeeeeeeeeeeeeeeeeeeeeeeeeeeeeeeeeee=wvNNvr000wwwMZMww00=;qnNvw eeeeeeeeeeeeeeeeeeeeeeeeeeeeeeeeeeeeeeeeeeeeeeee",
"xeeeeeeeeeeeeeeeeeeeeeeeeeeeeeeeeeeeeeeeeeeeeeeeeeeee=tvBv;   =;==trt====  ;tNvt eeeeeeeeeeeeeeeeeeeeeeeeeeeeeeeeeeeeeeeeeeeeeeee",
"xeeeeeeeeeeeeeeeeeeeeeeeeeeeeeeeeeeeeeeeeeeeeeeeeeeerwtMBr 8zzw0  ;q; 0wzz8 rNvtwreeeeeeeeeeeeeeeeeeeeeeeeeeeeeeeeeeeeeeeeeeeeeee",
"xeeeeeeeeeeeeeeeeeeeeeeeeeeeeeeeeeeeeeeeeeeeeeeeeeeenwrNN; lcVlw 0vZv0wlVcl qNvrwneeeeeeeeeeeeeeeeeeeeeeeeeeeeeeeeeeeeeeeeeeeeeee",
"xeeeeeeeeeeeeeeeeeeeeeeeeeeeeeeeeeeeeeeeeeeeeeeeeeeeb*rNCtvnBBnMnrmmrrtvBBnvtNnr*beeeeeeeeeeeeeeeeeeeeeeeeeeeeeeeeeeeeeeeeeeeeeee",
"xeeeeeeeeeeeeeeeeeeeeeeeeeeeeeeeeeeeeeeeeeeeeeeeeeeeb*rNCZZBBZNMtvMCMvttMmBZZNnr*beeeeeeeeeeeeeeeeeeeeeeeeeeeeeeeeeeeeeeeeeeeeeee",
"xeeeeeeeeeeeeeeeeeeeeeeeeeeeeeeeeeeeeeeeeeeeeeeeeeeeb*tmNZMBNBt0rnNCNnr0tMMBZmbr*beeeeeeeeeeeeeeeeeeeeeeeeeeeeeeeeeeeeeeeeeeeeeee",
"xeeeeeeeeeeeeeeeeeeeeeeeeeeeeeeeeeeeeeeeeeeeeeeeeeeet*rvMMbBMv00qqrvrqq00bBbmbtr*teeeeeeeeeeeeeeeeeeeeeeeeeeeeeeeeeeeeeeeeeeeeeee",
"xeeeeeeeeeeeeeeeeeeeeeeeeeeeeeeeeeeeeeeeeeeeeeeeeeeetnq0vvbBbr0qqw000wqq0bBbvrwqnteeeeeeeeeeeeeeeeeeeeeeeeeeeeeeeeeeeeeeeeeeeeeee",
"xeeeeeeeeeeeeeeeeeeeeeeeeeeeeeeeeeeeeeeeeeeeeeeeeeeeqt00qtvNbrqwtvwwwvtwqbBvrq00tteeeeeeeeeeeeeeeeeeeeeeeeeeebbeeeeeeeeeeeeeeeeee",
"xeeeeeeeeeeeeeeeeeeeeeeeeeeeeeeeeeeeeeeeeeeeeeeeeeeeqq00qrvBbrqwnmtwtmnwqvBvwq00qqeeeeeeeeeeeeeeeeeeeeeeeeeetbteeeeeeeeeeeeeeeeee",
"xeeeeeeeeeeeeeeeeeeeeeeeeeeeeeeeeeeeeeeeeeeeeeeeeeeeeq00qwvBvrwwttbtbttwwbBvrq00qeeeeeeeeeeeeeeeeeeeeeeeeeeNNbteeeeeeeeeeeeeeeeee",
"xeeeeeeeeeeeeeeeeeeeeeeeeeeeeeeeeeeeeeeeeeeeeeeeeeeeee00qrvBbrr0rvBBBvr0rvBvwq00eeeeeeeeeeeeeeeeeeeeeeeeeeCCNbtteeeeeeeeeeeeeeeee",
"xeeeeeeeeeeeeeeeeeeeeeeeeeeeeeeeeeeeeeeeeeeeeeeee66eeee0qwvBvtt0r     r0tvBvwr0&&eeeeeeeeeeeeeeeeeeeeeeeeeCCNnvteeeeeeeeeeeeeeeee",
"xeeeeeeeeeeeeeeeeeeeeeeeeeeeeeeeeeeeeeeeeeeeeeeee66eeee0rwvBvtt0=XXXX =0tvBvrv0,<&eeeeeeeeeeeeeeeeeeeeeeeeeCNnvteeeeeeeeeeeeeeeee",
"xeeeeeeeeeeeeeeeeeeeeeeeeeeeeeeeeeeeeeeeeeeeeeejj55<<2,0vrvBvtt0       0tvBvtn0#,1,########eeeeeeeeeeeeeeeeCNmbtteeeeeeeeeeeeeeee",
"xeeeeeeeeeeeeeeeeeeeeeeeeeeeeeeeeeeeeeeeeeeeeeejj55<2>,0btvNnbb0:::::::0bnBvtb0##<221,>#&<22<,eeeeeeeeeeeeeNCmbtteeeeeeeeeeeeeeee",
"xeeeeeeeeeeeeeeeeeeeeeeeeeeeeeeeeyyyyyyyyyyyyy266j5<y>,0vtvNMnbr0qqqq00bnMBvvb0##&1&###&u2<<<12221,>eeeeeeeeCMnvteeeeeeeeeeeeeeee",
"xeeeeeeeeeeeeeeeeeeeeeeeeeeeeee22pdgppsdffdsppp6655<u><;wvtNNmnmnbbbbbmbmNBvbw;##>&#@@&u2&&&&>><13uu3,&eeeeeCNnvtteeeeeeeeeeeeeee",
"xeeeeeeeeeeeeeeeeeeeeeeeeeeee222uddfgsiisdsiuuuu655<u>1#;wvNNMMnmNBBNmnnNBmbw;###>&#@&21&hh$$&,1yy31,,,&&eeeNCnbtteeeeeeeeeeeeeee",
"xeeeeeeeeeeeeeeeeeeeeeeeeee222usffsisfpuyii222222552y&1,#0wbNNMMbrwwwvnNNMbw0###&>#@#&1>&hh$&<1321,,,122<,eeeCnbtteeeeeeeeeeeeeee",
"xeeeeeeeeeeeeeeeeeeeeeeee222usffspyyyaspuyy32<<<<<<23,,1,#00bNNNMnbbnMNBNb00####&>#@&,<&$hh&<121,,,13uppu1,eeCMnvteeeeeeeeeeeeeee",
"xeeeeeeeeeeeeeeeeeeeeee22yaassauy22<<ypspyuy3<<<<<<2y<,13,##0bMCCCZZCCCMb0######,>#@&<2&@hh<<11,,<13yyyupu2,eCNnvtteeeeeeeeeeeeee",
"xeeeeeeeeeeeeeeeeeeee22yuippuuy33<,&&<2pbrr<<22hh222y2,,131###wbbbbbbbbr0#######<>@#>12<@$><<1,hh<11323yuyy3,,Cmbtteeeeeeeeeeeeee",
"xeeeeeeeeeeeeeeeeeee22222yuissauy2<>##<bMnr<<22hh2223y<&,ww8888qttttttt8888####&<>@>,32<$>><<,,hh,,,123y31<,,,CMbtteeeeeeeeeeeeee",
"xeeeeeeeeeeeeeeeeee123333332yussu33<##bMMnr<<<<<<,,,1y2&,q9kk997******9klk97*##&1>#>,y2<>,,66<<<,>,<2y31<,>>>>CNnttteeeeeeeeeeeee",
"xeeeeeeeeeeeeeeeee12yyuaay3<<,2uau32>bMMMnr<<<<<<,,,,23,*8k7  787****8k7  787*#&2,>1,u2<>,,66<<,>><2321<>>>>>>>Cnttteeeeeeeeeeeee",
"xeeeeeeeeeeeeeeeee13upaffa2,>&<2upu3bMMMMnr6j,,hh,,hh13**kl    88****kl    87**&12255u2hh,,55<<>>,1221,&>,<11<<Cnvt&&&eeeeeeeeeee",
"xeeeeeeeeeeeeeeeee3uy3122,>&&&#,3uibMMMMMnr66,,hh,,hh<***9l    77****9l    87***,1155y2hh,,55<,&><111,&&,1y322<Cmvt&&&&&eeeeeeeee",
"xeeeeeeeeeeeeeeee<y112yyy31,###>>3bMMMMMMnr,,<<662266****89;  ;77****89;  ;77****,1,1y21>,,,,<>&&,<,>&&,1y321wwwwbbqq0&&&eeeeeeee",
"xeeeeeeeeeeeeeeee<<1yiiiiiu1,###>bMMMMMMMnr,,<<662266**** 8;00;7 **** 8;00;7 ****><12321>,,,,<>#&,,&&#>12321,wwwwbbqq00&&&eeeeeee",
"xeeeeeeeeeeeeeeee<<yipiiiiiu1>##bMMMMMMMMnr<<2222hhq*****  ====  ****  ====  *****>13365>>>>>66##&&###>1321<nbt;;11qq;;;o#&eeeeee",
"xeeeeeeeeeeeeeeee<<ipiyyy3yy2>>bMMMMMMMMMnr<<2222hhq***8887*    *7887*     8888***>1366j5>>>>66@###&##>132<nnbt;;11qq;;;;o&eeeeee",
"xeeeeeeeeeeeeeeee<2iyy2wtvmmmBBMMMMMMMMMBB>6h22hh22***9kk997   *788887*   9kk997**=&16655&&55>#@@#&&##&121<nnbtttttww0;;;+o&eeeee",
"xeeeeeeeeeeeeeeee<2y32wtbmmmmBBMMMMMMMMBB>>6622h622**8k7  787**78877887**8k7  787**&&&65&&&55>#.@#&#@#&>11<nnbbttttww0;;;#+&eeeee",
"xeeeeeeeeeeee21,&>222wtbbmmmbbbMMMMMMMBB&>><<66j5,,**kl    87**88777788**kl    87**5544<<>>44#@..@#@@#&><1<rwwwwwwwqq0;;;##&eeeee",
"xeeeeeeeeeee221&#><2wtbbbmmwwddMMMMMMBB&&>><<6655,,**9l    77**88777788**9l    77**5544&<>$44oooo@@@o@#&>1<rrvvbbbwqq0;;;#&&eeeee",
"xeeeeeeeeee22u1&##<wtbbbbMMwyyyMMMMMBB###&&55556655**89;  ;77**78877887**89;  ;77**446544$@+o...ooooo+@#&>,@wvvttwwqq00;;#>&eeeee",
"xeeeeeeeee22u31,##<tvbbbnMMwyyyMMMMBB#.+##&55556655** 8;00;7 ** 788887 ** 8;00;7 **456554$$##@@@oooooo+@##&@+wwwwwwqq00;;#,&eeeee",
"xeeeeeeeee2u311,##<tbbbMMnbrrwwMMMBB#..o@##55445522**  ====  *** 7887 **** ====  **4454##,,>>##&&&vq+.oo+@#@+vvtbbtqq00;;>,eeeeee",
"xeeeeeeeee231<1,&#<bbbnMMntrrwwMMBB#..oo+@#55445522***      *8888    **8888     ***4454#&,,&&&&&&vqq###@oo+##wvtttwqq00;;,&eeeeee",
"xeeeeeeee211<11<&#<bbnMnbrtttwwMBB#.+oojj66##55,,,,****    *9klk98****9klk98   ****4555#>&<<,&&&vrwqq&&$#$@o+@wvvwwww00;;&eeeeeee",
"xeeeeeeee1<<131<&#<bbMMntrrrvwwBB##@@oojj66##55,,,,7*******8k7  788**8k7  788******4454#>&&11<,Mvrrqq<<&&#$$$@@vvwwww00;;eeeeeeee",
"xeeeeeeee<<<y31<,&,bMMMrrvtrrqq&&&###@+6655##&&>>5j8*******kl    88**kl    88*****#####&,,46&1<Bvrrwqq221<&&&###eeeeeeeeeeeeeeeee",
"xeeeeeeee<<2321<,&&bMnttrrvtqqq&&&1,&#@6655@##&&>5587******9l    87**9l    87****######,,46h611BMvrrqqu2<>&&&&&&#eeeeeeeeeeeeeeee",
"xeeeeeeee<<32rrbMMb<<rrvtrrqq&&,,ee1,&####@@###&&,,87******89;  ;77**89;  ;77****#####&>>5566&1<Bvrrwqqu32<,&&&###eeeeeeeeeeeeeee",
"xeeeeeeee<2rbMMMMMMb<rrrvtqqq&&,eeee1&&&######&&,,,<87***** 8;00;7 ** 8;00;7 ****#####>>>&56&&1<BMvrrqquu331<,,&&##eeeeeeeeeeeeee",
"xeeeeeeee<rbMMMMMvvMb<<qqqqeeeeeeeee1,>>&&&>,<12221<877****  ====  **  ====  +**#####&&>>1221,<<<Bvrrwqqu21>>&>,&&#eeeeeeeeeeeeee",
"xeeeeeeee<bMMMMMMvvMMb<qqqqeeeeeeeee1,,>>&>,112yy221<877****      ****      +@*######&&>123321,<<BMvrrwqu1<,,&&>>>&#eeeeeeeeeeeee",
"xeeeeeeeermMMbvrrwwvvrreeeeeeeeeeeeee1<<>>&&&,,551121<877*****   ******   ++@**####4455###&<<12<<&Bntrrqq,,<<<,&&&>#eeeeeeeeeeeee",
"xeeeeeeeebmMMbvrrtwvvrreeeeeeeeeeeeeee1<<>>>>,,55,,11<;88==+++*********+++@****####4455#o..o+&<1<&BMvrrwq,,,,,<<,####eeeeeeeeeeee",
"xeeeeeeeeMMbvrtrrrtwwqqeeeeeeeeeeeeeeee1,>&&&&&&&&&&&>>5577==@@++++ +++**====#+###&5566&#+...+&<<&&Bnrrrwq,&&&&&>,###eeeeeeeeeeee",
"xeeeeeeeeMMbvrrtrrqtw00eeeeeeeeeeeeeeee,>&&&&&&&&&&####j5777=========**=====#+###&&5566&&#+...#&<&&BMvrrwq,&&&&&&#>##eeeeeeeeeeee",
"xeeeeeeeevvrrrrwtrrqt00eeeeeeeeeeeeeee,>&,<<122211,>>&####===;;;;;;;;======++###&>>>>>>>>&#55.+&&&&&BnrrrBBbbbrwq;;##eeeeeeeeeeee",
"xeeeeeeeevvrtrrqwtrwqq0eeeeeeeeeeeeeee>1222222yy32<<,>&&####=;;;;;;;;=====++###&&>,<<<<11<&55o+#&&&&BMvrrBBbbrwqq;;##eeeeeeeeeeee",
"xeeeeeeeevvwwtrrqwtqqeeeeeeeeeeeeeeeee22y3211<<<<<<<,,,>>##+@+ooooo  5j  .+##>>,<<,,,hh<<1<&#+o55&&<<Bnqqrr11wwqq00##eeeeeeeeeeee",
"xeeeeeeeeevwwqtrrqwqqeeeeeeeeeeeeeeee2y311,>>>>>>>>>,,,>>>&##++++o+  55.o+#&&><<,,,,,hh,,<1<&#+55&&<<Bnqqrr11wwqq000#eeeeeeeeeeee",
"xeeeeeeeeeerrwqqqeeeeeeeeeeeeeeeeeee2311,&&&&&&&&&&&&&>>>>>65#+56@+  .oo+#&>,,,<<5511111<hh,<#@o+#&>>>>bb11wwqq00000&eeeeeeeeeeee",
"xeeeeeeeeeeerwwqqeeeeeeeeeeeeeeeeee221,>>>>>>>>>>>>>>>&&&>>55&#55+.  .o+#&&,,,,<<55122221hh>>,#+o@&>>>>bb11wwqq00000&eeeeeeeeeeee",
"xeeeeeeeeeeeeeeeeeeeeeeeeeeeeeeeee21,&&>>,,,,,,,,,,,,>>>&&>>>&#@+    oo#&&,,,55hh&&&h55&>,,<>&>@o+#&&>>bbbbqq00000000eeeeeeeeeeee",
"xeeeeeeeeeeeeeeeeeeeeeeeeeeeeeeeee21>>,,<<<<<<<<<<<,,,,>>&&>>&&@+    o+#&,,,,55hh&&&&55h&&>,,&&&+o@#&>>bbbbqq00000000eeeeeeeeeeee",
"xeeeeeeeeeeeeeeeeeeeeeeeeeeeeeeee21,,,111111111<<<<<,,,65>>66j5@o    o#&&,%$###5555########&&,&&@+o@#>>,qqqqqqq000000eeeeeeeeeeee",
"xeeeeeeeeeeeeeeeeeeeeeeeeeeeeeeee21,1222222222211<<<,,,55>>6655@o    o#&,$###h#5555####@+h+@##&&#@o+@#>,,ttwwqq000000eeeeeeeeeeee",
"xeeeeeeeeeeeeeeeeeeeeeeeeeeeeeeee212y322222222221<<<<,,,,55554#      o#&$@@#%>h>>hh55>#55@++++@&&#@+#e#>>qqqwqq00000eeeeeeeeeeeee",
"xeeeeeeeeeeeeeeeeeeeeeeeeeeeeeeee12y32222222222211<<<,,,,5644##      o#$@#h>>>>>hhh55>>55&#@+oo+@&#@eee##qqqqqq00000eeeeeeeeeeeee",
"xeeeeeeeeeeeeeeeeeeeeeeeeeeeeeeee2yy33333333322221<<<,,,,4444##66    o$@#>>hh,,555554,,>>&&&#@+oo@&@eeeeeeqrrqq0000eeeeeeeeeeeeee",
"xeeeeeeeeeeeeeeeeeeeeeeeeeeeeeee3yy333333333322221<<<,,,,4455##66    o@#>>>hh,,554566,,>>>>&&##@+o@@eeeeeeeqqqq000eeeeeeeeeeeeeee",
"xeeeeeeeeeeeeeeeeeeeeeeeeeeeeee22yy333333333322221<<<,,,,,121&&++    o@&&>>,,,,hh466666,,>>>&&##@+o@eeeeeeeeeeeeeeeeeeeeeeeeeeeee",
"xeeeeeeeeeeeeeeeeeeeeeeeeeeeeee2yy3333333333332221<<<,,>,121,>&#@    @#&&>>,,,,hh456566,,>>>>&&##@+@eeeeeeeeeeeeeeeeeeeeeeeeeeeee",
"xeeeeeeeeeeeeeeeeeeeeeeeeeeeee32yy3333333333332221<,,,,>>1<,>&&#@o.  @#&&>,>>,,,,,,,,66hh,>>>55hh@@@eeeeeeeeeeeeeeeeeeeeeeeeeeeee",
"xeeeeeeeeeeeeeeeeeeeeeeeeeeeeeyyuy3333333333332221<,,,>>>,>&&>#@@o.  @#&&>,>>,,,,,,,,66hh,>>>55hh@@eeeeeeeeeeeeeeeeeeeeeeeeeeeeee",
"xeeeeeeeeeeeeeeeeeeeeeeeeee333yyiu333333333333321<,,,,>>&&&&&##@@+.  ##&&>,,,<<<<<<hh,,,,,,44&&#@@@eeeeeeeeeeeeeeeeeeeeeeeeeeeeee",
"xeeeeeeeeeeeeeeeeeeeeeeeeee3333yui333333333333321,,,,>>&&&&&##@@@@.  ##&&>,,,<<<<<<hh,,,,,,44&&#@@@eeeeeeeeeeeeeeeeeeeeeeeeeeeeee",
"xeeeeeeeeeeeeeeeeeeeeeeeeee22333yuiy333333332221<,,,>&&&&&###@@@&#+  ##&&>,,,<<<<<<<<<<,,,,>>&&&#@@eeeeeeeeeeeeeeeeeeeeeeeeeeeeee",
"xeeeeeeeeeeeeeeeeeeeeeeeeee223322yuuyyy33222221<,,,<<11<>>#@@@##&#@ e##&&>,,,<<<1111<<<,,,,>>&&&#@@eeeeeeeeeeeeeeeeeeeeeeeeeeeeee",
"xeeeeeeeeeeeeeeeeeeeeeeeeee<<3211133yuuy33221<<,,,<1yuy2,&&####&&#@ee##&&>,,,<<111111<<<,,,>>>>&&#@#eeeeeeeeeeeeeeeeeeeeeeeeeeeee",
"xeeeeeeeeeeeeeeeeeeeeeeeeee<<32<<,,1122222332<<,,,12321<<,&&##&&##eee##&&>,,,<<1222211<<,,,>>>>&&###eeeeeeeeeeeeeeeeeeeeeeeeeeeee",
"xeeeeeeeeeeeeeeeeeeeeeeeeee,,321<,,,,,,<<<<11111<>>,<1<<,&&##&&##eeee#&&>>,,,<12222221<<<,,>>>>&&&###eeeeeeeeeeeeeeeeeeeeeeeeeeee",
"xeeeeeeeeeeeeeeeeeeeeeeeeee,,131<,&>>>>>>><,,,,>>>>>>>>>&&##&&##eeeee#&&>>,,,<12222221<<<,,>>>>&,,&&#eeeeeeeeeeeeeeeeeeeeeeeeeeee",
"xeeeeeeeeeeeeeeeeeeeeeeeeee,,>32<,&>>>>>>>>>>>>>>>>&&##&&##&&##eeeeee#&&&&,,,<12222221<<<,,>>>>,<<,&&eeeeeeeeeeeeeeeeeeeeeeeeeeee",
"xeeeeeeeeeeeeeeeeeeeeeeeeee,,>131,&>>>>>>&&&&&&>>>>&&####&&##eeeeeeee#&&&&,,,<11222211<<<,,>>>,<11<&&eeeeeeeeeeeeeeeeeeeeeeeeeeee",
"xeeeeeeeeeeeeeeeeeeeeeeeeeee,>#12<>>>>>>>>>>>>>&&&&&#######eeeeeeeeee#&&&&&,,<<1111111<<,,>>>,<1221>&eeeeeeeeeeeeeeeeeeeeeeeeeeee",
"xeeeeeeeeeeeeeeeeeeeeeeeeeee,,#&11,>>>>>>>>>>>>&&&&&###### eeeeeeeeee##&&&&,,,<<1111<<<,,,>>,<11221>#eeeeeeeeeeeeeeeeeeeeeeeeeeee",
"xeeeeeeeeeeeeeeeeeeeeeeeeeeee,&#&1<,,&&&&&&&&&&>>&&######  eeeeeeeeee##&&&&>>,,,<<<<<,,,,>>,&&&,<<,>#eeeeeeeeeeeeeeeeeeeeeeeeeeee",
"xeeeeeeeeeeeeeeeeeeeeeeeeeeee,&##&1<<,&&&&&&&&&>>&######   eeeeeeeeee##&&&&>>>>,,,,,,,,>>>,&&###>>>##eeeeeeeeeeeeeeeeeeeeeeeeeeee",
"xeeeeeeeeeeeeeeeeeeeeeeeeeeeee, ##&>,<,,,>>>>>>#######   @ eeeeeeeeee##&&&#&&&&>>>>>>>>>>&&&##@@####eeeeeeeeeeeeeeeeeeeeeeeeeeeee",
"xeeeeeeeeeeeeeeeeeeeeeeeeeeeeee  ##################      @ eeeeeeeeee##&,&###&&>>>>>>>>&&&&##@@+@###eeeeeeeeeeeeeeeeeeeeeeeeeeeee",
"xeeeeeeeeeeeeeeeeeeeeeeeeeeeeeee                         * eeeeeeeeeee#&,&&###&&&&&&&&&&&###@++++@#eeeeeeeeeeeeeeeeeeeeeeeeeeeeee",
"xeeeeeeeeeeeeeeeeeeeeeeeeeeeeeee @    *                 @*eeeeeeeeeeee##&,&&#####&&&&&&####@++@#.+#eeeeeeeeeeeeeeeeeeeeeeeeeeeeee",
"xeeeeeeeeeeeeeeeeeeeeeeeeeeeeeeee *@   **               *@eeeeeeeeeeee##&,,&&&###########@@++@##..#eeeeeeeeeeeeeeeeeeeeeeeeeeeeee",
"xeeeeeeeeeeeeeeeeeeeeeeeeeeeeeeeee =*@   ******        @* eeeeeeeeeeeee##&,,,&&&####@@@@@@###&>#.o#eeeeeeeeeeeeeeeeeeeeeeeeeeeeee",
"xeeeeeeeeeeeeeeeeeeeeeeeeeeeeeeeeee =**@    ***        *@eeeeeeeeeeeeee###&>,,,,&&&&&&&&>>>&>>#+.+#eeeeeeeeeeeeeeeeeeeeeeeeeeeeee",
"xeeeeeeeeeeeeeeeeeeeeeeeeeeeeeeeeee =**=@@            @* eeeeeeeeeeeeee ###&&>,,,,,,,,,>>,,>&#+o+#eeeeeeeeeeeeeeeeeeeeeeeeeeeeeee",
"xeeeeeeeeeeeeeeeeeeeeeeeeeeeeeeeeee =***==**@       @**@ eeeeeeeeeeeeee  ###################++o+ eeeeeeeeeeeeeeeeeeeeeeeeeeeeeeee",
"xeeeeeeeeeeeeeeeeeeeeeeeeeeeeeeeee  =*+@**=====**        eeeeeeeeeeeeee *                       eeeeeeeeeeeeeeeeeeeeeeeeeeeeeeeee",
"xeeeeeeeeeeeeeeeeeeeeeeeeeeeeeeeee =*@+                   eeeeeeeeeeeee *=;qq==  **  ;;**    =* eeeeeeeeeeeeeeeeeeeeeeeeeeeeeeeee",
"xeeeeeeeeeeeeeeeeeeeeeeeeeeeeeeeee =*@+                   eeeeeeeeeeeee *;0wwq=**** ;qq;*   *=* eeeeeeeeeeeeeeeeeeeeeeeeeeeeeeeee",
"xeeeeeeeeeeeeeeeeeeeeeeeeeeeeeeeee =*@+  ****             eeeeeeeeeeeee *;;;;*   *   ;;   *===* eeeeeeeeeeeeeeeeeeeeeeeeeeeeeeeee",
"xeeeeeeeeeeeeeeeeeeeeeeeeeeeeeeeee ==@+**                 eeeeeeeeeeeeee*=0;                *= eeeeeeeeeeeeeeeeeeeeeeeeeeeeeeeeee",
"xeeeeeeeeeeeeeeeeeeeeeeeeeeeeeeeee =;==@@********@@@++    eeeeeeeeeeeeee =00;******  ****  *=* eeeeeeeeeeeeeeeeeeeeeeeeeeeeeeeeee",
"xeeeeeeeeeeeeeeeeeeeeeeeeeeeeeeeee =q;=***@@+++++++       eeeeeeeeeeeeee *=00==;;;==*0;** *== eeeeeeeeeeeeeeeeeeeeeeeeeeeeeeeeeee",
"xeeeeeeeeeeeeeeeeeeeeeeeeeeeeeeeee =;;*@+++               eeeeeeeeeeeeeee ***              ** eeeeeeeeeeeeeeeeeeeeeeeeeeeeeeeeeee",
"xeeeeeeeeeeeeeeeeeeeeeeeeeeeeeeeee  ;@++                  eeeeeeeeeeeeeee ***               * eeeeeeeeeeeeeeeeeeeeeeeeeeeeeeeeeee",
"xeeeeeeeeeeeeeeeeeeeeeeeeeeeeeeeeee = +                  eeeeeeeeeeeeeeee**=;;;;*****;;*****  eeeeeeeeeeeeeeeeeeeeeeeeeeeeeeeeeee",
"xeeeeeeeeeeeeeeeeeeeeeeeeeeeeeeeeee ==                   eeeeeeeeeeeeeee*;0qq000;=**;00;**;0** eeeeeeeeeeeeeeeeeeeeeeeeeeeeeeeeee",
"xeeeeeeeeeeeeeeeeeeeeeeeeeeeeeeeeee  =               *  eeeeeeeeeeeeeee*=0q0;**************;0** eeeeeeeeeeeeeeeeeeeeeeeeeeeeeeeee",
"xeeeeeeeeeeeeeeeeeeeeeeeeeeeeeeeeeee  =            **  eeeeeeeeeeeeeeee*;00;********$$@@+  **** eeeeeeeeeeeeeeeeeeeeeeeeeeeeeeeee",
"xeeeeeeeeeeeeeeeeeeeeeeeeeeeeeeeeeeee   ****          eeeeeeeeeeeeeeeee*;0;********$@@+      ** eeeeeeeeeeeeeeeeeeeeeeeeeeeeeeeee",
"xeeeeeeeeeeeeeeeeeeeeeeeeeeeeeeeeeeeeee             eeeeeeeeeeeeeeeeeee*;0;*******$@+         * eeeeeeeeeeeeeeeeeeeeeeeeeeeeeeeee",
"xeeeeeeeeeeeeeeeeeeeeeeeeeeeeeeeeeeeeeeeeeeeeeeeeeeeeeeeeeeeeeeeeeeeeee*;;;*******$@+         * eeeeeeeeeeeeeeeeeeeeeeeeeeeeeeeee",
"xeeeeeeeeeeeeeeeeeeeeeeeeeeeeeeeeeeeeeeeeeeeeeeeeeeeeeeeeeeeeeeeeeeeeee**;;*******$@+        *  eeeeeeeeeeeeeeeeeeeeeeeeeeeeeeeee",
"xeeeeeeeeeeeeeeeeeeeeeeeeeeeeeeeeeeeeeeeeeeeeeeeeeeeeeeeeeeeeeeeeeeeeee-*                      eeeeeeeeeeeeeeeeeeeeeeeeeeeeeeeeee",
"xeeeeeeeeeeeeeeeeeeeeeeeeeeeeeeeeeeeeeeeeeeeeeeeeeeeeeeeeeeeeeeeeeeeeeee-*;;;;************** eeeeeeeeeeeeeeeeeeeeeeeeeeeeeeeeeeee",
"xeeeeeeeeeeeeeeeeeeeeeeeeeeeeeeeeeeeeeeeeeeeeeeeeeeeeeeeeeeeeeeeeeeeeeeeeeeeeeeeeeeeeeeeeeeeeeeeeeeeeeeeeeeeeeeeeeeeeeeeeeeeeeeee",
"xeeeeeeeeeeeeeeeeeeeeeeeeeeeeeeeeeeeeeeeeeeeeeeeeeeeeeeeeeeeeeeeeeeeeeeeeeeeeeeeeeeeeeeeeeeeeeeeeeeeeeeeeeeeeeeeeeeeeeeeeeeeeeeee",
"xeeeeeeeeeeeeeeeeeeeeeeeeeeeeeeeeeeeeeeeeeeeeeeeeeeeeeeeeeeeeeeeeeeeeeeeeeeeeeeeeeeeeeeeeeeeeeeeeeeeeeeeeeeeeeeeeeeeeeeeeeeeeeeee",
"xeeeeeeeeeeeeeeeeeeeeeeeeeeeeeeeeeeeeeeeeeeeeeeeeeeeeeeeeeeeeeeeeeeeeeeeeeeeeeeeeeeeeeeeeeeeeeeeeeeeeeeeeeeeeeeeeeeeeeeeeeeeeeeee"
};
