/* XPM */
static const char *sprite_6[] = {
/* columns rows colors chars-per-pixel */
"129 129 51 1 ",
"  c black",
". c #0F0000",
"X c #1B0700",
"o c gray12",
"O c #230B00",
"+ c #2B1700",
"@ c #2B230F",
"# c #372300",
"$ c #3F3300",
"% c #3B2F17",
"& c #232323",
"* c #2F2F2F",
"= c gray23",
"- c #6F0000",
"; c #43331B",
": c #4B3B1B",
"> c #573F1F",
", c #5F4323",
"< c #6F4B27",
"1 c #774F2B",
"2 c #004343",
"3 c #005B5B",
"4 c #007373",
"5 c #4B4B4B",
"6 c gray34",
"7 c #676767",
"8 c none",
"9 c gray45",
"0 c gray50",
"q c #83532F",
"w c #8B5B33",
"e c #935F37",
"r c #9F633B",
"t c #A3673F",
"y c #AB6B43",
"u c #008787",
"i c #009F9F",
"p c #00B7B7",
"a c none",
"s c #00CFCF",
"d c #00E7E7",
"f c gray56",
"g c #9B9B9B",
"h c gray67",
"j c #B7B7B7",
"k c #C3C3C3",
"l c LightGray",
"z c #DFDFDF",
"x c #DBFFFF",
"c c #EFEFEF",
"v c white",
/* pixels */
"aaaaaaaaaaaaaaaaaaaaaaaaaaaaaaaaaaaaaaaaaaaaaaaaaaaaaaaaaaaaaaaaaaaaaaaaaaaaaaaaaaaaaaaaaaaaaaaaaaaaaaaaaaaaaaaaaaaaaaaaaaaaaaaaa",
"a88888888888888888888888888888888888888888888888888888888888888888888888888888888888888888888888888888888888888888888888888888888",
"a88888888888888888888888888888888888888888888888888888888888888888888888888888888888888888888888888888888888888888888888888888888",
"a8888888888888888888888888888888888888888888888888888888888***********************&8888888888888888888888888888888888888888888888",
"a888888888888888888888888888888888888888888888888888888888 *=======================&888888888888888888888888888888888888888888888",
"a88888888888888888888888888888888888888888888888888888888  *======================***88888888888888888888888888888888888888888888",
"a88888888888888888888888888888888888888888888888888888888  o**===================****88888888888888888888888888888888888888888888",
"a88888888888888888888888888888888888888888888888888888888   oo***=============****&**88888888888888888888888888888888888888888888",
"a88888888888888888888888888888888888888888888888888888888      oo**========****&&&&**88888888888888888888888888888888888888888888",
"a88888888888888888888888888888888888888888888888888888888 =oo    oo********&&&&&&&&=*88888888888888888888888888888888888888888888",
"a88888888888888888888888888888888888888888888888888888888 665=oo    o&&&&&&&&&&&=566*88888888888888888888888888888888888888888888",
"a88888888888888888888888888888888888888888888888888888888 6999955=ooo&&&&&&&=5599996*88888888888888888888888888888888888888888888",
"a88888888888888888888888888888888888888888888888888888888 70hlllh066=&&&&=660hlllh07*88888888888888888888888888888888888888888888",
"a88888888888888888888888888888888888888888888888888888888 9fkvvvvvzjf0990fjzvvvvvkf9*88888888888888888888888888888888888888888888",
"a88888888888888888888888888888888888888888888888888888888 9fkvcccvvvvvvvvvvvccccvkf9*88888888888888888888888888888888888888888888",
"a88888888888888888888888888888888888888888888888888888888 70jczzzcccvvvvvvcczzzzcj07*88888888888888888888888888888888888888888888",
"a88888888888888888888888888888888888888888888888888888888 69hzccczzzzzzzzzzzzccczh96*88888888888888888888888888888888888888888888",
"a88888888888888888888888888888888888888888888888888888889760hkzvvcczlkkkklzccvvzkh06798888888888888888888888888888888888888888888",
"a8888888888888888888888888888888888888888888888888888888h76fhkkzvvvvcljjlcvvvvzkkhf67h8888888888888888888888888888888888888888888",
"a8888888888888888888888888888888888888888888888888888888h&6fh7=*0hlvvcggcvvlh0*=7hf6&g8888888888888888888888888888888888888888888",
"a8888888888888888888888888888888888888888888888888888888g&6f7=  *50hlj99jlh05*  =7f6&g8888888888888888888888888888888888888888888",
"a88888888888888888888888888888888888888888888888888888880&9f75243222=6600622234257kg&08888888888888888888888888888888888888888888",
"a88888888888888888888888888888888888888888888888888888880&9flg4isxu  6hlh5 uxsi4gklg&08888888888888888888888888888888888888888888",
"a8888888888888888888888888888888888888888888888888888888069hlvkhhhhkzjkvvzkhhhhkvvlg608888888888888888888888888888888888888888888",
"a8888888888888888888888888888888888888888888888888888888899hlvvzzzzzcjlvvczzzzzvvvlg088888888888888888888888888888888888888888888",
"a8888888888888888888888888888888888888888888888888888888869gjvvvvvvlcjzvvvlvvvvvvzk0688888888888888888888888888888888888888888888",
"a88888888888888888888888888888888888888888888888888888888590gzvvvvlkzjcvvzklvvvvvkf9588888888888888888888888888888888888888888888",
"a8888888888888888888888888888888888888888888888%%%@;;::>>>679kvvvk0fgjlvcjf0kvvvkf76888888888888888888888888888888888888888888888",
"a8888888888888888888888888888888888888888888%%;:%@;::::>>>5769kcch6990000996kcckf795888888888888888888888888888888888888888888888",
"a8888888888888888888888888888888888888888%%%:;:%@;:;%%;::;@776fklf9jhf779hj9hczf990@,>>888888888888888888888888888888888888888888",
"a88888888888888888888888888888888888888%%::::;:@@:;%@;::;%@797fjlffhzkggkzhhhclf900@,<<>>>888888888888888888888888888888888888888",
"a888888888888888888888888888888888570%;:><,>%;:@@:%@;::;%@@709fjl0700gggg0070clf9f9@,qqq<<>>>>>8888888888888888888888888888888888",
"a888888888888888888888888888888888570:><1>%%%%%@@;%@::;%@@@700fjl0*--------*0clf907@,1wewqq<>>>>>88888888888888888888888888888888",
"a88888888888888888888888888888888570h:<1,%%%%;%@@%@@::;%@@@590fjlfgfggggggfghcl0975@,<1wrrwqqq<>>>>888888888888888888888888888888",
"a88888888888888888888888888888888570j:><>%@@;;%@@%@@::;@@@@@50fjlf0fhlzzlhf0fcl075@@,<<<erttrwwqq<>>>8888888888888888888888888888",
"a8888888888888888888888888888888570gk%:>:%@+%;%@@%@@::;@@@@@@5fjlf0009999000gcl75@@>,,,<qrtrwwrrewq1:>>88888888888888888888888888",
"a8888888888888888888888888888888570jk@%::%@+#;%@@@+@;:%@@@@@@@5gkjgghjkkjjhhklg5@@>>>>>,<rwq11qew1,::>><8888888888888888888888888",
"a888888888888888888888888888888570gkg@@%%%@+#;%@@@+@;:%@@@@@@@@5gllllzvvcllllg5@@::>>>>,<qq<<,<q,,:>><wq<888888888888888888888888",
"a888888888888888888888888888888570jk#@@@%%@+#;%@+@+@;:@@@@@@@@@@5gkcccccccckg5@@::%;:>>,<q<<,><,>::><wyrq<88888888888888888888888",
"a88888888888888888888888888%%:570gkg+#@@@%@+#;%@+@+@;:@@@@@@@@@@@59gklcclkg75@@::%%;:>:>,1<,>::;;>><wyytw<,8888888888888888888888",
"a888888888888888888888888@@%;:570jk+++#@@@@+#;%@+OO+@;@@@@@@@@@@@@@@@@@@@@@@@:::%@%;:::>,<<>>::;;>>qrtrwqw<>888888888888888888888",
"a8888888888888888888888@@@@@;570gkgX+++#@#+O#;%@OOO+@;@@@**=59ghhhgf0963333:;;;%@@%:::::,<,::;;::><wrrwqqqq<>88888888888888888888",
"a888888888888888888888%@%;;;%570jk+XO+++#++O#;%%@OOOO@@&**&&&&&&&&&==56774433;;@@@%:%:::,<,::;;:,><eeeq<<1q1,88888888888888888888",
"a88888888888888888888%@@@@%%570gkg++XO++#+OO@%%%@OOO@2333332=&&&233334366774433%@@%@%:::,<:::;;:<><eee1<,<11<>8888888888888888888",
"a8888888888888888888@@@@%%%%570jk;#+XOO+++OO#%%%@@O@244upi432&&234ipdp43=5777443;@%@@:::,,:::%;:q><wwe1<,,<11>8888888888888888888",
"a888888888888888888%@;><<<:570gkg;;#X+OO+O+O+@;;%@@232  2pu43&&232  2du43=5777u43;;@@:::,,:;;%;:q><1qw11,>,<1,>888888888888888888",
"a88888888888888888%@@@@@@@:570jk,;;#X++OOO@O+#%;%$@33    uu43&&33    iu43*=6774i43;@@::::::;;%;:<>,<1q11<>,,<,>888888888888888888",
"a88888888888888888%==5999,,00gkg,::;X+@+O@%+O+@$;#@22    4433&&32    u443**5677ui43@@%:::::::@;:,,>,<<q11,,,,,>>88888888888888888",
"a888888888888888885550ghh,,q0jk:><:;O+%@@%%@X++##@@222  24433&&222  24443**=6774iu3@@%:::::::@;::,>>,<1q1<>>,,,>88888888888888888",
"a88888888888888885666fg09,,ww+$>>1:;OOXOXXXXXO+#@@&&222333222&&&222233322&&*5777ui43@@%:::::;@@%%<,>,,<11<,>>,,,>8888888888888888",
"a888888888888888866667999,,,,+#$>1:;XX+@@@@@XXO+#&&&&2222222&&&&&22222222&&*57774iu3@@%::::;%@@@%<1>>,,<11<>>>,,>8888888888888888",
"a88888888888888886666709900ff+#$><;%X+@%::%%%XXO+3444332&&&&&3332&&22333333777777iu3@@%:::;;@@@@%<q<>>,,<1<,>>>,,>888888888888888",
"a88888888888888866667009960ff+#$>:;X+@%:::::%@X+34uii4432&&&322232&2344uu440gg777u433@@%:;;%@@@@;,1q<,>,,<1<,>>,,>888888888888888",
"a88888888888888866677fff666hh+#,:XX+%;;@%::%@@@232  2i443&&32222232332  240gggg77u433@@%;;%@@@@%;:,<qq<,,,<<<,>,,,>88888888888888",
"a88888888888888866679fff66=9h+,1X#;:::;%@@%@@@@23    i443&&3222223233    0gggggg74433@O@%%@@@@%;:::,,<qq<,,,<<,>,,>88888888888888",
"a88888888888888866770fff99fhh,1X+:>:;%@@@@@%@@@22    u443&&3222223233    kggggggg4433@O@@@@O@%%::;;;;,,,1q,>,,<>,,>88888888888888",
"a88888888888888866790ffffffhh1X+:>>:::;@@+@@%@@222  24432&&23222332232   kkggggggg433@OO@@OO%%;::;;;;;;:,<1,>>>>>,>88888888888888",
"a8888888888888886770f999999%%;;%@##@@%:;@@+@%%@@222333322&& 233332 &222333kkggggggg33@OOOOO@;::::>111>>::>,<>>>>>>>88888888888888",
"a888888888888888770ffffffhh%%%%%%%%@@@@%;@+@@%@@@2222222&&&  2222  &&223332kkggggggg3@OOOOO@;:,111wee1%%;<q,<>:>>>>88888888888888",
"a888888888888888700999999%%:::::%%@+O+@@%@@++@@@@&&&&3333332   22333333==&&&kkgggggggOOOOOO@;,e<,,1weeq<%;<q<,::::888888888888888",
"a888888888888888800ffffhh%::::%::%%@+OO+@@@@++@@@&&&344uu4332  2344uu333=&&&&kkgggggggOOOOO@;e<;;:,1ww<1<%%,q,::::888888888888888",
"a8888888888888888888888%%:::%@@@%%%@@+OO+@@@++@@@@&332  2u433&&332  2u433&&**=kkgggggggOOOO@;q:;%;:,wq<<1<>:q<,:::888888888888888",
"a888888888888888888888%%@@@@@@@@@@%%@@+OO+@@++@@@@&33    u433&&33    u433&&**=5kkgggggggOO@;,<;%%%:,q,,,,1<<<<,::8888888888888888",
"a888888888888888888888%@@@%%%%@@@@@%%@+OO++++O@@@@@23    4433&&23    4433&&*=553kkggggggg@;:,:%%%>><1,,,,,,,,,::88888888888888888",
"a888888888888888888888%@@%:::;%%@@+@%%@OOO+++O@@@@@232  24432&&222  24432&&==5533kkgggggg;;::>>><<<1<>>::::>>::;:8888888888888888",
"a88888888888888888888%%@@@@@@%;;%@++@%%OOOXOOO@+@@@@233333222&&&222333322**=55222Okkggg77ggrr09<<<<<>>>::::::;;;:8888888888888888",
"a88888888888888888888%@@@@@@@@@;%@O+@:%OOXXXOO+++@@@@2222222&&&&&2222222**=55222OOOkk;;77ggrrr0g9>>>>>>:::::%;;:18888888888888888",
"a88888888888888888888;@@%;;;;%@%%#OO@%@OXXXXXOOO++++@@@&&&&&&&&&&&&&&&&**==5222OOOOOOOO;;><qrr1ggg9>>::::::%;::<q8888888888888888",
"a88888888888888888888;@%%;;;;%%%%#OX@@@XO++OOXXXOOOO+++++&&&&&&&&&&&&&&**=222OOOOOOOOOOO><<1q1>ggghg7::::%%;::,qq8888888888888888",
"a88888888888888888888:@@@%%%%:;;;#OXXXXO++O99OXXO+#######++OOOOOOOOOOO@599955OOOOOOOOOOOO><<<ggjjhghh0::%%;:>>,q18888888888888888",
"a88888888888888888888:@@@%%%::::;#OXX88O+O999+++@@@@@@@@@@@@++++OOOOOO599999955OOOOOOOOOOO><fggjjjhhhg:%%;:>><,1<8888888888888888",
"a88888888888888888888:@@%;;;:>>:;#OX888O+9000+@@@%%%%;;;;;;%@@@@+++OO599999999955OOOOOOOOOO7f79ghjjhhh9;;,1<<<,1<8888888888888888",
"a88888888888888888888:@@%;;:>>>:;#OX888O99000@@%%%%%%;;;;;;;;%%@@@++O9ggf9999999955OOOOOOO5f655ggjjjjjh>%;>1<<,<,8888888888888888",
"a88888888888888888888:@@%;;:>>>:;#OX88899900g@;%%%%%%%%%%%%%%%%%%@@+O=9hgff9999999955OOOO59665f09ghjjjh7>;;>11,<,8888888888888888",
"a88888888888888888888:@@%%;;>>>:;#OX88999000g;;%%%%;;;:::::;;;%%%%%@+OO79hhgf9999999955OO55557779hhjjjh07>;>1<<<>8888888888888888",
"a88888888888888888888;@@:::,,,>>%#OX89999000g%%;;;;::::::::::::;;%%%@+OOO70hhf09999999955%%55657h09ghjj097;;,1<,>8888888888888888",
"a88888888888888888888;@:;%%%%%%%%#OX99990000g%%,,,,,,,,,,,:::::::;;%%@@OO@=70hgff99999999555556h079ghjj097>;,1,>>8888888888888888",
"a88888888888888888888%:;@==59gg7@@@9999900f0g;>>>>>>>>>>>>>>>>>:::;;%@@OOOOO@7fhhf099999999%%5996565h000976%;1::88888888888888888",
"a88888888888888888888%;@==569ggg7@@999900ff0g@>::::>>,,>>,>>>>>::::;#%@OOOOO+@57fggff999999%%556565f9050976%;,:888888888888888888",
"a88888888888888888888%@==566977,,9959900ffg0z@:::>>,<<<1qqq1<>>>>::;#;@ O+O+++++@7fhhff995:::55555997555976%;:8888888888888888888",
"a8888888888888888888:@@=5666977,,995900ffg0zz;::>>>>>,,<<<<<<<<>>>::@#% O+++++@@@@@79ff55:::::5556975556766;>88888888888888888888",
"a888888888888888888888855666977,,,,700ffg0jf;::>>>>>>>>>>>>>,<<<>>%;@#;  ++++O@@@%%;;;;%%::::::5555555676688888888888888888888888",
"a888888888888888888888855666677,,,,70ffg0jj;;::>>::>>>>>>>>:::>,<,%@@#;  +%%@@+@@%%;;;;%%:::::::555556766888888888888888888888888",
"a88888888888888888888886666666677gg7ffg0hf%;:::::>>,,,,,,,,>:::>,;;@##;  +%%%%@@@%%;:::;;;:::>>::====7668888888888888888888888888",
"a88888888888888888888886666666677gg70g0hh%%;:::::>>,<<<<<,,>>>:;%%@#@@;  O@%%%%@@%%;::::;;;::>>::====6688888888888888888888888888",
"a8888888888888888888888666655555566890ff%%;;:::>>,,<<<<11<,>>>>:;###+@@ ..+@;;;%@@%%:::::;;;:::>>::::8888888888888888888888888888",
"a888888888888888888888866665555556689ff%%;;::::>,<<<<11qq1<<,>>:;%++#.. .OO@@;:%%@%%;::::::;;::>>::::8888888888888888888888888888",
"a88888888888888888888886655555566888888%%;;:::>,<<11qqqqqqq1<<,>:;@+#.. O+++@@;:;%%%%;:::>>::::,>::::8888888888888888888888888888",
"a88888888888888888888886655555566888888%%;:>>,,<1qqqqwwwq1111<<,:;%#;+ OO@%@+@@;:;%%%%;::>>::::><,:::8888888888888888888888888888",
"a88888888888888888888885555555588888888%:>>>>>,<<<<qeeeewq<>>>,<>:;#;OOOO+@%%@@@;::%%%%;:::>>>>>,<,::8888888888888888888888888888",
"a8888888888888888888888555555558888888%:>::>>,<<<<11qwwwq11<<,>>,::#;O+++O@@%;;@@::::%%%;::>,>>>>,<,:8888888888888888888888888888",
"a8888888888888888888888888888888888888:;%;:,,,,>>><11qwq1<111q<>>,:;;@O+@@@@@%%;;;;::::%%;:::,>>>:,,:8888888888888888888888888888",
"a8888888888888888888888888888888888888%%:,,>:::::>,,,<<<,>>,<<q<,,:;;%O++@%@@@%;;;;::,,:::;::><,>::::8888888888888888888888888888",
"a888888888888888888888888888888888888%%:,>::::;;:::>,,,,>>>>:>,q<,,::; O+#@%@@@%%%%;::,,:::::>,<,>>::8888888888888888888888888888",
"a888888888888888888888888888888888888%:,>::;;;;;;;::>,,>>::::::,,<,::;@ O+#%%@@@@%%%;::,<,::::>,<<,,:>888888888888888888888888888",
"a888888888888888888888888888888888888:::::;%@@@@;;;:>,,::;;;;;::>><,>#%  O+@%%%@@@@%%:>:,1<>>>>><q1,>>888888888888888888888888888",
"a888888888888888888888888888888888888::::;@@@%;;::::>,,>>>:;@##$::>>;#;   OO@%%%%%%%%%:>:<q1<,,,,qwq>>888888888888888888888888888",
"a888888888888888888888888888888888888;:;%@@@%;;;;;::>,,>>>>>>;@##$;;#+;   +++%%;;%%%%%%:>,<qqq1<<www<>>88888888888888888888888888",
"a888888888888888888888888888888888888;;;%@@@%;;;;;:>,<,,;;;::>>;@####+%+++@@@%%;%%%%%%%;:,1qqwwwwww<<>>88888888888888888888888888",
"a888888888888888888888888888888888888%%%@@@@%%%::::::::>>:;%%%@@+++O+@@@@@@%%@%%%%%%%;;:,1qqqqq1<,>::>>88888888888888888888888888",
"a888888888888888888888888888888888888%%%@%@@@@@%;;;;;;:::>>>>:%@@+O++% @@@@%@@@%%%%%%;;::,<1q<<,>,::::>88888888888888888888888888",
"a8888888888888888888888888888888888888%@%%@@@@@@@@@@@@%%%;:::>>:%+O+@@  @@@@%@@@%;:%%%%%%:,,,,,,::::;::88888888888888888888888888",
"a8888888888888888888888888888888888888%@:%%@@@@@%%%%%%%%%;;;;::>:%++%    @@@%%@@@%;:::;%%%%::::::::;;::88888888888888888888888888",
"a8888888888888888888888888888888888888%@:::%@%%%%%%%%%%%%%%%%;;:>:+@8     @@@%%%%%%::;:::::::::::::%%>888888888888888888888888888",
"a8888888888888888888888888888888888888%@%%%@@@@@@@@@@@@@@@@@@;;;::+%8      @@@%;;::::;;;;;:::::::::%88888888888888888888888888888",
"a88888888888888888888888888888888888888%@@@@@                @@%@@#%8       @@@@;;;:;;;%%%%%%%%:::%888888888888888888888888888888",
"a88888888888888888888888888888888888888%@@                    @%%@%88 &      @@@@@:;%%%%%%%%;::::%8888888888888888888888888888888",
"a88888888888888888888888888888888888888%%      &&&&&&&&&&&&&&  @@%%   &&&      @@:;%%%%%;::::::%%88888888888888888888888888888888",
"a888888888888888888888888888888888888888%     &**==========**&  @%%    &&        @@%%%%%%%%%%%%8888888888888888888888888888888888",
"a8888888888888888888888888888888888888888    &*******=======*&&  88     &&&                & 888888888888888888888888888888888888",
"a8888888888888888888888888888888888888888    &&&&&&&&********&&  88       &&&&           && 8888888888888888888888888888888888888",
"a8888888888888888888888888888888888888888    &&      &&  ****&&  88                 &&&&&  88888888888888888888888888888888888888",
"a8888888888888888888888888888888888888888    &       &&  &&**&&  88                      8888888888888888888888888888888888888888",
"a8888888888888888888888888888888888888888         &&*****&&  **  88          &&  &&&&&&&&8888888888888888888888888888888888888888",
"a88888888888888888888888888888888888888888      &&&&*****&&  **  88          &&  &&&&&&&&8888888888888888888888888888888888888888",
"a888888888888888888888888888888888888888888   &&&&&  &&  **&&& 8888                        88888888888888888888888888888888888888",
"a888888888888888888888888888888888888888888  &&&&&&  &&  **&&  8888  &             &**==*&  8888888888888888888888888888888888888",
"a888888888888888888888888888888888888888888      &&&&&&&&**    88888 &          &&&***=5=*&  888888888888888888888888888888888888",
"a888888888888888888888888888888888888888888      &&&&&&&&** &&  8888  &      &&&&&&***===*&  888888888888888888888888888888888888",
"a88888888888888888888888888888888888888888     &&&&****====**&&  8888  &     &&&&&&&******&  888888888888888888888888888888888888",
"a8888888888888888888888888888888888888888    &&&&&&****====**&&& 8888  &     &&&&&&&&****&&  888888888888888888888888888888888888",
"a8888888888888888888888888888888888888888   &&&&&&&**********&&& 88888  &    &&&&&&&&&&&&&&  888888888888888888888888888888888888",
"a8888888888888888888888888888888888888888   &&&&&&&**********&&& 888888  &&&                 888888888888888888888888888888888888",
"a8888888888888888888888888888888888888888   &&&&&&&**********&&& 8888888    &&&&&&&&&&&&&&  8888888888888888888888888888888888888",
"a8888888888888888888888888888888888888888   &&&&&&&**********&&& 88888888                   8888888888888888888888888888888888888",
"a8888888888888888888888888888888888888888  &&&*************&&&&& 8888888888888888888888888888888888888888888888888888888888888888",
"a8888888888888888888888888888888888888888  &&*****************&& 8888888888888888888888888888888888888888888888888888888888888888",
"a8888888888888888888888888888888888888888                        8888888888888888888888888888888888888888888888888888888888888888",
"a88888888888888888888888888888888888888888                       8888888888888888888888888888888888888888888888888888888888888888"
};
