/* XPM */
static const char *sprite_2[] = {
/* columns rows colors chars-per-pixel */
"129 129 89 1 ",
"  c black",
". c #0F0000",
"X c #130000",
"o c #1F0000",
"O c #1B0700",
"+ c gray12",
"@ c #2B0000",
"# c #230B00",
"$ c #370000",
"% c #2B1700",
"& c #2B230F",
"* c #372300",
"= c #3F3300",
"- c #3B2F17",
"; c #232323",
": c #2F2F2F",
"> c gray23",
", c #430000",
"< c #4B0000",
"1 c #570000",
"2 c #630000",
"3 c #6F0000",
"4 c #770000",
"5 c #43331B",
"6 c #4B3B1B",
"7 c #573F1F",
"8 c #5F4323",
"9 c #6F4B27",
"0 c #774F2B",
"q c #004343",
"w c #005B5B",
"e c #4B4B4B",
"r c gray34",
"t c #676767",
"y c none",
"u c gray45",
"i c gray50",
"p c #830000",
"a c #8F0000",
"s c #9B0000",
"d c #9F0000",
"f c #A70000",
"g c #B30000",
"h c #BF0000",
"j c #CB0000",
"k c #D70000",
"l c #DF0000",
"z c #E30000",
"x c #EF0000",
"c c red",
"v c #9F4F00",
"b c #AB5700",
"n c #B75700",
"m c #83532F",
"M c #8B5B33",
"N c #935F37",
"B c #9F633B",
"V c #A3673F",
"C c #F75F0F",
"Z c #CF6300",
"A c #E76F00",
"S c #FF7B00",
"D c #EF7F1F",
"F c #AB6B43",
"G c #B77347",
"H c #BF7B4B",
"J c #F35353",
"K c #BBBB00",
"L c #FF8B23",
"P c #C7C700",
"I c #D7D700",
"U c #E3E300",
"Y c #EFEF00",
"T c yellow",
"R c #008787",
"E c #009F9F",
"W c #00B7B7",
"Q c none",
"! c #5FFFFF",
"~ c gray56",
"^ c #9B9B9B",
"/ c gray67",
"( c #B7B7B7",
") c #C3C3C3",
"_ c LightGray",
"` c #DFDFDF",
"' c #DBFFFF",
"] c #EFEFEF",
"[ c white",
/* pixels */
"QQQQQQQQQQQQQQQQQQQQQQQQQQQQQQQQQQQQQQQQQQQQQQQQQQQQQQQQQQQQQQQQQQQQQQQQQQQQQQQQQQQQQQQQQQQQQQQQQQQQQQQQQQQQQQQQQQQQQQQQQQQQQQQQQ",
"Qyyyyyyyyyyyyyyyyyyyyyyyyyyyyyyyyyyyyyyyyyyyyyyyyyyyyyyyyyyyyyyyyyyyyyyyyyyyyyyyyyyyyyyyyyyyyyyyyyyyyyyyyyyyyyyyyyy^^uyyyyyyyyyyy",
"Qyyyyyyyyyyyyyyyyyyyyyyyyyyyyyyyyyyyyyyyyyyyyyyyyyyyyyyyyyyyyyyyyyyyyyyyyyyyyyyyyyyyyyyyyyyyyyyyyyyyyyyyyyyyyyyyyyy^^uyyyyyyyyyyy",
"Qyyyyyyyyyyyyyyyyyyyyyyyyyyyyyyyyyyyyyyyyyyyyyyyyyyyyyyyyyyyyyyyyyyyyyyyyyyyyyyyyyyyyyyyyyyyyyyyyyyyyyyyyyyyyyyyyyy^^uuyyyyyyyyyy",
"Qyyyyyyyyyyyyyyyyyyyyyyyyyyyyyyyyyyyyyyyyyyyyyyyyyyyyyyyyyyyyyyyyyyyyyyyyyyyyyyyyyyyyyyyyyyyyyyyyyyyyyyyyyyyyyyyyyy^^uuyyyyyyyyyy",
"Qyyyyyyyyyyyyyyyyyyyyyyyyyyyyyyyy[)yyyyyyyyyyyyyyyyyyy::::::::::::::::::::::::::yyyyyyyyyyyyyyyyyyyyyyyyyyyyyyyyyyy((uutyyyyyyyyy",
"Qyyyyyyyyyyyyyyyyyyyyyyyyyyyyyyyy[)uyyyyyyyyyyyyyyyyy:>eeeeeeeeeeeeeeeeeeeeeee>: yyyyyyyyyyyyyyyyyyyyyyyyyyyyyyyyyy((uutyyyyyyyyy",
"Qyyyyyyyyyyyyyyyyyyyyyyyyyyyyyyy[)/uuyyyyyyyyyyyyyyyy:::>eeeeeeeeeeeeeeeeee>::   yyyyyyyyyyyyyyyyyyyyyyyyyyyyyyyyyy__uuttyyyyyyyy",
"Qyyyyyyyyyyyyyyyyyyyyyyyyyyyyyyy[)/uuyyyyyyyyyyyyyyyy::;;;;::::>>>>>>>>::++      yyyyyyyyyyyyyyyyyyyyyyyyyyyyyyyyyy__uuttyyyyyyyy",
"Qyyyyyyyyyyyyyyyyyyyyyyyyyyyyyy[)//iJyyyyyyyyyyyyyyyy:>;;;;;;;;::::::::++    ++> yyyyyyyyyyyyyyyyyyyyyyyyyyyyyyyyyy]]uuttyyyyyyyy",
"Qyyyyyyyyyyyyyyyyyyyyyyyyyyyyyy[)//Jcyyyyyyyyyyyyyyyy:>ri)))/irr>;;;;>rri/)))ir> yyyyyyyyyyyyyyyyyyyyyyyyyyyyyyyyyy]]uuttryyyyyyy",
"Qyyyyyyyyyyyyyyyyyyyyyyyyyyyyy[)//icxyyyyyyyyyyyyyyyy:ri)_`]__)(~iuui~()))_)_)ir yyyyyyyyyyyyyyyyyyyyyyyyyyyyyyyyyyiiiiiitryyyyyy",
"Qyyyyyyyyyyyyyyyyyyyyyyyyyyyyy[)//ixzyyyyyyyyyyyyyyyy:ri)_`]]]_)`][[]`)_]]_)_)ir yyyyyyyyyyyyyyyyyyyyyyyyyyyyyyyyyi((((((u^yyyyyy",
"Qyyyyyyyyyyyyyyyyyyyyyyyyyyyy[)//iixjyyyyyyyyyyyyyyyy:ri^(``)`]]]````]]]````(^ir yyyyyyyyyyyyyyyyyyyyyyyyyyyyyytt(iiiiiiiu^rryyyy",
"Qyyyyyyyyyyyyyyyyyyyyyyyyyyyy[)//iizjyyyyyyyyyyyyyyyy:ru^`][[])``]]]]``__][[`^ur yyyyyyyyyyyyyyyyyyyyyyyyyyyyyyttuuttttttiurryyyy",
"Qyyyyyyyyyyyyyyyyyyyyyyyyyyyy[)//iizjyyyyyyyyyyyyyyyy:ri^)_`[[[))````__[[[]))^ir yyyyyyyyyyyyyyyyyyyyyyyyyyyyyyii(i^^^^^^iitreyyy",
"Qyyyyyyyyyyyyyyyyyyyyyyyyyyyy[)//iijjyyyyyyyyyyyyyyyy:r~/___//[[]////][[//`/_/~r yyyyyyyyyyyyyyyyyyyyyyyyyyyyyyii(iiiiiiii^treyyy",
"Qyyyyyyyyyyyyyyyyyyyyyyyyyyyyyy``iijjyyyyyyyyyyyyyyyutt~__~uee^[[_^^_[[^e:>r/_~ttuyyyyyyyyyyyyyyyyyyyyyyyyyyyyy~~uuttttttuutreyyy",
"Qyyyyyyyyyyyyyyyyyyyyyyyyyyyyyy``iijjyyyyyyyyyyyyyyy/ti~`~>   :>^(iui(^::  >>_~it/yyyyyyyyyyyyyyyyyyyyyyyyyyyyy~~(i^^^^^^uutreeyy",
"Qyyyyyyyyyyyyyyyyyyyyyyyyy)))//iiiijjyyyyyyyyyyyyyyy^;i)`u wWW:  i>r>i  WWw >_~i;^yyyyyyyyyyyyyyyyyyyyyyyyyyyyy~~(iiiiiiitttre>yy",
"Qyyyyyyyyyyyyyyyyyyyyyyyy(^^iii~~iijjyyyyyyyyyyyyyyy^;u__> E!'E> ;~[~; E'!E >_~u;^yyyyyyyyyyyyyyyyyyyyyyyyyyyyy~~iittttttt^tre>yy",
"Qyyyyyyyyyyyyyyyyyyyyyy^((tttttt~ttyyyyyyyyyyyyyyyyy^;u_]i~/``/)/u((uui~``/~i_/u;^yyyyyyyyyyyyyyyyyyyyyyyyyyy77ee^^iiiiiitttr>>yy",
"Qyyyyyyyyyyyyyyyyyyyyyy^^))))``(tttuyyyyyyyyyyyyyyyyi;u_][[``[_)i~)])~ii)(`[[_/u;iyyyyyyyyyyyyyyyyyyyyyyyyyyy7&ee^^tttttttttr>:yy",
"Qyyyyyyyyyyyyyyyyyyyyy^^((^^^^^^rr~~uyyyyyyyyyyyyyyyi/i(_[)`_`ie^/_]_/^ei))`[(^u/iyyyyyyyyyyyyyyyyyyyyyyyyyy77&&>^^ttrrrrrre>>:yy",
"Qyyyyyyyyyyyyyyyyyyyyy^))))``))^ur~~uyyyyyyyyyyyyyyyriu~))^`)~eeru/]_uree)`^(^iuiiyyyyyyyyyyyyyyyyyyyyyyyyyy97&&>rrrreeeeeee>:yyy",
"Qyyyyyyyyyyyyyyyyyyyy^^(^^^^^^^^uuuuyyyyyyyyyyyyyyyyrrre~~^`^uerr>eee>rre^`^~utrrryyyyyyyyyyyyyyyyyyyyyyyyy7977&>eeee6666ee>>:yyy",
"Qyyyyyyyyyyyyyyyyyyyy^())))``))^uuryyyyyyyyyyyyyyyyyyreeri~_^urti~>:>~itr^`~ureeryyyyyyyyyyyyyyyyyyyyyyyyy79997&&eeee8008e>>:yyyy",
"Qyyyyyyyyyyyyyyyyyyyy^((((^^^^^iuuryyyyyyyyyyyyyyyyyyyeeru~`^urt/(iti(/tr~`~treeyyyyyyyyyyyyyyyyyyyyyyyyy7999977&&>>>NN00>>:yyyyy",
"Qyyyyyyyyyyyyyyyyyyyy^^()))``^^uuueyyyyyyyyyyyyyyyyyyyyert~`~uttii^i^iitt^`~ureyyyyyyyyyyyyyyyyyyyyyyyyyy79979977&&>>NN00::yyyyyy",
"Qyyyyyyyyyyyyyyyyyyyy//^^^^^^^iuureyyyyyyyyyyyyyyyyyyyyeru~`^uue       eu~`~treyyyyyyyyyyyyyyyyyyyyyyyyy779976666775-&&&5&&yyyyyy",
"Qyyyyyyyyyyyyyyyyyyyy/iiiiiiiiuuurryyyyyyyyyyyyyyyyyyyyert~`~iie       ei~`~tueyyyyyyyyyyyyyyyyyyyyyyyyy799776666775-&&&56&yyyyyy",
"Qyyyyyyyyyyyyyyyyyyyy^^uuNNNNiitrrtyyyyyyyyyyyyyy9877-5eut~`~iie XXXX  ei~`~u~e&&&&&&&---77yy8--5688yyy7598666666665-&&&56&yyyyyy",
"Qyyyyyyyyyyyyyyyyyyyy^^iuNNNNttrrityyyyyyyyyyyyyy0MMm-&e~u~`~iie       ei~`~i/e&&&&&&&-569978--568m0975*5788666566655&&&56&yyyyyy",
"Qyyyyyyyyyyyyyyyyyyyym^^iGGNNtrrit>75yy999990MMM000MM-&e^i~_/^^e3333333e^/`~i^e&&&&&&&-596&---568m09755%*679866-----&&&&-&yyyyyyy",
"Qyyyyyyyyyyyyyyyyyyyym&^^GGNNttit>>775y99MFFFFFFB770M-&e~i~_)/^uerrrree^/)`~~^e&&&&&&&-68&&-556680979Nm5%*67966----&&%&&6&yyyyyyy",
"Qyyyyyyyyyyyyyyyyyyyym&&&>>>>>>&&&67795MFFFVFFNNN087m7&>t~i__(/(/^^^^^(^(_`~^t>&&&&&&--76&--56680979m89m5*=7975--&&&&%&-6&yyyyyyy",
"Qyyyyyyyyyyyyyyyyyyyym7&&>>>>>>&&677795VVBNNNNNNMm8-885&>t~__))/(_``_(//_`(^t>&&&&&----76---5668089mN689mm09975-&&%%%%&-&yyyyyyyy",
"Qyyyyyyyyyyyyyyyyyyyym86&&&&&&&&5876675MmmmmmNNNMm05-8-&&et^__))^uttt~/__)^te&&&&-------68999868979mN--89996-5555&&%%&&6&yyyyyyyy",
"Qyyyyyyyyyyyyyyyyyyyymm86&&&&&&58766675Nm99900MNNMm8-575&&ee^___)/^^/)_`_^ee&&&--------679679986979mm--8996--5585-&%%&-6&yyyyyyyy",
"Qyyyyyyyyyyyyyyyyyyyy9mmm9977768755--65N9977888mMMm07&-75&&&e^)]]][[]]])^e&&&----55---67897-56988789m&&89975---5866&&&6&yyyyyyyyy",
"Qyyyyyyyyyyyyyyyyyyyy99mm9999886555--659987777788mm08-&-76&&&&t^)_))))^ue&&&&----55---677996-56867789&&68997-&-56809866&yyyyyyyyy",
"Qyyyyyyyyyyyyyyyyyyyymm966655555555--65987777776668097-&-66&&&&&&fh&&&&&&&&&&----665555676897-5686689&&--7896&&--66666&yyyyyyyyyy",
"Qyyyyyyyyyyyyyyyyyyyymm966655555555-665Mm977777665-598-&&--ttii^jfht^^^iiee&&--4-6655555568M97-5666-8&&---7875&&----56&yyyyyyyyyy",
"Qyyyyyyyyyyyyyyyyyyyy0m976666555555-655mMm987667765&5h--&&eittttfggtttteeeee5ha667755556689NN87--56-75&&-55-76%%&&--6&yyyyyyyyyyy",
"Qyyyyyyyyyyyyyyyyyyyy0N9766665555557-5599M987667776-&&h-&&etttttfjhfttteeeeeaa466775555689MMM08--&--66&%&55-&&####%56&yyyyyyyyyyy",
"QyyyyyyyyyyyyyyyyyyyymB0087665555776-55*69m975556775-&aaf@@@@33tnAkh333RR43hdp56677666688m85---&&&&-67&%&&&--&####%6&yyyyyyyyyyyy",
"QyyyyyyyyyyyyyyyyyyyymBN00866557886--55%569985-56776--3hd3@@@33dnLkh333er9hga2566776666885----&&&&&-685&%%&&&--&#%56&yyyyyyyyyyyy",
"Qyyyyyyyyyyyyyyyyyyyy9mBNmm9998866-5555%*-7m955&-5775-&ada4pffdhZPZhfap00dhd4;;66556668-----6668666*-65&##%%&&&&%-6&yyyyyyyyyyyyy",
"Qyyyyyyyyyyyyyyyyyyyy99mBBN997765--5555%%&7m9655&-576554dffhgghkZPZjfffxAgfa2;;6655668---666898665--%*-&%###%&&&&56&yyyyyyyyyyyyy",
"Qyyyyyyyyyyyyyyyyyyyy8999977666555555---%%5m9665-&---$$3adghhjkzAPZkhhxAjha3,;;;-5568-555778998776655#%*&%###%%&-6&yyyyyyyyyyyyyy",
"Qyyyyyyyyyyyyyyyyyyy6899M976666555555---*%-m98665-&&5$$3pafnjkzCLPAzzSPnhfp<$;;;;556--555799m98776665-O%*&%###%-56&yyyyyyyyyyyyyy",
"Qyyyyyyyyyyyyyyyyyy66669M997766665585---*%-m98766-&tt3334panKACCPPLAAPAjhd31<;;;;&&--555589mm98777766--O%*&%%%&-6&yyyyyyyyyyyyyyy",
"Qyyyyyyyyyyyyyyyyy666669Mm97766665985----%*0987665&tt33444agAKALPPLLPAjhfa2<<;;;;&&--555599mmm88777666--O%*---56&yyyyyyyyyyyyyyyy",
"Qyyyyyyyyyyyyyyyy6666668mM99766689855-5--*%9887766&22234asagZLKPUUPPAnjhf42<<,,@@oo--556699mMm998776666--O#*-66&yyyyyyyyyyyyyyyyy",
"Qyyyyyyyyyyyyyyyy66666-89Mmm888898555-&--*%9887766634paavbZZDLPIYYIPLAnnvvp4322<@oo--556899MNMm99776666--&&&&&&yyyyyyyyyyyyyyyyyy",
"Qyyyyyyyyyyyyyyy666886-68mMmm99985555-&--$$,<111124aaghnKKKKKPUYTTYUPKKKKnngdaaa2<<$$oo$$99MNNMm99866666-5yyyyyyyyyyyyyyyyyyyyyyy",
"Qyyyyyyyyyyyyyyy668876&589Mm988855555-&--$$$$11112paddghjlcLKPUYTTYUPKAxjhggfdda211$$oo$$99MNNNMm996666665yyyyyyyyyyyyyyyyyyyyyyy",
"Qyyyyyyyyyyyyyy7789996&-68mM997665555-&&&&%%%%&--6;244padghxLIPIYYIPLAxljd44<221<$$&&&&58990NMmNMm998666655yyyyyyyyyyyyyyyyyyyyyy",
"Qyyyyyyyyyyyyyy7789m97&&-69Mm97665555-&&%%%%%%%&-6;22224pdhAIIIPYUPLPAxkdp311<<,,oo&&&&58990Mm9mNMm99886655yyyyyyyyyyyyyyyyyyyyyy",
"Qyyyyyyyyyyyyy67899m996&&58mM9975-----&&&%%&&&%%&66tt$$<afxIIIALPPLAAPzha4<<<$$;;;;&&&&&-899m999mMmm00987555yyyyyyyyyyyyyyyyyyyyy",
"Qyyyyyyyyyyyyy6799mNm99&&568Mm997----&&-&&%&--&&%66tt$$1akAIIxzcLKccccAjd4<<<$$;;;;&&&&&&58999987mm000008755yyyyyyyyyyyyyyyyyyyyy",
"Qyyyyyyyyyyyy7789mmNN006&&56mMm976&--&&&-&&%&--&&--ee$$2sxIZZhkcLKclkkkng43@@;;;;;&&&--&&&-888655---5-8909755yyyyyyyyyyyyyyyyyyyy",
"Qyyyyyyyyyyyy779mNNMMMm06&&560M076&&&%%&&-5&&---&--ee$$4kIZhgfgzAKckhfdgnp3@@;;;;;&%&----&&&6665-&&&-55688855yyyyyyyyyyyyyyyyyyyy",
"Qyyyyyyyyyyy678mN976666886&&560m06&&%##%&&--&&---&&-;;33hhgdaddgzKxjd44asap,,;;;;&&%%&-------5570mNNm086668555yyyyyyyyyyyyyyyyyyy",
"Qyyyyyyyyyyy67MN076666666--&&55096&%####%&---&&---&-;;3ddaap4ppdjZxga<2234p,,;;;;&&%O%&------580mmmmmm00666555yyyyyyyyyyyyyyyyyyy",
"Qyyyyyyyyyy77mNM000999855&&-&&----&&###%%%&----5555-;@@4a432123djlza3<<,<1,22;;;&&&%#OO&&&&&&7787666888806655--yyyyyyyyyyyyyyyyyy",
"Qyyyyyyyyyy77mMNNMMM988775&%#%&&---&%%%&&&&&--65555--@@2321,--<pgkh42<&+@,,22;;&&&&%%#OOOO..77755558888666655--yyyyyyyyyyyyyyyyyy",
"Qyyyyyyyyyy78mmm00877666675&#OO%&---&&%&-5&&&--655555222,oo;www2dhf3<;wwwqqq;oo&&&&%%%##O..576689mmmmm0886655--yyyyyyyyyyyyyyyyyy",
"Qyyyyyyyyyy7000000088666677&#OOO#&&---&&-55&&&-665555229ooo;;ww1aff2,;;wwqq;;o%%%%%%%%%%#OO788899mNmm00008655--yyyyyyyyyyyyyyyyyy",
"Qyyyyyyyyy09000009mm9998866-&%##&----6-&-66-&&&-6655555--&&;;;;$3da1o;;;;;;&&&&&&--------&&76799mNNN0778908----yyyyyyyyyyyyyyyyyy",
"Qyyyyyyyyy09900mmMMMm999966-&&%&5&&--66---66-&&--665555--&&;;;;%<aa,o;;;;;;&&&&&&--------&776799NNm057766898-&-yyyyyyyyyyyyyyyyyy",
"Qyyyyyyyyy0000m8888889m9986--&%&-&&&-6666&-66-&&-5665--55--&%%&%,4<o &&&&&%%#####%%&&&&&&556699NNM9775566558-&-yyyyyyyyyyyyyyyyyy",
"Qyyyyyyyyy0008866666666555---&&--&&&&666--&-666&-56665-55--&&%%%,3<  &&%%#####%%&&&&&&&&&5889MNNM997755665--&&-yyyyyyyyyyyyyyyyyy",
"Qyyyyyyyy998866//))))//-%&&*-&&55&&&&&-----&-666&--6665&&---&%##$2<  %##OOO#&&&----6666665-----5MM0975566--&&&yyyyyyyyyyyyyyyyyyy",
"Qyyyyyyyy99886//____)//i-%**-&&55-&&&&&&----&-666--56765&----&###,<  ##OOO&-----666666655&&&&&&-7mMM9556--&&&&yyyyyyyyyyyyyyyyyyy",
"Qyyyyyyyy9986//__))(/~~ii-#%&&yyyy&&&&&&&------6667777765%%---&##@@  OOOO&---66666666669___(/^i-&-6mM55--&&&&yyyyyyyyyyyyyyyyyyyy",
"Qyyyyyyyy985//)_))(/^~iii-%#&&yyyy------------56666677776-%&&%#OOO#  %%O&---6666666666_____(/^it&&66m5--&&&&-yyyyyyyyyyyyyyyyyyyy",
"Qyyyyyyyy95//))_)////^^ii-%#&yyyy----------------555666666-%%#O  O#  %%&--66666------__)))(/^^~tt&-----&&&&&yyyyyyyyyyyyyyyyyyyyy",
"Qyyyyyyyy95//))))itrr^^ir-%#&yyy6-----------------------6655%#O OOO  %&-5666--&&&&--__))(//^~~itt&---&&&&&&yyyyyyyyyyyyyyyyyyyyyy",
"Qyyyyyyyy95/////itreerrre--&&yyy6665555--------------&&&&&66&%#      %&566-&&&&-555__))(//^~~iutt&&&&&&&&&yyyyyyyyyyyyyyyyyyyyyyy",
"Qyyyyyyyy95/////ireeerr>>--&yyy66665555--------------&%%%%&-6-%#     %&-5*%%&555566__)(///~~iuutt&&&&&&&&yyyyyyyyyyyyyyyyyyyyyyyy",
"Qyyyyyyyy95~///^teeFF99tt--&yy777666655------666666---&%##%%&-&#     %&-*%%%5556677__HHHH^~iiuttr&&&&&&&yyyyyyyyyyyyyyyyyyyyyyyyy",
"Qyyyyyyyy95u~//^teeFF99tt--&yy777666655------67777666-&%#.##%&&%      %%%%**5667777__HHHH^iiutttr&&&&&&yyyyyyyyyyyyyyyyyyyyyyyyyy",
"Qyyyyyyyyy55~//iiee99zztt--yy7777666655------------676-&%#.##%&%      %%%*--5777777tt~~mm~iuuttrr&&&&yyyyyyyyyyyyyyyyyyyyyyyyyyyy",
"Qyyyyyyyyy555//iiee99zztt--yy7777766655-------&&&&---67-&%O.#%&%      O%%*--5777777tt~~mm~iuttrrr&&&&yyyyyyyyyyyyyyyyyyyyyyyyyyyy",
"Qyyyyyyyyyy55e/iiiittzz^^--yy777776666555----55&%%%&&--6-%OO#%&# yy%% O#%-55566777uzz~~mmttttrrr---&&&yyyyyyyyyyyyyyyyyyyyyyyyyyy",
"Qyyyyyyyyyy55eeiittttzz^z--y7778876666555----55-&%##%&&-6-%O%&% yyy&%###%-55566777uzz~~mmtttrrr-----&&yyyyyyyyyyyyyyyyyyyyyyyyyyy",
"Qyyyyyyyyyyy555eitt~~))^zyyy7789987666555----55--&%%##%&-6&%&%# yyyy&%##%-5557777uzzutt66ttrrr------&&&yyyyyyyyyyyyyyyyyyyyyyyyyy",
"Qyyyyyyyyyyyyy55eee~~))^zyyy7789987666555----55--&&%%.##&--&&# yyyyyy&%#%&--57777uzzutt66ttrr--------&&yyyyyyyyyyyyyyyyyyyyyyyyyy",
"Qyyyyyyyyyyyyyyyyyy~~))zzyy7778998776665555--55---&&%#.O#&-&% yyyyyyy&&#%&&-5777uzzii9955555---------&&&yyyyyyyyyyyyyyyyyyyyyyyyy",
"Qyyyyyyyyyyyyyyyyyy~~))zzyy7778998776666555--55-----&%#..#&%# yyyyyyyy&&%&&&&&-7uzzii99755555--------&&&yyyyyyyyyyyyyyyyyyyyyyyyy",
"Qyyyyyyyyyyyyyyyyyy~~))zzy77777887776666555----------%#..O## yyyyyyyyy&&%&&&&-6uzzuiu799855555--------&&&yyyyyyyyyyyyyyyyyyyyyyyy",
"Qyyyyyyyyyyyyyyyyyy~~))zzy77777777776666555----------&%O.O##yyyyyyyyyy&&&&&&-66uzzuiu789975555---------&&yyyyyyyyyyyyyyyyyyyyyyyy",
"Qyyyyyyyyyyyyyyyyyy~~))~~y777777777766665555555----55&%O.Oyyyyyyyyyyyyy&&&&&599zziiit667777555---------&&yyyyyyyyyyyyyyyyyyyyyyyy",
"Qyyyyyyyyyyyyyyyyyy~~))~~y888777777766665555555--565*%%O. yyyyyyyyyyyyy&&&55599zziiur6677777555--------&&&yyyyyyyyyyyyyyyyyyyyyyy",
"Qyyyyyyyyyyyyyyyyyyy~))~~999987777777666655555556665*%#   yyyyyyyyyyyyyy&566799zuiitr666666665555-------&&yyyyyyyyyyyyyyyyyyyyyyy",
"Qyyyyyyyyyyyyyyyyyyy~))~~99998777777766665555556666* #O  yyyyyyyyyyyyyyy&677799uuiurr666666665555-------&&yyyyyyyyyyyyyyyyyyyyyyy",
"Qyyyyyyyyyyyyyyyyyyyy~~uu99998677776666555555--665&     yyyyyyyyyyyyyyyy6777&77iiitr55555555555556666666776yyyyyyyyyyyyyyyyyyyyyy",
"Qyyyyyyyyyyyyyyyyyyyy~~uu99998666776665555555--66&&    yyyyyyyyyyyyyyyyyy77&&77iiurr55555555555555555556676yyyyyyyyyyyyyyyyyyyyyy",
"Qyyyyyyyyyyyyyyyyyyyyyyyy9888555555665555----------%#  yyyyyyyyyyyyyyyyyyy-7755iitr775555----------------66yyyyyyyyyyyyyyyyyyyyyy",
"Qyyyyyyyyyyyyyyyyyyyyyyyy9866555555665555----------%#  yyyyyyyyyyyyyyyyyyy-7755iurr7755556668887665--&&&&--yyyyyyyyyyyyyyyyyyyyyy",
"Qyyyyyyyyyyyyyyyyyyyyyyyy8655--------------&&&&&&--%#O yyyyyyyyyyyyyyyyyyyy55--itr---5577776666666665--&&&-yyyyyyyyyyyyyyyyyyyyyy",
"Qyyyyyyyyyyyyyyyyyyyyyyyy6655-------------&&&&&&&--%#O yyyyyyyyyyyyyyyyyyyy55--urr---5577665---&&&%%%%%&&&-yyyyyyyyyyyyyyyyyyyyyy",
"Qyyyyyyyyyyyyyyyyyyyyyyyyy&55----------&&&&&&&&&&&&%# yyyyyyyyyyyyyyyyyyyyy::--tr555555665--&&&%#OOOOOO#%&&yyyyyyyyyyyyyyyyyyyyyy",
"Qyyyyyyyyyyyyyyyyyyyyyyyyy&&5--------&&&&&&&&&&&&& #O yyyyyyyyyyyyyyyyyyyyy::--rr55555555--&&&&&&%#OOOOO#&yyyyyyyyyyyyyyyyyyyyyyy",
"Qyyyyyyyyyyyyyyyyyyyyyyyyyy &&&---&&&&&&&&&&&&&&&    yyyyyyyyyyyyyyyyyyyyyyy---5555-----56677765--&&%#OO#&yyyyyyyyyyyyyyyyyyyyyyy",
"Qyyyyyyyyyyyyyyyyyyyyyyyyyyy &&&&&&&&&&&&&&&&&&     yyyyyyyyyyyyyyyyyyyyyyyy---5555------------------&%##&yyyyyyyyyyyyyyyyyyyyyyy",
"Qyyyyyyyyyyyyyyyyyyyyyyyyyyyy  &&&&&&&&&&&&&&&     yyyyyyyyyyyyyyyyyyyyyyyyy-----&&             &&&----%&&yyyyyyyyyyyyyyyyyyyyyyy",
"Qyyyyyyyyyyyyyyyyyyyyyyyyyyyy      &&&&&&&         yyyyyyyyyyyyyyyyyyyyyyyyy-6666&                 &&&-%&yyyyyyyyyyyyyyyyyyyyyyyy",
"Qyyyyyyyyyyyyyyyyyyyyyyyyyyyy                      yyyyyyyyyyyyyyyyyyyyyyyyy--66&     :::  ;;         &&&yyyyyyyyyyyyyyyyyyyyyyyy",
"Qyyyyyyyyyyyyyyyyyyyyyyyyyyyy                      yyyyyyyyyyyyyyyyyyyyyyyyyy--&   ::::>e  ;;          &&yyyyyyyyyyyyyyyyyyyyyyyy",
"Qyyyyyyyyyyyyyyyyyyyyyyyyyy;;;;;;                  yyyyyyyyyyyyyyyyyyyyyyyyyyy-&  ;:>eerre>>ee;  ;;    yyyyyyyyyyyyyyyyyyyyyyyyyy",
"Qyyyyyyyyyyyyyyyyyyyyyyyyy;;;;;;;;                 yyyyyyyyyyyyyyyyyyyyyyyyyyyy  ;;::>eee>::e>;  ;;    yyyyyyyyyyyyyyyyyyyyyyyyyy",
"Qyyyyyyyyyyyyyyyyyyyyyyyy;;::::::;;                yyyyyyyyyyyyyyyyyyyyyyyyyyyy  ;;:>>>>:  ;;    ;;    yyyyyyyyyyyyyyyyyyyyyyyyyy",
"Qyyyyyyyyyyyyyyyyyyyyyyyy;;:::::::;;               yyyyyyyyyyyyyyyyyyyyyyyyyyyy :;;::>>>:  ;;    ;;    yyyyyyyyyyyyyyyyyyyyyyyyyy",
"Qyyyyyyyyyyyyyyyyyyyyyyyy;;::>>>>::;               yyyyyyyyyyyyyyyyyyyyyyyyyyyy :;;:  ;;;:>ee:;;;      yyyyyyyyyyyyyyyyyyyyyyyyyy",
"Qyyyyyyyyyyyyyyyyyyyyyyyy;;::>>>>::;              yyyyyyyyyyyyyyyyyyyyyyyyyyyyy ::>  ;;;;::>>;;;;;     yyyyyyyyyyyyyyyyyyyyyyyyyy",
"Qyyyyyyyyyyyyyyyyyyyyyyyy;;::::::::;;             yyyyyyyyyyyyyyyyyyyyyyyyyyyyyy :; ;>>e>  ;;  ;;;;  yyyyyyyyyyyyyyyyyyyyyyyyyyyy",
"Qyyyyyyyyyyyyyyyyyyyyyyyy;;::::::::;;             yyyyyyyyyyyyyyyyyyyyyyyyyyyyyy ::;>:>e:  ;;  ;;;;  yyyyyyyyyyyyyyyyyyyyyyyyyyyy",
"Qyyyyyyyyyyyyyyyyyyyyyyyy;;;;;;;;;;;;            yyyyyyyyyyyyyyyyyyyyyyyyyyyyyyy ::>;::>:;;;;;;;     yyyyyyyyyyyyyyyyyyyyyyyyyyyy",
"Qyyyyyyyyyyyyyyyyyyyyyyyy ;;;;;;;;;;;            yyyyyyyyyyyyyyyyyyyyyyyyyyyyyyyy :>;::::;;;;;;;;    yyyyyyyyyyyyyyyyyyyyyyyyyyyy",
"Qyyyyyyyyyyyyyyyyyyyyyyyyy                      yyyyyyyyyyyyyyyyyyyyyyyyyyyyyyyyy;>>;:>>>>>>>>::;;;;&  yyyyyyyyyyyyyyyyyyyyyyyyyy",
"Qyyyyyyyyyyyyyyyyyyyyyyyyyy                    yyyyyyyyyyyyyyyyyyyyyyyyyyyyyyyyyy>>;;:>>>>>>>>>>::;;;& yyyyyyyyyyyyyyyyyyyyyyyyyy",
"Qyyyyyyyyyyyyyyyyyyyyyyyyyyyyyyyyyyyyyyyyyyyyyyyyyyyyyyyyyyyyyyyyyyyyyyyyyyyyyyyy>:;;::::::>>>>>>>:;;&&  yyyyyyyyyyyyyyyyyyyyyyyy",
"Qyyyyyyyyyyyyyyyyyyyyyyyyyyyyyyyyyyyyyyyyyyyyyyyyyyyyyyyyyyyyyyyyyyyyyyyyyyyyyyyy;;;;::::::::::>>>>:;&&& yyyyyyyyyyyyyyyyyyyyyyyy",
"Qyyyyyyyyyyyyyyyyyyyyyyyyyyyyyyyyyyyyyyyyyyyyyyyyyyyyyyyyyyyyyyyyyyyyyyyyyyyyyyyy ;;;:::::::::::>>>:;&&& yyyyyyyyyyyyyyyyyyyyyyyy",
"Qyyyyyyyyyyyyyyyyyyyyyyyyyyyyyyyyyyyyyyyyyyyyyyyyyyyyyyyyyyyyyyyyyyyyyyyyyyyyyyyy  ;;:::::::::::::::;&&& yyyyyyyyyyyyyyyyyyyyyyyy",
"Qyyyyyyyyyyyyyyyyyyyyyyyyyyyyyyyyyyyyyyyyyyyyyyyyyyyyyyyyyyyyyyyyyyyyyyyyyyyyyyyy;::::::>>>>>>>>>>>>>>>:&yyyyyyyyyyyyyyyyyyyyyyyy",
"Qyyyyyyyyyyyyyyyyyyyyyyyyyyyyyyyyyyyyyyyyyyyyyyyyyyyyyyyyyyyyyyyyyyyyyyyyyyyyyyyy;;;;              ;;&&&&yyyyyyyyyyyyyyyyyyyyyyyy"
};
