/* XPM */
static const char *sprite_7[] = {
/* columns rows colors chars-per-pixel */
"129 129 49 1 ",
"  c black",
". c #0F0000",
"X c #1B0700",
"o c gray12",
"O c #230B00",
"+ c #2B1700",
"@ c #2B230F",
"# c #372300",
"$ c #3B2F17",
"% c #232323",
"& c #2F2F2F",
"* c gray23",
"= c #6F0000",
"- c #43331B",
"; c #4B3B1B",
": c #573F1F",
"> c #5F4323",
", c #6F4B27",
"< c #774F2B",
"1 c #004343",
"2 c #005B5B",
"3 c #007373",
"4 c #4B4B4B",
"5 c gray34",
"6 c #676767",
"7 c none",
"8 c gray45",
"9 c gray50",
"0 c #83532F",
"q c #8B5B33",
"w c #935F37",
"e c #9F633B",
"r c #A3673F",
"t c #AB6B43",
"y c #B77347",
"u c #008787",
"i c #009F9F",
"p c none",
"a c #00CFCF",
"s c gray56",
"d c #9B9B9B",
"f c gray67",
"g c #B7B7B7",
"h c #C3C3C3",
"j c LightGray",
"k c #DFDFDF",
"l c #DBFFFF",
"z c #EFEFEF",
"x c white",
/* pixels */
"ppppppppppppppppppppppppppppppppppppppppppppppppppppppppppppppppppppppppppppppppppppppppppppppppppppppppppppppppppppppppppppppppp",
"p77777777777777777777777777777777777777777777777777777777777777777777777777777777777777777777777777777777777777777777777777777777",
"p77777777777777777777777777777777777777777777777777777777777777777777777777777777777777777777777777777777777777777777777777777777",
"p7777777777777777777777777777777777777777777777777&&&&&&&&&&&&&&&&&&&&&&&%7777777777777777777777777777777777777777777777777777777",
"p777777777777777777777777777777777777777777777777 &***********************%777777777777777777777777777777777777777777777777777777",
"p77777777777777777777777777777777777777777777777  &**********************&&&77777777777777777777777777777777777777777777777777777",
"p77777777777777777777777777777777777777777777777  o&&*******************&&&&77777777777777777777777777777777777777777777777777777",
"p77777777777777777777777777777777777777777777777   oo&&&*************&&&&%&&77777777777777777777777777777777777777777777777777777",
"p77777777777777777777777777777777777777777777777      oo&&********&&&&%%%%&&77777777777777777777777777777777777777777777777777777",
"p77777777777777777777777777777777777777777777777 *oo    oo&&&&&&&&%%%%%%%%*&77777777777777777777777777777777777777777777777777777",
"p77777777777777777777777777777777777777777777777 554*oo    o%%%%%%%%%%%*455&77777777777777777777777777777777777777777777777777777",
"p77777777777777777777777777777777777777777777777 5888844*ooo%%%%%%%*4488885&77777777777777777777777777777777777777777777777777777",
"p77777777777777777777777777777777777777777777777 69fjjjf955*%%%%*559fjjjf96&77777777777777777777777777777777777777777777777777777",
"p77777777777777777777777777777777777777777777777 8shxxxxxkgs9889sgkxxxxxhs8&77777777777777777777777777777777777777777777777777777",
"p77777777777777777777777777777777777777777777777 8shxzzzxxxxxxxxxxxzzzzxhs8&77777777777777777777777777777777777777777777777777777",
"p77777777777777777777777777777777777777777777777 69gzkkkzzzxxxxxxzzkkkkzg96&77777777777777777777777777777777777777777777777777777",
"p77777777777777777777777777777777777777777777777 58fkzzzkkkkkkkkkkkkzzzkf85&77777777777777777777777777777777777777777777777777777",
"p77777777777777777777777777777777777777777777778659fhkxxzzkjhhhhjkzzxxkhf95687777777777777777777777777777777777777777777777777777",
"p7777777777777777777777777777777777777777777777f65sfhhkxxxxzjggjzxxxxkhhfs56f7777777777777777777777777777777777777777777777777777",
"p7777777777777777777777777777777777777777777777f%5sf6*&9fjxxzddzxxjf9&*6fs5%d7777777777777777777777777777777777777777777777777777",
"p7777777777777777777777777777777777777777777777d%5s6*  &49fjg88gjf94&  *6s5%d7777777777777777777777777777777777777777777777777777",
"p77777777777777777777777777777777777777777777779%8s64132111*5599511123146hd%97777777777777777777777777777777777777777777777777777",
"p77777777777777777777777777777777777777777777779%8sjd3ialu  5fjf4 ulai3dhjd%97777777777777777777777777777777777777777777777777777",
"p7777777777777777777777777777777777777777777777958fjxhffffhkghxxkhffffhxxjd597777777777777777777777777777777777777777777777777777",
"p7777777777777777777777777777777777777777777777788fjxxkkkkkzgjxxzkkkkkxxxjd977777777777777777777777777777777777777777777777777777",
"p7777777777777777777777777777777777777777777777758dgxxxxxxjzgkxxxjxxxxxxkh9577777777777777777777777777777777777777777777777777777",
"p77777777777777777777777777777777777777777777777489dkxxxxjhkgzxxkhjxxxxxhs8477777777777777777777777777777777777777777777777777777",
"p777777777777777777777777777777777777777777777777568hxxxh9sdgjxzgs9hxxxhs65--;::7777777777777777777777777777777777777777777777777",
"p7777777777777777777777777777777777777777777777@@4658hzzf5889999885hzzhs684--;:>>::7777777777777777777777777777777777777777777777",
"p777777777777777777777777777777777777@@@@@@@@@@@@@665shjs8gfs668fg8fzks889@-:,,,,>>>::::77777777777777777777777777777777777777777",
"p77777777777777777777777777777777@@----------;:;-@686sgjssfkhddhkfffzjs899@-,0000,,,>>>>:::77777777777777777777777777777777777777",
"p777777777777777777777777777777@@$$@-;::::>>::;;$@698sgj9699dddd9969zjs8s8@-0qqqq00000,,,>>::777777777777777777777777777777777777",
"p7777777777777777777777777777@@-$;$@-;$;;::::;$;$@699sgj9&========&9zjs896@-<00qqqqqq0000,>>>>:7777777777777777777777777777777777",
"p77777777777777777777777777@@-$$;;$@--@$-;::;$$;$@489sgjsdsddddddsdfzj9864@:,,,0q00000000>:><<,::77777777777777777777777777777777",
"p777777777777777777777777@@-$$@$$;$@--@@$-:;$@$;$$@49sgjs9sfjkkjfs9szj964@@>,>,<q0<,,<<0,:;,0<<<,::777777777777777777777777777777",
"p7777777777777777777777@@$$;$@@@$;$@$-@@$-:;@@$;$$@@4sgjs9998888999dzj64@@-,>:>,0<<,,,,<>$;,<0qqq0<:77777777777777777777777777777",
"p777777777777777777777@@$;;$@@@@$;$@@-$@$->;@@@$;$@@@4dhgddfghhggffhjd4@@-,>::>,0<,:>>,<>$;><0qqqqq0:7777777777777777777777777777",
"p77777777777777777777@@$;;:;;$$@;;$@@--$$->;$@@$;$$@@@4djjjjkxxzjjjjd4@@-,>:::>,<<>:::><;$;>0qq0000w0:777777777777777777777777777",
"p7777777777777777777@$;:;;;;:;;$;;$@@-;$-;>;;$$@$;$@@@@4dhzzzzzzzzhd4@@-,>;;:::,<>>:::>,;-;>00,,,,<0w0:77777777777777777777777777",
"p777777777777777777@$;:;----;:;;>;$@@$-;;>>:;;;--;;$@@@@48dhjzzjhd64@@->:;;;:;:><>:;;;;>;$;><,>>>>,<0w,:7777777777777777777777777",
"p7777777777777777@@$$-;::-$$-::>>:;@@@->>>>:::::;;;;$@@@@@@@@@@@@@@@;;>:;$-;;;;><::;;;;>;$;:,>>;;;>,0qw0:777777777777777777777777",
"p777777777777777@$$-$$$$;:-$$;;:>;$@@@-;>>:;;:::::;---%23u2%%%%%%%%23u2;;;;;;;;:,:;hd;;;;@$;,>:;;;;>,0ww<:77777777777777777777777",
"p77777777777777@$$;$@@@@$;;$$$$$;$@++@-;>:;;;;;::;---%23uiu3%%%%%%133uu3%65;;;;:>:hdf9;;$@$-,:;;;;:::0wew<:7777777777777777777777",
"p7777777777777@$;;;:;$$@@$555@@@$@+XX+@-;:;;$$;::---%221  1u2%%%%121  1u2%95;;;;>khsdf9;$@@$>:;;--;>,qerrw,:777777777777777777777",
"p777777777777@$$$$$$;:;$@$5855++@+XXXX+----;$@;:;--%%22    iu%%%%22    uu%%85;;;>kkgsdf9$@@$>:;--$:<qqqwew<,:77777777777777777777",
"p77777777777@$@@@@@$$;:;$568855XX++++X+@$$$;$@$;$$@%%12    i3%%%%11    33%%%95;;:;kkgsdf9@@@;:--$:,0q0<0000<,:7777777777777777777",
"p77777777777@@@@@@@@@$;:;5688855@@+  X++$@$;$@@;$@%%%111  132%%%%111  132%%%%5;;:;;kkgsdf9@@-;-$-><0<,>>,,<0<,:777777777777777777",
"p7777777777@@$-;;-$@@@$:588888855      +@@@$$@@$@%%%%%111222%%%%%%111221%%%%%66;;;;;kkgsdf9@$--$->0<>;$-;>,<0,,>77777777777777777",
"p7777777777$$$$-;:;-@@@:5888889d5++++OO +@@$$@@$%%%%%%%1121%%%%%%%%1122%%%%%%%6;;;;;;kkhddf9@$-@-::>-@$-;:>,,,,,>7777777777777777",
"p777777777$$@@@@-;:;$@@56888889df@@@@@O O@@$$@@$%%%23u2%%%%%%1221%%%%%%23u2%%%9;;;;--$kkhddf9@$@$;;$@@-;:<<<<<<,>7777777777777777",
"p777777777$@@@@@@$::;$@5688889df$$$$$@+O @@$$@@@%%133uu3%%%%122221%%%%133uu3%%9;;;;--;$kkhdff9@@@$$@@->>00qq0<<,,>777777777777777",
"p77777777@$@@@$;;;:::-56688889df-;;-$$$+O+@@$@@%%121  1u2%%12211221%%121  1u2%9-----;:$@kkhffg9@@@@@$$$-;><<q0<,,>777777777777777",
"p77777777@@@$$;;;:>>:;5668889df;>,,>:;$$+O@@$@@%%22    uu%%22111122%%22    uu%9-----::$@+kkhfgg9@@@@$$$;<,>><q0,,>777777777777777",
"p77777777@@$$;;:>>>>:56668889df;;::>>>;$@@+@$@@%%11    33%%22111122%%11    33%6$$@@$::$@+@kkhfggg@@$:qttttq,><0,,>777777777777777",
"p77777777@$$;;;;;;>>>5666889df$$$$-;;:>;$@@@$$@%%111  132%%12211221%%111  132%6$$@@$::$@++@kkhgggg@:<0wwwwwqq<0,,>777777777777777",
"p77777777@$;;;$$$;;:56688889df$$$-;---;:$@@@$$@%%%111221%%%%122221%%%%111221%%6$@+@-::$@++@-kgggggkddd:::>,wrq0<<>777777777777777",
"p77777777$;;$$$$$$$;5668889df:::;-$$+@-;;$@@@$@%%%%1122%%%%%%1221%%%%%%1122%%%6$++@-:;$@++@--kkkkkk9gggd:;:>wq0<<>>>7777777777777",
"p77777777$;@$*4555566668889df;;;:;-$@+@-;;$@@@$@%%%%%%%23u2%%%%%%23u2%%%%%%%%%4+++@$;-@+++@-----wwwy9dgggd--:q,,,>$>>777777777777",
"p77777777$@$**455556666889df$$$$-;;-@++@-;;$@@$@%%%%%%23uiu3%%%%23uiu3%%%%%%%%4+O+@@$@++++@$----wwwyy9dgfdd-;>,,,>@-0>77777777777",
"p7777777@$*****4555dd55889df--$#$$;$$+++@-;;$@@$@%%%%221  1u2%%221  1u2%%%%%%$++O++@@++++@$@$----00059dgfddd-:>,,>@-w0>7777777777",
"p7777777@@******45>dd5588df>;;-##$-$$++.+@-;$@@@$%%%%22    iu%%22    iu%%%%%%++OOO++++++@$@@@-----0559dffdddd;:,,>@-qw0>777777777",
"p7777777@******46>>>>9989df:>>;-##$$$+..O+@-$$@@@@@%%11    i3%%12    i3%%%%%++OOOOO++++@$@@7777-55589ffffdddf::,>;@;0qq>777777777",
"p7777777@******465>>59989f$$;:>;-#@$@+...O++@$$$$@@%%111  132%%111  132%%%%+OOOOOOOO++@@@@77777-6869ds8shhddfd:>;@$;<0q>777777777",
"p7777777*******456999ss@9f+@$-;;;#$$+X.O++OO++@@@@@@@%111222%%%%111222%%%%OOOOOOOOOO++++@7777777688ss89ssshdfd5-@$;><<q,>77777777",
"p7777777*******556999ss@@@@++@$;;$$+X.O+++++OOO+++@@@%%1121%%%%%%1121%%%%OOOOOOOOO++++++@7777777768889ds8shhfd5@$;>,<0q0>77777777",
"p7777777*******5556ssss$$$$@@+@$$@XX.O++@@@++++++++d@@@%%%%%%%%%%%%%%%%OOOOO+++++++++++++777777777758sss9fssfd5;;>,00qq0:77777777",
"p77777777*****46566ssss$;;$$$@+O@XXXO++@@@@@@@@@@@88dOO@@%%%%%%%%%%%OOOOOO++@@@@@@@@@dddddd7777777758889ss8sfd5;>,,,,0q0:77777777",
"p77777777****45555555--;;;;;>-@+OXXO++@@@@$$$$$@@8888dOOO      OOOOOOOO+@@@@@--------dddddddd9977777758ss89ff5::-----<00:77777777",
"p777777777***465666ss--;;;;::>-@+OXO+@@@$$$$$$$@888888d+OOOO   OOO++@@@@@@@$$$;:::;--dddddddd9999997755s89ds8:-@@@@@@-,<:77777777",
"p777777777**4466555---;;>,,,<,;$$OX+@@@$$$$----88888888d+@OOO  OO+@@@@@@@$$;;:>>>>:;;kkkkkkhgff9999999958ss::8sdffffs@@::77777777",
"p7777777777446666ss--;;>,,<0qq<;$+O+@@$$$$$---8888888888d@+++OOO++@@@@@@$;;;;;;;;;;;;;;;-77kkkkkhgff9995885:8sdfhhhhhh@@:77777777",
"p77777777777777@@$$--;>:::>,,0q<;@O+@@$$$$$$-888888888889x@@@++++@@@@@@$;;;;;;;;;;;;::;;;-777777kkkkkkk990088ssdjkkhhhhs:77777777",
"p77777777777777@@$$--;;;:>>>>,0<;@O@@$$$$$$$888888888889fxx@@@+++@@@@$$$:>>;;;;;;;;;;;;;;:77777777777kk990088sssssjkkhhhs77777777",
"p77777777777777@@$$$$-;>>>,<,,,<:$@@@$$$$$$8888888888899kk$@@@+++@@@$-$;:>>>;;;;;;;;;;;;;;:777777777777770088668sssfjkjhh77777777",
"p77777777777777@@$$$$;>>;;;::::,<;$$$$$$$$8888888888899kk$@@@@++@@@@-$$;::>,>;;;:>>>>:;;;;;777777777777770088668888ssffjj77777777",
"p777777777777777@@@$;>;$@$;,<,:>,;$@@--$$8888888888899kk$@$@@@+@@@@$$$-;>:;>,>>>>,,,,>:-;;;;777777777777755668886869988dj77777777",
"p777777777777777@++@;-@@$;;;;::::;$@@--$888888888889skk$$$$$@@ $$@@$;---;>>::,,,,<<<<<,>-$;;777777777777775448666686888dd77777777",
"p7777777777777777@+@$@@$$$$@@**556996@@888888888889skk---$$$@@ $@$@$;::;;>,>>,,,<<000<<,;--;777777777777777775686868886sd77777777",
"p77777777777777777@+++@$$@@@;4455ddd9@@88888888889skk----$$$@ @@@-$$$;;>>,,,,,,<<000000,>;:;-77777777777777777566688868s777777777",
"p777777777777777777@++@@@@@4444556d4>885888888888shk;;;--$$$@ @$@-;$$$$;;>>,,0<<0000000<>>>;-777777777777777777775646887777777777",
"p777777777777777777@+++++@44444556d>>88558888888shh;;;;--$$$@ @$@-;:;---;;:>>,0000000000,>>--777777777777777777777568877777777777",
"p7777777777777777777@+++@$444444556d6>>dd-88888sgg>:;;;;-$$$@ @$@$;>;;;:;;;::,,0000000000,>;>;77777777777777777777777777777777777",
"p77777777777777777777@++@444444445566>4ddd-888sgg>>:;;;;-$$$@ @$$@$;>>,>:>>::>,<000000000,,>;;77777777777777777777777777777777777",
"p777777777777777777777@+@444444444559ddddd,>8sfg,,>:;;;;-$$-@ @$-@@$-;>,>:>,>:,<000000000,,::>77777777777777777777777777777777777",
"p7777777777777777777777@@4444444444559ddd9,,,ff,,,,>;;;;-$$-@ @@$-@@@$-:,::>,,>,<000000000,,>;77777777777777777777777777777777777",
"p777777777777777777777777444444445566999,,,,,,,,,,,>;;;;-$$-@  @@$-$$--:,>;;>,,,<000000000<,:;;7777777777777777777777777777777777",
"p777777777777777777777777444444445569999,,,,,,,,,,,>;;;--$$;@   @@$$$;:,0<:;;>,,<0000000000,>;;7777777777777777777777777777777777",
"p7777777777777777777777777444445555999->>,,,,,,,,,>:;;---$-;@    @@$$$;>,0,:>><,00000000000,>;;>777777777777777777777777777777777",
"p777777777777777777777777744444555599--;>>,,,,,,,,>;;;---$-;@    @@$$$$:>,0<<<<00000qqqqq00,,>;>:77777777777777777777777777777777",
"p77777777777777777777777777444455889---;>>,,,,,,,>>;;;----;:$    @@@$$;:,00<,,,<00qqqqqqqqq00<,,>77777777777777777777777777777777",
"p7777777777777777777777777774448888--;;>>,,<0000<,,:;;;--;:;$     @@@$:,,<<>:><<qwwwwwwwwwwwwq<,>77777777777777777777777777777777",
"p7777777777777777777777777777$::$$;;>>>>,,<0qqqq0<,,>::;;:;-$@     @$>,:>>>;;;;,0qqqqqqqqqqqqq<,>77777777777777777777777777777777",
"p7777777777777777777777777777$::;>>,,,<<<00qwwwwwq0<<,>:;;;$$@     @,>>:;;;;;;;:,,,<<<<<<<<<0q,::77777777777777777777777777777777",
"p7777777777777777777777777777-:>>,,,,,,,,<<0qwwwq0,,,,,,,>;$$@    @$>::;$$$-;;;;;;>,,,>>>,,,q0>::77777777777777777777777777777777",
"p7777777777777777777777777777-:>,,,,>>>>,,,<00000,,,,,,,,,>;$@    @$::;;$$$---;;;;;;>>>>:;>>q<;::77777777777777777777777777777777",
"p7777777777777777777777777777-:>,,>:::::>>,,,,,,,,>>>>>>,,,,:$@   @$:;;;;$$$$$$$---;;;;;;;>q<;$$$77777777777777777777777777777777",
"p7777777777777777777777777777-;>,:::::::::>,,,,,>>::::>>>>,,,$@   @$---$;-$$$$$$$$$$$$$$;>0<;$$$$77777777777777777777777777777777",
"p7777777777777777777777777777-;>>::::::::::>>>>>::::::>>>>:>,;@    @$-$$$;;-$$$$$$$$$$$;><<;$$$;777777777777777777777777777777777",
"p7777777777777777777777777777$;:;:;;;;:::::::::::::;;;>>>:;;;>@     @$$$$$$;;--$$$$$$;:::;$$@$;7777777777777777777777777777777777",
"p7777777777777777777777777777$;:-;:;;;;;;:::::::;;;;;>>>>;-@$:@      @$@@@$$$$$$$-;:::;$$@@@$;77777777777777777777777777777777777",
"p7777777777777777777777777777$-;-$:::;;;;;;;;;;;;;;>>>>;;$@@$$@       @$$@@@$$$$$$$$$$$@@@@$;777777777777777777777777777777777777",
"p77777777777777777777777777777$;-@$;:::::::::::::>>>>;;$$@@@$@@         @$$@@@@@@@@@@@@@@@$;7777777777777777777777777777777777777",
"p77777777777777777777777777777$--@@@--;;:::::::::;;;;$$$@@@$$@             @@@@@@@@@@@@@@$;77777777777777777777777777777777777777",
"p777777777777777777777777777777@;$@@@@@$$$$$$$$$$$$$$@@@@@@$@@                         777777777777777777777777777777777777777777",
"p777777777777777777777777777777@$;$@@@@@@@@@@@@@@@@@@@@@@@@@@                         7777777777777777777777777777777777777777777",
"p7777777777777777777777777777777@$;$@@                @@@@@@@                        77777777777777777777777777777777777777777777",
"p77777777777777777777777777777777@$@   %%%%%%%%%%%%%%%   @@@7                      7777777777777777777777777777777777777777777777",
"p777777777777777777777777777777777@  %%%%%%&&&&%&&&&%%%%%  @77         %%  %%%%%%%%7777777777777777777777777777777777777777777777",
"p7777777777777777777777777777777777 %*&&&&&&***&&**&&&&%%% 777         %%  %%%%%%%% 777777777777777777777777777777777777777777777",
"p7777777777777777777777777777777777 %*&&&&***  **  *&&&%%% 777                       77777777777777777777777777777777777777777777",
"p7777777777777777777777777777777777 %*****&&*  %%  &**&&%% 777               %%%%%%  77777777777777777777777777777777777777777777",
"p7777777777777777777777777777777777  %*&%%%%%  %%  %%%%%&  777             %&&&&&&&% 77777777777777777777777777777777777777777777",
"p77777777777777777777777777777777777  %%                % 77777         %%%%&&&&&&&% 77777777777777777777777777777777777777777777",
"p777777777777777777777777777777777777   %%%&&  %&  %&&%  777777        %%%%%%%&&&&&% 77777777777777777777777777777777777777777777",
"p777777777777777777777777777777777777  %%%%%%  %%  %%%%% 777777        %%%%%%%&&&&&% 77777777777777777777777777777777777777777777",
"p777777777777777777777777777777777777                    777777         %%%%%%%&&&%  77777777777777777777777777777777777777777777",
"p777777777777777777777777777777777777   %%%%%%%%%%%%     7777777          %%%%%%%%%  77777777777777777777777777777777777777777777",
"p7777777777777777777777777777777777   %%%%%%%&&&&&&&&%%%  777777                     77777777777777777777777777777777777777777777",
"p777777777777777777777777777777777  %%%%%%%%&&&&***&&&%%% 7777777                   777777777777777777777777777777777777777777777",
"p777777777777777777777777777777777  %%%%%%%%&&&&***&&&%%%  77777777                7777777777777777777777777777777777777777777777",
"p777777777777777777777777777777777 %%%%%%%%%&&&&&&&&&&%%%% 7777777777            777777777777777777777777777777777777777777777777",
"p777777777777777777777777777777777 %%%%%%%%%%&&&&&&&&%%%%% 7777777777777777777777777777777777777777777777777777777777777777777777",
"p777777777777777777777777777777777 %%%%%%%%%%%%&&&&%%%%%%% 7777777777777777777777777777777777777777777777777777777777777777777777",
"p777777777777777777777777777777777 %%%%%%%%%%%%%%%%%%%%%%% 7777777777777777777777777777777777777777777777777777777777777777777777",
"p777777777777777777777777777777777 %%%%              %%%%% 7777777777777777777777777777777777777777777777777777777777777777777777",
"p777777777777777777777777777777777                         7777777777777777777777777777777777777777777777777777777777777777777777",
"p7777777777777777777777777777777777                       77777777777777777777777777777777777777777777777777777777777777777777777",
"p77777777777777777777777777777777777777777777777777777777777777777777777777777777777777777777777777777777777777777777777777777777",
"p77777777777777777777777777777777777777777777777777777777777777777777777777777777777777777777777777777777777777777777777777777777"
};
