/* XPM */
static const char *sprite_0[] = {
/* columns rows colors chars-per-pixel */
"129 129 53 1 ",
"  c black",
". c #0F0000",
"X c #1B0700",
"o c gray12",
"O c #230B00",
"+ c #2B1700",
"@ c #2B230F",
"# c #372300",
"$ c #3B2F17",
"% c #232323",
"& c #2F2F2F",
"* c gray23",
"= c #6F0000",
"- c #43331B",
"; c #4B3B1B",
": c #573F1F",
"> c #5F4323",
", c #6F4B27",
"< c #774F2B",
"1 c #004343",
"2 c #005B5B",
"3 c #007373",
"4 c #4B4B4B",
"5 c gray34",
"6 c #676767",
"7 c none",
"8 c gray45",
"9 c gray50",
"0 c #D70000",
"q c #EF0000",
"w c #83532F",
"e c #8B5B33",
"r c #935F37",
"t c #9F633B",
"y c #A3673F",
"u c #AB6B43",
"i c #B77347",
"p c #BF7B4B",
"a c #008787",
"s c #009F9F",
"d c #00B7B7",
"f c none",
"g c #5FFFFF",
"h c gray56",
"j c #9B9B9B",
"k c gray67",
"l c #B7B7B7",
"z c #C3C3C3",
"x c LightGray",
"c c #DFDFDF",
"v c #DBFFFF",
"b c #EFEFEF",
"n c white",
/* pixels */
"fffffffffffffffffffffffffffffffffffffffffffffffffffffffffffffffffffffffffffffffffffffffffffffffffffffffffffffffffffffffffffffffff",
"f777777777777777777znkk7777777777777777777777777777777777777777777777777777777777777777777777777777777777777777777777777777777777",
"f77777777777777777znnkk7777777777777777777777777777777777777777777777777777777777777777777777777777777777777777777777777777777777",
"f77777777777777777znnk0777777777777777777777777777777777777777777777777777777777777jjjjjjjj77777777777777777777777777777777777777",
"f7777777777777777zznnk077777777777777777777777777777777777777777777777777777777777jjjjjjyiij7777777777777777777777777777777777777",
"f7777777777777777znnz007777777777777777777777777777777777777777777777777777777777jjj999iyyyi,777777777777777777777777777777777777",
"f7777777777777777znnz007777777777777777777777777777777777777777777777777777777777jjj999yrrry,777777777777777777777777777777777777",
"f777777777777777znnz0007777777777777777777777777777777&&&&&&&&&&&&&&&&&&&&&&&&&&79j9966rrrr,,777777777777777777777777777777777777",
"f777777777777777znnz000777777777777777777777777777777&*44444444444444444444444*& 999666rrrr,,777777777777777777777777777777777777",
"f77777777777777nnzz0000777777777777777777777777777777&&&*444444444444444444*&&   69664&,,,,,6777777777777777777777777777777777777",
"f77777777777777nnzz0000777777777777777777777777777777&&%%%%&&&&********&&oo      6664*&&,,,66777777777777777777777777777777777777",
"f7777777777777777cc0000777777777777777777777777777777&*%%%%%%%%&&&&&&&&oo    oo* 444*&58655ww>-7777777777777777777777777777777777",
"f7777777777777777cc0000777777777777777777777777777777&*59zzzk955*%%%%*559kzzz95* 4**&5865w,<<<w-777777777777777777777777777777777",
"f77777777777zxcccxllk97777777777777777777777777777777&59zxcbxxzlh9889hlzzzxzxz95 4445565w,>>><<w-77777777777777777777777777777777",
"f777777777jzzzzkkkkkk97777777777777777777777777777777&59zxcbbbxzcbnnbczxbbxzxz95 668855w,>;;;>><<-7777777777777777777777777777777",
"f77777777jjzcccczll9977777777777777777777777777777777&59jlccccbbbccccbbbcccclj95 76685w,>;;:::,,,<-777777777777777777777777777777",
"f77777777jjjjjjjjll9977777777777777777777777777777777&58jcbbbbcccbbbbcccbbnncj85 77665w>;;:::,,,,,,-77777777777777777777777777777",
"f777777jjzzzccclljj9977777777777777777777777777777777&59jzxcnnnbbcccccbnnnbzzj95 7777,,>;:>>,,,,,,,,-7777777777777777777777777777",
"f777777jccccccccj9j9977777777777777777777777777777777&5hkxxxkknnbxkkxbnnkkckxkh5 7777,>;:>>>,>>>,,,,<-777777777777777777777777777",
"f77777jzzzzzzzzzj9j997777777777777777777777777777777866hxxh844jnnxjjxnnj4&*5kxh668777-:;:>>,>::::>,w<>-77777777777777777777777777",
"f77777jjccccczl9j9j997777777777777777777777777777777k69hch*   &*599895*&&  **xh96k777--;:>>>::;:::>,w<>-7777777777777777777777777",
"f7777jjzzzzzzzj9j99667777777777777777777777777777777j%9zc8 2dd&   *5*   dd2 *kh9%k777@-::>>::;;--;:,w<<-7777777777777777777777777",
"f7777jjzzzzzljj9j99667777777777777777777777777777777j%8xzk sgvs* %hnh% svgs kxh8%j777@$-:>>:;--;:,,,,,<>-777777777777777777777777",
"f7777kkjjjjjjjj9j96887777777777777777777777777777777j%8xbnczk8kzk8ll88zk8kzcnxk8%j7777@-->>;-;>>,,,,,,,,--77777777777777777777777",
"f7777kkjj6666jj99668677777777777777777777777777777779%8xbnnccnxzklzbzkzxnncnnxk8%97777@$--;-:>,,,,,,,,,>;-77777777777777777777777",
"f7777jj88rrrrjj96888677777777777777777777777777777779k9lxncxcchhkxxbxkkhccxxnlj8k977777@$$-;>,>>,www<,,>:;-7777777777777777777777",
"f77775j88rrrrj96688647777777777777777777777777777777998hzzzczh8458xbk8544zczlj988977777@@$-:<:>,w<<,,>>>:;;-777777777777777777777",
"f777775jjiirr666686*@:7777777777777777777777777777777556hhjcj84585444*554jcjh86557777777@@;,,:>,,,>>:>>>>:;--77777777777777777777",
"f7777775jiirr688665@@::77777777777777777777777777777774659hxj569hh*&*h965jch856477777777@@><>:>,>::;:>>,,,:;-77777777777777777777",
"f777777755568888654@@-:7777777777777777777:::::::::::77656hxh56jll969lk65hch6567777777777@,<>>:>>:;;:>>,<<,:;77777777777777777777",
"f777777,:556888864*@--:777777777777777777:,w,,,,<,>::77886hxh6699jj9j9966hch6867777777777@<w>>:::;;;:>>,<<<,;77777777777777777777",
"f777777,:@5566665*@@---:77777777:>,,,,,,,,<wrw,>>,w>::-898hxh8556jlxlj658hch8h6@@77777777:<w>>::;;;;>,>:::::>$7777777777777777777",
"f777777w,@@55555@@@-->-:777777>,,etyuue,>>,<wrw,>>,w>:-6j8hxh96        69hch8j6-$@@777777><w,>:;;;;>,>;-----:$7777777777777777777",
"f777777w,:@@@@@@@@-->:-:777::,,<werrtyur<>>,<wrw,>>,<>-6k8hxh96        69hch9k6$$-$@@7777>,<,>:;;;;>,:-------@7777777777777777777",
"f777777w,,:@@@@@-->>:;-::77;;;>>>,<werrtr<>>,<we<,><,>-6k8hxh98        89hch9k6@#@@$$@@77;>,,>:;;;;>,;------$@7777777777777777777",
"f777777w,,,,,:::>>:;---;;:,;---;:::>,<wwre<>>>,we,,<w>-6j9hxj98*======*89jch9j6@@$+#@$$@@$$>,,::;;;>>------$@@7777777777777777777",
"f777777w<,,,,,,,:;------;$:<>;--;;;;:>,<wr<,>$>,weeew>-4h9hxkjj4======48jkchhj4@@$@+O+@$-$$:>,>:;;;;------$$@@7777777777777777777",
"f777777w<,>::::;---------;@:w>;--;;::;;>,wr<>;$:,weew>@*6h9xzkj84555548jkzchj6*@@$$+XX+@---$>,,::;;;----$$$@@@7777777777777777777",
"f777777w<,>:;------------:@$>w>;@--;:;;;>,,w<:;@:,<ww,$@*6hxxlklkjjjjkljlxcj6*@@$$$@+O@-:>>>;>,::;;;---$$$@@@@7777777777777777777",
"f777777<w,>:;;;----------:;@;w,:-@--;::;;>,,<>;-@$><<,$@@46xxzzklxccxlkkxclh4@@@$$$@++-:,,,>:;,>:;;--$$$$@@+@77777777777777777777",
"f777777<w<>:;;;----------:;@$,<>;-@$-;:;;;>>,,:-@@$;>>:$@@4jxxzzj8666hkxxzj4@@@$---$@@:,,,:::;>>:;;--$$$@@++@77777777777777777777",
"f777777<w<<>:;;---------:;;$@>,>;;@@------->>,>:$@@$;;;;$@@4jxxxzkjjkzxcxj4@@$$-;:;-$->,,:;::;>>;;;$$$$@+++@777777777777777777777",
"f777777<ww<<,>:;-------;;;-$@:>>;;$@@$------:>,>:$+@$;;;$@@@4jzbbbnnbbbzj4@@@$;;>:;;-:>,>;-::;;>;;-$@@+++++@777777777777777777777",
"f7777777,wwww,,::;--;;;;;--$$:>:;;-@+@$--$$--:>,:$@+@$$--$@@@@6jzxzzzzj84@@--;:>,;--:,:,>;-::;;>;;-$$@++++@7777777777777777777777",
"f7777777,<<ww,>>>>;;;;-----$$;:;-;-@++@$-$$$--;::-$++@$--$*599999999999984*--;>,,;-;,>:,>;-::;;>;-$$$@++++@7777777777777777777777",
"f7777777,,,,>>>;;----------$$-$-$-$@+O++$---@--;;;;@++@$*9922225%%%%%%%2222*4-:,,;-:,;:,>;-;:;;;;$$$$@+++@77777777777777777777777",
"f77777777,,,>>>>;----------$@-@$$@@+OOO++$--$@-;;;;@++*5653aa331%%%%%%3asa31%4-:>-$>:-:,:;-;:;;;-$$$@+++@@77777777777777777777777",
"f77777777,,,,>>>;;;-------$$@$@@@++OOOO+++$;;-@$-;;$@*58*2a1  121%%%%2a1  121%*-:$$>;-:,:;-;:;;-$$$$@+++@777777777777777777777777",
"f777777777,,,>>>>;;------$$@@@@+++OOOOOO+@+$;--@$;;$@58*%as    22%%%%as    21%%%-$@>;-:,:;@-;;--$$$@+++@+777777777777777777777777",
"f777777777,,,,>>>;;--------@@+++OOOOOOOO+--@$;;-@@+$*8*%%3s    11%%%%3s    21%%%@$@>--:>:;@$---$$$$@++@+@777777777777777777777777",
"f7777777777,,,,>>>;------$@@+++OOOOOOOOOO@--@;;--@++5*%%%23*  *11%%%%23*  *11%%%@@@;--:>:-@@--$$$$$@+@++@@77777777777777777777777",
"f77777777777,,,,,>;----$@@@+++++OOOO+@@+OO@--;;;;@@*5%%%% 2*44*1 %%%% 2*44*1 %%%%@@$--;>;-@+@$$$$$$$@++@@@77777777777777777777777",
"f777777777777,,,>>;;@@@@@@@@@@@@+OO+@$$@@++@-;;;;-@6*%%%%  &&&&  %%%%  &&&&  %%%%%@$$@-:;-@++@$$$$$@+O@$$@@7777777777777777777777",
"f7777777777777,>>>;$$$@@@@$$$--@@++@$$$$$@@+@;;;;;;6%%%2221%    %1221%     2222%%%@$$@$;;-@+++@@@$@OX@@$$$@7777777777777777777777",
"f77777777777777::;;$$$$$$7777--$$$$$;;;;$--@@;;;;;;6%%3aa331   %122221%   3aa331%%@@@+@$;-$@+++@$@OX@@$$$$@@777777777777777777777",
"f777777777777777777777777777-----;;;;;;;;;;$$$;;;;;5%2a1  121%%12211221%%2a1  121%%@@+@$-;-$@@@$@X @@@$$@$-@@77777777777777777777",
"f77777777777777777777777777-;---;:::;;;;;;;;$$$;;;@5%as    21%%22111122%%as    21%%@+++@$-;-$$$@X O@@$$$@@$-@@7777777777777777777",
"f7777777777777777777777777:;;-;>>>:;;;--@$;;;$$$$-@4%3s    11%%22111122%%3s    11%%@++++@$$$@#+X O@@$$$$$@@$-@@777777777777777777",
"f7777777777777777777777777:;>>>,>:;-----@$;;;;;;$-@4%23*  *11%%12211221%%23*  *11%%@+++++###+OX  O@$$$$$$@@@$$@777777777777777777",
"f777777777777777777777777::>>,<,::;;;@-@@@--;;;;;;@*% 2*44*1 %% 122221 %% 2*44*1 %%@++++++++OX OO@$$$$$$$@@@$$@777777777777777777",
"f777777777777777777777777:>>,<,>:;;;-@-@+@@----;;;@*%  &&&&  %%% 1221 %%%% &&&&  %%@+++++++OX O+@$-;-$$$@@@@@$$@77777777777777777",
"f77777777777777777777777::>,<,,::;;-@@$+++@@@$$--$@&%%      %2222    %%2222     %%@@+++++@OX  +@$-;;;-$$@@@@@$$@77777777777777777",
"f77777777777777777777777:>,w,,>::--@@@$+++++@@$--$@%%%%    %3asa32%%%%3asa32   %%%@@++++@+O   +@$;;;$$$$$$@++++@77777777777777777",
"f7777777777777777777777:>,w<,>:;-$@@@@$+++@@$$@@$--@%%%%%%%2a1  122%%2a1  122%%%%@@+++++@+    +@$$;$@@@@@@@@++++@7777777777777777",
"f7777777777777777777777:,w<,>:;--@@@@@$@++@$;-$@@$-@+%%%%%%as    22%%as    22%%%%@++++++@O    +@@$$@+++++@@@@@@+@7777777777777777",
"f777777777777777777777:><<,>:;-;$@@@@$$+O++@$;;-$$;;+%%%%%%3s    21%%3s    21%%@@@@@@+++@OX   O+@@+OO++@@$---$$@+@777777777777777",
"f777777777777777777777:>,,>:;--$;;-$$$+OOO++@--;;;;;#O%%%%%23*  *11%%23*  *11%%@@@@@@@++@+OX   O+O  O+@$;;-@@@@$+@777777777777777",
"f77777777777777777777::>>>:;$$$$$$$$++OO+O@++@@------+O%%%% 2*44*1 %% 2*44*1 @++++++@@@+@++OX  OO  O+@$;$@@++++@+@777777777777777",
"f77777777777777777777::>>::;$$$@@@@+O   O+O@@@@@@----#+O%%%  &&&&  %%  &&&&  O+++@@@@@@@@@++OX     +@$;$@++@@@+++@777777777777777",
"f7777777777777777777:>:::>>>>;;--$@O     O@$$----;;;;;#+O%%%      %%%%      O+++@@@$$$@@@@@++OX   O@$$$@@@@$$$@@@+@77777777777777",
"f7777777777777777777>>>>,,,,,>;--$$@O    O@$$----;;;;;;#+OO%%%   %%%%%%   OO++@@@@$$$$$$$@@@++O   +@$$@@@$$$$$$@@+@77777777777777",
"f7777777777777777777:,,<ww<,>:;$@@$$@  OO@@@$$$---------@#+OOO@%%%%%%%%OOO++@@@@@@@$$$$$$$$@@++  O@$$@@@$$$$$$$$@+@77777777777777",
"f777777777777777777:,<,wew<,>:;-$@@$@  O@@@$$$$----------$@#+++OOOO OOO++++@@@@@@@$$$$---$$$@@+  +@$@@@$$$$---$$$@@77777777777777",
"f777777777777777777:<wwrew<,>>;--$@@$ O@@@$$$$$--------$$$$@@@#+++O  O++++@@@@@$$$$--;;;;---$@+OO+@$@@$$$--;-$$$$@@77777777777777",
"f777777777777777777:<wreew<,,>;--$@@$ O@@$$$$$$--------$$$$$@@@@+OO  O+++@@@$$$$----;;;;;;;--$@++@$@@$$--;;;-$$$$@@77777777777777",
"f777777777777777777:<wrew<<,>;;;-$@@@@@$$$$$$----;;;;----$$@@@@+OXO  +++@@$$$$--;;;;--;;;;;;;-@@+@$@$$-;;;;;---$$$@77777777777777",
"f777777777777777777:<wew<,,::;;;-$$@@@@$$$$$$--;;;;;;;;-$@@@@+OXXXO  ++@@$$$;;;;$$$$--;;;;;;;;$@+@@@$--;;;;;---$$$@77777777777777",
"f777777777777777777:,<ww,,>:;;;;-$$@@@$$$$$$$$$$$$$$$$;;$@+++OX  XO  ++@$$;;;$@@$;;;;;;;;;;---$@@@@$--;;;;;;;$$$@@$77777777777777",
"f777777777777777777:>,<w,>>;;;;;;$$@@@$$$$$$$$$$$$$$$$$$$$$@+OX XXX  +@$-;;$@@$;;;;:::;;;;-$$$$$@@@--;;;;;>>;$$$$@$77777777777777",
"f77777777777777777777:,w,>>>>>>::$$@@------$$$$$$$$$$@@@@@$$@+O      +@-;;$@@-;;;;:::::;;;;-$$$$$@@-;;;>,,,>;$$$$@$77777777777777",
"f77777777777777777777:,w,>>,,,,::$$@@------$$$$$$$$$$@++++@$$@+O     +@$-#+#-;;;::::>>>>;;;;-$$$$@@;;>,,ww,$$$$$$@@77777777777777",
"f77777777777777777777:,,,,,>::---$$@@$$;;----;;;;;;$$$@+OO++@$@O     +@$#++--;;::::>>,,>>:;;;-$$$$@;>,ww,>;::::;$@@77777777777777",
"f77777777777777777777:,,,,>::----$$$$$$;;----;::::;;;$@+O.OO+@@+      ++++#--;;::::>,,,,>:::;;-$$$@>>w,>>8886665;@@77777777777777",
"f77777777777777777777:>,>::--69jlzzj9$$;;;;--$$$$$$;:;$@+O.OO+@+      +++#$-;::::::>,,,,,>:::;;-$$$,ww>hkkjj98665@@77777777777777",
"f77777777777777777777>>,>::69kkzzlkkj99;;;;--$@@@@$$$;:$@+X.O+@+      X++#$;;::::::>,,,,,>>:::;-$$$,w>kxxzlkj9865@@77777777777777",
"f7777777777777777777777::-69kzzzlkjjjjj9;;;----@+++@@$$;$+XXO+@O 77++ XO+$-::::;:::>>,,,,,>>:::;-$$,,xxxzzkkj9865@@77777777777777",
"f7777777777777777777777::69kzzzlkjkkkkkj9;;----$@+OO+@@$;$+X+@+ 777@+OOO+$-::::;::::>,,,,,>>>:::-$$,xxxzkkkjj8865@777777777777777",
"f7777777777777777777777--9kzzzzkjkkjjjjj9;;----$$@++OO+@$;@+@+O 7777@+OO+$-;::;;;:::>,,,,,,>>:::;;-xxxzkkkjhh8865@777777777777777",
"f7777777777777777777777--6kzzzzkkkjj999996;----$$@@++.OO@$$@@O 777777@+O+$$;::;;;;::>>,,,,,,>>::;;-xxzkkkjhhh8865@777777777777777",
"f7777777777777777777777--6hzzzzkkkj9644696;----$$$@@+O.XO@$@+ 7777777@@O+$$;::;;;;;:>>,,,<<,,>>>:;;xxpppphh9966657777777777777777",
"f7777777777777777777777--69zzzzkkjh44444466----$$$$$@+O..O@+O 77777777@@+@$;;::;;;;;:>,<www<,,,>:;;xxpppphh9966657777777777777777",
"f77777777777777777777777758kzzzkkj944uu,466;;$$$$$$$$+O..XOO 777777777@@+@@-;::>:::>>,,,<<,,,>::;;;66hhwwhh8866557777777777777777",
"f77777777777777777777777756hkzzzkj944uu,,66;;$$$$$$$$@+X.XOO7777777777@@@@@$;;:>>>>>,,,,>>>>>:::;;;66hhwwhh8865557777777777777777",
"f777777777777777777777777-588kkzzh944,kk,6-----$$$$--@+X.X7777777777777@@@@$-;>>>>,,,>>>>>>>:;;;;;;qqhhwwhh8655577777777777777777",
"f777777777777777777777777>-589kzzh964,kzk------$$-;-#++X. 7777777777777@@@-;;>>>>,,>>>>::::::;;;;;0qqhhwwh86655777777777777777777",
"f777777777777777777777777,,-589hkjh9666jj0$-----;;;-#+O   77777777777777@-;:>>>>>>>:::;;;;;;;-----00066;;665557777777777777777777",
"f777777777777777777777777,,,-589hkkkjj6jjj0----;;;;# OX  777777777777777@;:::>:;-;;--;;;;;;;;----000066;;665777777777777777777777",
"f777777777777777777777777,,,>--6669jj668jzj0$$$;;-@     7777777777777777;:::;;-------------------q00h--;;;;7777777777777777777777",
"f777777777777777777777777,,,>;;;;6666--8jzzj0$$--@@    77777777777777777;::;-$;;;::-------------0qq0h--;;;;7777777777777777777777",
"f777777777777777777777777,>>>------;;--8jzzzj0$$$$$+O  777777777777777777;;-:::::::::-----------00088@@$$$$7777777777777777777777",
"f777777777777777777777777,>;;------;;--8jzzzzj0$$##+O  7777777777777777777$:::::::::::---------000088@@$$$$7777777777777777777777",
"f777777777777777777777777>;--$$$$$$$$$$8jzzzzlj0$#++OX 7777777777777777777$:::;;;;;;;::::;;;;;;q00888$$@@$$7777777777777777777777",
"f777777777777777777777777;;--$$$$$$$$$$8jzzzzlkj0#++OX 7777777777777777777$::;;;;--;;;:::;;;;;;qq0h88$$@@$$7777777777777777777777",
"f7777777777777777777777777@--$$$$$$$$$$8jzzzzlkjj0++O 777777777777777777777$;;;------;;;;;-$$$$008h99@@@@777777777777777777777777",
"f7777777777777777777777777@@-$$$$$$$$@@8kzzzzlkjj90OX 777777777777777777777$;;---------;;------00hh99@@@@777777777777777777777777",
"f77777777777777777777777777 @@@$$$@@@@@9kzzzzlkjh99  7777777777777777777777$;;-----$$$$$$$$$$$$zzkk99@@@@777777777777777777777777",
"f777777777777777777777777777 @@@@@@@@@@@kzzzzlkjh99 77777777777777777777777$;;-------@@@@@@@@@@zzkk99@@@@777777777777777777777777",
"f7777777777777777777777777777  @@@@@@@@@@zzzzlkjh99777777777777777777777777$$;;--;;@@          zzkk99@@@@777777777777777777777777",
"f7777777777777777777777777777      @@@@   zzzlkjh967777777777777777777777777$;;;;@             zzkk95@@@@777777777777777777777777",
"f7777777777777777777777777777              zzlkjh967777777777777777777777777$$;;@     &&&  %%  cckk5   @@777777777777777777777777",
"f7777777777777777777777777777               zljjh9 77777777777777777777777777$$@   &&&&*4  %%  cck5    @@777777777777777777777777",
"f77777777777777777777777777%%%%%%            ljh99 777777777777777777777777777$@  %&*44554**44%cc5%    77777777777777777777777777",
"f7777777777777777777777777%%%%%%%%            jh96 7777777777777777777777777777  %%&&*444*&&4*%55%     77777777777777777777777777",
"f777777777777777777777777%%&&&&&&%%            h96 7777777777777777777777777777  %%&****&  %%          77777777777777777777777777",
"f777777777777777777777777%%&&&&&&&%%            9  7777777777777777777777777777 &%%&&***&  %%          77777777777777777777777777",
"f777777777777777777777777%%&&****&&%               7777777777777777777777777777 &%%&  %%%&*44&%%%      77777777777777777777777777",
"f777777777777777777777777%%&&****&&%              77777777777777777777777777777 &&*  %%%%&&**%%%%%     77777777777777777777777777",
"f777777777777777777777777%%&&&&&&&&%%             777777777777777777777777777777 &% %**4*  %%  %%%%  7777777777777777777777777777",
"f777777777777777777777777%%&&&&&&&&%%             777777777777777777777777777777 &&%*&*4&  %%  %%%%  7777777777777777777777777777",
"f777777777777777777777777%%%%%%%%%%%%            7777777777777777777777777777777 &&*%&&*&%%%%%%%     7777777777777777777777777777",
"f777777777777777777777777 %%%%%%%%%%%            77777777777777777777777777777777 &*%&&&&%%%%%%%%    7777777777777777777777777777",
"f7777777777777777777777777                      777777777777777777777777777777777%**%&********&&%%%%@  77777777777777777777777777",
"f77777777777777777777777777                    7777777777777777777777777777777777**%%&**********&&%%%@ 77777777777777777777777777",
"f77777777777777777777777777777777777777777777777777777777777777777777777777777777*&%%&&&&&&*******&%%@@  777777777777777777777777",
"f77777777777777777777777777777777777777777777777777777777777777777777777777777777%%%%&&&&&&&&&&****&%@@@ 777777777777777777777777",
"f77777777777777777777777777777777777777777777777777777777777777777777777777777777 %%%&&&&&&&&&&&***&%@@@ 777777777777777777777777",
"f77777777777777777777777777777777777777777777777777777777777777777777777777777777  %%&&&&&&&&&&&&&&&%@@@ 777777777777777777777777",
"f77777777777777777777777777777777777777777777777777777777777777777777777777777777%&&&&&&***************&@777777777777777777777777",
"f77777777777777777777777777777777777777777777777777777777777777777777777777777777%%%%              %%@@@@777777777777777777777777"
};
