/* XPM */
static const char *sprite_9[] = {
/* columns rows colors chars-per-pixel */
"129 129 59 1 ",
"  c black",
". c #0F0000",
"X c #1B0700",
"o c #230B00",
"O c #2B1700",
"+ c #2B230F",
"@ c #372300",
"# c #3F3300",
"$ c #3B2F17",
"% c #232323",
"& c #2F2F2F",
"* c gray23",
"= c #570000",
"- c #43331B",
"; c #4B3B1B",
": c #573F1F",
"> c #5F4323",
", c #6F4B27",
"< c #774F2B",
"1 c #430043",
"2 c #5B005B",
"3 c #6F0073",
"4 c #004343",
"5 c #005B5B",
"6 c #007373",
"7 c #4B4B4B",
"8 c gray34",
"9 c #676767",
"0 c none",
"q c gray45",
"w c gray50",
"e c #BF0000",
"r c #EF0000",
"t c #83532F",
"y c #8B5B33",
"u c #935F37",
"i c #9F633B",
"p c #A3673F",
"a c #AB6B43",
"s c #B77347",
"d c #BF7B4B",
"f c #CB7F4F",
"g c #870087",
"h c #9F009F",
"j c #B700B7",
"k c #CB00CF",
"l c #008787",
"z c #009F9F",
"x c #00B7B7",
"c c none",
"v c gray56",
"b c #9B9B9B",
"n c gray67",
"m c #B7B7B7",
"M c #C3C3C3",
"N c LightGray",
"B c #DFDFDF",
"V c #EFEFEF",
"C c white",
/* pixels */
"ccccccccccccccccccccccccccccccccccccccccccccccccccccccccccccccccccccccccccccccccccccccccccccccccccccccccccccccccccccccccccccccccc",
"c00000000000000000000000000000000000000000000000000000000000000000000000000000000000000000000000000000000000000000000000000000000",
"c00000000000000000000000000000000000000000000000000000000000000000000000000000000000000000000000000000000000000000000000000000000",
"c00000000000000000000000000000000000000000000000000000000000000000000000000000000000000000000000000000000000000000000000000000000",
"c00000000000000000000000000000000000000000000000000000000000000000000000000000000000000000000000000000000000000000000000000000000",
"c00000000000000000000000000000000000000000000000000000000000000000000000000000000000000000000000000000000000000000000000000000000",
"c00000000000000000000000000000000000000000000000000000000000000000000000000000000000000000000000000000000000000000000000000000000",
"c00000000000000000000000000000000000000000000000000000000000000000000000000000000000000000000000000000000000000000000000000000000",
"c00000000000000000000000000000000000000000000000000000000000000000000000000000000000000000000000000000000000000000000000000000000",
"c00000000000000000000000000000000000000000000000000000000000000000000000000000000000000000000000000000000000000000000000000000000",
"c00000000000000000000000000000000000000000000000000000000000000000000000000000000000000000000000000000000000000000000000000000000",
"c00000000000000000000000000000000000000000000000000000000000000000000000000000000000000000000000000000000000000000000000000000000",
"c00000000000000000000000000000000000000000000000000000000000000000000000000000000000000000000000000000000000000000000000000000000",
"c00000000000000000000000000000000000000000000000000000000000000000000000000000000000000000000000000000000000000000000000000000000",
"c00000000000000000000000000000000000000000000000000000000000000000000000000000000000000000000000000000000000000000000000000000000",
"c00000000000000000000000000000000000000000000000000000000000000000000000000000000000000000000000000000000000000000000000000000000",
"c00000000000000000000000000000000000000000000000000000000000000000000000000000000000000000000000000000000000000000000000000000000",
"c00000000000000000000000000000000000000000000000000000000000000000000000000000000000000000000000000000000000000000000000000000000",
"c00000000000000000000000000000000000000000000000000000000000000000000000000000000000000000000000000000000000000000000000000000000",
"c00000000000000000000000000000000000000000000000000000000000000000000000000000000000000000000000000000000000000000000000000000000",
"c00000000000000000000000000000000000000000000000000000000000000000000000000000000000000000000000000000000000000000000000000000000",
"c00000000000000000000000000000000000000BB0000000000000000000000000000000000000000000000000000000000000000mb0000000000000000000000",
"c0000000000000000000000000000000000000BBw0000000000000000000000000000000000000000000000000000000000000000mbq000000000000000000000",
"c000000000000000000000000000000000000BBww00000000hh00000000hk00000000000000000000000000000000000000000000Nbqq00000000000000000000",
"c00000000000000000000000000000000000BBwww00000000hk00000000hh00000000000000000000000000000000000000000000Nbqq00000000000000000000",
"c0000000000000000000000000000000000BBwwww0000000000000000000000000000000000000000kh0000000000000000000000Vbqq00000000000000000000",
"c000000000000000000000000000000000BBwwwww0000000000000000000000000000000000000000gh0000000000000000000000Vbqq00000000000000000000",
"c00000000000000000000000000bbbbbbbnnbwwww000000000000000000000000kk00000000000000000000000000000000000000vmmwbb000000000000000000",
"c00000000000000000000000000bmMNNNNMmmwwww000000000000000000000000kk000000000000000000000000000000000000vmbmvvvbv00000000000000000",
"c000000000000000000000000bbbbbbbbbbbmvvww00000000hhkk0000009qwbmCkk99Cmbwq90000000000000000000000000099qvvvmmbvww0000000000000000",
"c000000000000000000000000bbMMMMBBMmbmqvw000000000hhkk000009qvbnCCkk99CCnbvq900000000000000000000000009qvvmmbvvvvwv000000000000000",
"c00000000000000000000000<bbbbbbbbbmbb99000000hk000000000%kk99ee==CCMMee==99v9%00000000000000000000000wqwwvvvvbbvvwq00000000000000",
"c0000000000000000000000<ibbMMMMBBmnbq89000000hh000000000%kk99ee==CCMMee==99v9%%0000000000000000000000wqbqwvbvwwq99900000000000000",
"c000000000000000000000<iynnvvwwwwmbw98900jh00000000jj00%%rzxxzzCCbbbbVVxxzzCC%%00000000kg000000000000vqbqqqq999999900000000000000",
"c000000000000000000000yitnnvwwwwwbbw88900jh00000000jj00%%zxxxzzCCbbbbVVxxzzCC%%00000000gg000000000000vqbqw99987888800000000000000",
"c00000000000000000bmb<iy>bbvquuuuww980000000000ggjjkkkkqqx5444466wwww6x544455qq%0000000000000000000008qbqw98777778800000000000000",
"c00000000000000000bBb<it-bbvquuuuw9980000000000ggjjkkkkqqx5444456wwww5x544455qq%00000000000000000000008bq987*****7800000000000000",
"c0000000000000000wmBMty>-wwbvssuu9987000000jk00gg00ww%%xxzzzz654477774ll555lxll%%000000000000b0000000,;9987*<<<****+0000000000000",
"c0000000000000000wBBMty:-wwbvssuu887+000000jj00gg00ww%%xxzzll6544777745llxxxxll5%000000000000Vb000000,;7877*tuu&***$+000000000000",
"c0000000000000000mBBbtt:-hhwwhh3h7+++gghhkj0000jh00mmzz44446622227777445llll544550000hh00hh00VVq00000,;&*7**tuu&**-$$000000000000",
"c0000000000000000BBBbtt>-hh77h33h+++;gghhjj0000hh00mm>z444466222277774444555444550000hh00hj00mVVq0000,<$&***&&&*&&-+$+00000000000",
"c0000000000000000BBB9tt<;--$$3333++0000hh0000330000qq66ll664lxxll55555lxxl6l544&&ggggjj000000bmVVq000,t;-&&****&&+++$+00000000000",
"c0000000000000000BBB9tt<<;-$$hh33+-0000hh0000330000qq66ll66l554456555lx54445l54&&gjjgjj000000bbmVmq00,<u;-+&&&&+++++;+00000000000",
"c00000000000000bbMMMMMq><,>;$$+++-;33,,kktt--khkktt996644445     ll44lz     554&&3gg30000000wmmbbbbw7*,tu;-++++++++$;++0000000000",
"c0000000000000bBNMMbbwq:>,,,>>>;;::33,,kktt--khkktt9966444455   5l544lz5   5654&&3333000000wnbbmbbwq87*,yu;$++++++$;;-+0000000000",
"c000000000000bBNnnnwwww;::>,,,,,:;$$+gg33hh::hhtthh665555hh25666665555666666554&&%%hhjj00jjbbmmbbww87**>tyut;$$$$;;$-;+0000000000",
"c00000000000bBNMMMnnbbw;;;;;;;;--$+++2222hh::kktthh665555hh22556554554566665544&&%%00jj00hjnmbbmmbw98**:,tyuu<,>;$$+-;+0000000000",
"c0000000000bbMMMbbbwwwq:;;;33---1++kgh222--ggggjjhh>666hh2g22554444**44444444&&&%hh$$;;::hhbbmmmbww87**-:<yt<:-$$$++-;+0000000000",
"c0000000000bMMMMMMMnbwq:---33-+11++gg2322--gkggjjh,>666hh2g22554444**444444&&&&%%hh$$;;::jhbnmbbmbq998*$-><t<>;$$+++-;+0000000000",
"c00000000yybMMMnnwwwwqq:-++++++1111223h32kg22222222,>663h4g22**44*&&&&&&&&&&&&%%%&&22hj;;,,bbbmnv88887*+$-><,,>;$$$-;;+0000000000",
"c0000000yy,bbvvvvvvbwqq>:-+++++1111g22322gg2222h222,,h63g4g22&*44*&&&&&&&&&&&%%%%&&22gg;;,,bbvqqq88787*++$;>>>>>:;;;$$00000000000",
"c000000yy,$bbvquuuu9wqq,>;-++1123gg3322223322$$$$gg,,hh6g:gtt2212%%+$---%%%jh%%gh&&--;;--jj99jj77<<<*7*+++-;;::::;;$$+00000000000",
"c000000yy$+bbvquuuu9wqq,,>;-+1122kg33gg22kg22$$$$gg,,hhhg:gtt2212%%+$--:--%jh%%gg&&--;;--jg99jj77<<<<**+++$-;;;;;$$$++00000000000",
"c000000yy++wbv9ssuu9w9;>,,;-+22111133++++  ghjg33++$$gh22tg;;$112%%++--:::*&&%%%%&&hhgg33gj++ww**uu<<**O+++$$$$$$$+++000000000000",
"c000000yy++qbv9ssuu9w-;>>;;$++21111k3++++  ghjg3j++$hjh22tg;;1111%%+++--::::&%%%%&&hjggk3gg++ww***u<***OOO+++$$++++++000000000000",
"c000000yy$+9wbq988899$-;;;$1111++++++++jg  gh3322  gghg332g$$g311%%$+++--:,,:%%$$hhgg$$33gg33gg++****jhOXOO+++++++o+0000000000000",
"c000000yy,$79bbq999w7+$--$+1111++++++++gg  gghh22  gggg311g$$g311%%$$+++--:,<:%$$jh33$$333333gg++++++hh+OoOOO++++O.+0000000000000",
"c000000yyt;$79wwwww7++>++11++$$-,,tyiiyt,;;;;$$22ghjhgg31jj  3121  ++-+++--:,<<jj223333ggjj;;;;3j+++++++OXoOOOOOOo.+0000000000000",
"c000000tyt;+$*7997*++->++11+::<<yiissapiyy<<:$$22ghhh2231hj  3221  ++--+++--:<<jj22gghkjgjj;;;;33+++$$+++OXoOOOOo.O00000000000000",
"c000000,,yt$+++++++++:>11$$:,yuiissjgyyt<<,,,:$22ggg23312hh  gg11  22++  ++gg::::hh22hjh2gg--33+++++$:$$++OXooooo.+00000000000000",
"c000000,,yyt$+++++++->-11:,yuipassiggt<,,,,,,::22hhg233113h  gg11  22+++  +gg-:::11223322gg--3j++++++:,:$++OX.....+00000000000000",
"c000000,,,tyt++++++-:>+$,typppsdsay<<,,,,gjg,<,-$22g2jj223g11g311     +++    +-;13g1 222212j2$$g3$$33+-3g:$+OX...O000000000000000",
"c0000000,,,,ty<>++-:>-,tuaappsfdsiu<<,,,,gjg,,,-$22ggjj112g11g321      +++    +$1331 j2222222$$33$$jg+3g3,;;+OX..+000000000000000",
"c0000000,,,,,>>>>>>--,tyiassffdsaiu<<<<,,,,,,>::$2222hg++2g  g2g1    33++++gg2233112222222g++++++$$323g32;;23Oo.O0000000000000000",
"c00000000,,:::;;;--$$,yiuuaddaaaapput<<,,,,>>:::$2222hg++2g  g221    33++++gg22333322gg2211++++++$$22gj22-;33Oo.+0000000000000000",
"c000000000,,>::;;;;$,tyiuyuiiuyyiippuyt<<,>::::jj$$12hg132g+ 3211    o+++323333gg22221111jg1222--22...XOO+++Ooo.+0000000000000000",
"c0000000000,,>::;;;$tyiuyyytt<<<<tyuuuuy<>:::::jj-$12h3132g$+3231   o+++$333333gh22221111jg1222--j2.oo.XXoOOoo.O00000000000000000",
"c00000000000,,>::;;tyyiyt<<,>:::>,,,,,,,,>:;;------j2h3132g221231  o++$$$33h32222,,<<gg<<,,;-++22+........XXXX.+00000000000000000",
"c000000000000,,>:;;tyyy,>>;;;;;;;;;;::>:>::;>>>>>--j2h3132g221221  ++$$$$g3hh2g33,,<<gg<<,,,,:-22+...oO++X....O000000000000000000",
"c00000000000000,>>>tyy,>>;;;;;;;;;$$$$-;;;;>,t<>:>-12h3232g$+12 1 o++$$33gg33::<<jjtttyyyyyhg<,::-+..2322OOXo.+000000000000000000",
"c0000000000000000,,tyyyyt,,>>:;;;;$$$$$$-;;>,y<::>-12h3232g$+12 1 o+$$$33hh33::<<jjttyyuuuy<<<<,>;;$+3j32oOO.+0000000000000000000",
"c000000000000000000tyy,,,,,,,<,>>:;-$$$$$$-;:,:;-$$12h3232g$$12 1 ++$;><<3g;;<<hgttggyuuipphhytt<>>:-+..ooo.+00000000000000000000",
"c000000000000000000ty,::;:>,<<<<,>>::-$$$++$;:$$++$12h3232g$$12 1o++$;><<33;;<<hhtthguipppp3hpuuy<,>:-+....+000000000000000000000",
"c000000000000000000,;$;>,uuuyytttt,>:;;$++++$;$+OO+12g3232g+  2 1o+$$23<<gg<<ttggttttttyuuuuyuyyt,<<>:-+..+0000000000000000000000",
"c000000000000000000:$:yiiaaapiuyytt<,>:-$+OO+$+OXoO12g3233g   2  O+$$22<<33<<ttg2tttttttttttt<<,,,>,<>;++000000000000000000000000",
"c00000000000000000<>,yiiippiuyyyyyytt,,:$-+OO++oX o12g3233g   2  O+$$;><><,:;><tttt,,,,,,,,,,,,,>::::,;00000000000000000000000000",
"c00000000000000000t<ypiiuuuut,,,>>,<<,,,:-$+OOOoX o12g3233g   2  O+$$;><>,:;:<tt<,,>>>>>>>>>>>>>>>:;;:;00000000000000000000000000",
"c00000000000000000tyipuiu<,>>>>;;;;;>>>>>;$$+OoX  X1233233g   1  O+$$;:>::;><t<,>>>;;;;;;;;;;;;;;;;--;;$0000000000000000000000000",
"c0000000000000000<tyiuiiu<<>::;;;-----;;>:;$+oX   .1233233g   1  O+$$$;:;:;,<,,>>>;;;;;---------------;$0000000000000000000000000",
"c0000000000000000<tyuuuiiuu<<<<<,,>;;---;:;$+X     1233233g   1  O++$$@;$--<<,>>>>>;;;;;--------$$$++--;$000000000000000000000000",
"c0000000000000000<t<<<<::::::::>,,,,>;---;;$+o     1223233g     XOO+++O@$+-<,>>>>>>>>>>>>;;----$$$++++-;$000000000000000000000000",
"c0000000000000000<t<:--++++++++$$;::,>;-#;;$+o     .213232g000+.XXOO++XO@+-,>>>>>>,,,,,,,>>;--$$++++++-;$000000000000000000000000",
"c0000000000000000<:-++++        +$$;:>>--#;$+o    ..211232g0000+.XXoOO.XOO->:>>>>,,,,,,<<,>:;--$$$+++++$$000000000000000000000000",
"c0000000000000000:-++%%&&&&&%%%   +$;:::-##$Oo ..+++200230g00000+..XXo..X.+$-::,,<tyyyt<<,,>>;;----++++$-000000000000000000000000",
"c0000000000000000:+++&*79w7**&%%%   $;::;$+@Oo ++000200230g000000++......oO+-:>,,tyuuuyt<,,,,,:;;-+++++--000000000000000000000000",
"c0000000000000000 %%*77  %% &**&%%   +$;;$O+Oo000000200230g00000000++....ooo+$;>>,,<<,>;;:::;-$+++++++-$0000000000000000000000000",
"c0000000000000000 %&77*  %%  &&**%%%  +$-$OOo+000000200230g0000000000+++oooO++$;>,,<,>;;;:;-$++++++++-$$0000000000000000000000000",
"c0000000000000000 &**7788&&**&%%%&&%%  +O+Oo+0000000300230g00000000000000ooO@+>><<<,>:::>>>;;;;---$$$$$00000000000000000000000000",
"c0000000000000000 %%&**&&**&&&&%%   %%  OOOo+0000000300230g00000000000000+oO@+--::::::>,,<,>;;;--$$$$++00000000000000000000000000",
"c0000000000000000  %%%%%%%%%&&&&&%   %% +oo+00000000300230000000000000000+oO@+-------$$$$$$$$$$$$$+++++00000000000000000000000000",
"c0000000000000&*****&%%  %%%%%%%%%%   %% ++000000000300200000000000000000++o@+;;;----$$++++++++++++++++00000000000000000000000000",
"c00000000000&&79ww97&&&&   %%%% %  %% %& 000000000003002000000000000000000+@O@$;;;;;;;;::;-$$$$$$$$+++ 00000000000000000000000000",
"c0000000000&&&&7997&&&&&%%   %%%     %%& 0000000000000020000000000000000000$$$+$;;;;:>>>>>:;$$$$$+++++ 00000000000000000000000000",
"c000000000&&&&&&&&&&&&&&&%%    %%    %%& 000000000000002000000000000000000000  ++++++++++++++++++++++  00000000000000000000000000",
"c000000000&&&&&&&&&     %%%%     %  %%&& 000000000000002000000000000000000000    ++++++++++++++++++    00000000000000000000000000",
"c00000000%%%%%%%%%%%%%%%  %%%     %%%%& 0000000000000002000000000000000000000  %                      000000000000000000000000000",
"c00000000%%             %%  %%   %%%&%& 0000000000000002000000000000000000000  %     %                000000000000000000000000000",
"c00000000%                %%  %%%%%%%&& 0000000000000002000000000000000000000  %&    %%    %%        0000000000000000000000000000",
"c00000000                   %%%%%%   && 0000000000000003000000000000000000000  %&%                   0000000000000000000000000000",
"c00000000                    %%%%%   & 000000000000000030000000000000000000000  %&%% %%             00000000000000000000000000000",
"c00000000                      %%%   & 0000000000000000300000000000000000000000  %%  %%%            00000000000000000000000000000",
"c000000000                      %%   & 0000000000000000300000000000000000000000                    000000000000000000000000000000",
"c0000000000                      %%  & 0000000000000000000000000000000000000000                     00000000000000000000000000000",
"c00000000000                         & 0000000000000000000000000000000000000000   &%%&&&&%%%%%%      0000000000000000000000000000",
"c000000000000                       && 000000000000000000000000000000000000000  %&%%&787&&%%%%%%      000000000000000000000000000",
"c000000000000000                    &  000000000000000000000000000000000000000 %&%%&&898*&&%%%%%%     000000000000000000000000000",
"c000000000000000000                   000000000000000000000000000000000000000  %&%%&&787&&&%%%%%%      00000000000000000000000000",
"c00000000000000000000                0000000000000000000000000000000000000000  %&%%%&&&&&&%%%%%%%      00000000000000000000000000",
"c0000000000000000000000000000000000000000000000000000000000000000000000000000  %&%%%%&&&&%%%%%%%%      00000000000000000000000000",
"c0000000000000000000000000000000000000000000000000000000000000000000000000000   %%%%%%%%%%%%%%%%       00000000000000000000000000",
"c0000000000000000000000000000000000000000000000000000000000000000000000000000    %%%%%%%%%%%%%%        00000000000000000000000000",
"c00000000000000000000000000000000000000000000000000000000000000000000000000000    %%%%%%%%%%%%        000000000000000000000000000",
"c000000000000000000000000000000000000000000000000000000000000000000000000000000    %%%%%%%%%         0000000000000000000000000000",
"c0000000000000000000000000000000000000000000000000000000000000000000000000000000                    00000000000000000000000000000",
"c000000000000000000000000000000000000000000000000000000000000000000000000000000000                0000000000000000000000000000000",
"c00000000000000000000000000000000000000000000000000000000000000000000000000000000000000000000000000000000000000000000000000000000",
"c00000000000000000000000000000000000000000000000000000000000000000000000000000000000000000000000000000000000000000000000000000000",
"c00000000000000000000000000000000000000000000000000000000000000000000000000000000000000000000000000000000000000000000000000000000",
"c00000000000000000000000000000000000000000000000000000000000000000000000000000000000000000000000000000000000000000000000000000000",
"c00000000000000000000000000000000000000000000000000000000000000000000000000000000000000000000000000000000000000000000000000000000",
"c00000000000000000000000000000000000000000000000000000000000000000000000000000000000000000000000000000000000000000000000000000000",
"c00000000000000000000000000000000000000000000000000000000000000000000000000000000000000000000000000000000000000000000000000000000",
"c00000000000000000000000000000000000000000000000000000000000000000000000000000000000000000000000000000000000000000000000000000000",
"c00000000000000000000000000000000000000000000000000000000000000000000000000000000000000000000000000000000000000000000000000000000",
"c00000000000000000000000000000000000000000000000000000000000000000000000000000000000000000000000000000000000000000000000000000000",
"c00000000000000000000000000000000000000000000000000000000000000000000000000000000000000000000000000000000000000000000000000000000",
"c00000000000000000000000000000000000000000000000000000000000000000000000000000000000000000000000000000000000000000000000000000000",
"c00000000000000000000000000000000000000000000000000000000000000000000000000000000000000000000000000000000000000000000000000000000",
"c00000000000000000000000000000000000000000000000000000000000000000000000000000000000000000000000000000000000000000000000000000000"
};
