/* XPM */
static const char *sprite_3[] = {
/* columns rows colors chars-per-pixel */
"129 129 81 1 ",
"  c black",
". c #0F0000",
"X c #1F0000",
"o c #1B0700",
"O c gray12",
"+ c #230B00",
"@ c #2B1700",
"# c #2B230F",
"$ c #372300",
"% c #3B2F17",
"& c #232323",
"* c #2F2F2F",
"= c gray23",
"- c #430000",
"; c #4B0000",
": c #630000",
"> c #6F0000",
", c #770000",
"< c #43331B",
"1 c #4B3B1B",
"2 c #573F1F",
"3 c #5F4323",
"4 c #6F4B27",
"5 c #774F2B",
"6 c #004343",
"7 c #005B5B",
"8 c #007373",
"9 c #4B4B4B",
"0 c gray34",
"q c #676767",
"w c none",
"e c gray45",
"r c gray50",
"t c #830000",
"y c #8F0000",
"u c #9B0000",
"i c #9F0000",
"p c #A70000",
"a c #B30000",
"s c #BF0000",
"d c #CB0000",
"f c #D70000",
"g c #DF0000",
"h c #E30000",
"j c #EF0000",
"k c red",
"l c #9F4F00",
"z c #AB5700",
"x c #B75700",
"c c #83532F",
"v c #8B5B33",
"b c #935F37",
"n c #9F633B",
"m c #CF6300",
"M c #E76F00",
"N c #FF7B00",
"B c #EF7F1F",
"V c #BF7B4B",
"C c #F35353",
"Z c #BBBB00",
"A c #FF8B23",
"S c #C7C700",
"D c #D7D700",
"F c #E3E300",
"G c #EFEF00",
"H c yellow",
"J c #008787",
"K c #009F9F",
"L c #00B7B7",
"P c none",
"I c #5FFFFF",
"U c gray56",
"Y c #9B9B9B",
"T c gray67",
"R c #B7B7B7",
"E c #C3C3C3",
"W c LightGray",
"Q c #DFDFDF",
"! c #DBFFFF",
"~ c #EFEFEF",
"^ c white",
/* pixels */
"PPPPPPPPPPPPPPPPPPPPPPPPPPPPPPPPPPPPPPPPPPPPPPPPPPPPPPPPPPPPPPPPPPPPPPPPPPPPPPPPPPPPPPPPPPPPPPPPPPPPPPPPPPPPPPPPPPPPPPPPPPPPPPPPP",
"Pwwwwwwwwwwwwwwwwwwwwwwwwwwwwwwwwwwwwwwwwwwwwwwwwwwwwwwwwwwwwwwwwwwwwwwwwwwwwwwwwwwwwwwwwwwwwwwwwwwwwwwwwwwwwwwwwwwwwwwwwwwwwwwww",
"Pwwwwwwwwwwwwwwwwwwwwwwwwwwwwwwwwwwwwwwwwwwwwwwwwwwwwwwwwwwwwwwwwwwwwwwwwwwwwwwwwwwwwwwwwwwwwwwwwwwwwwwwwwwwwwwwwwwwwwwwwwwwwwwww",
"Pwwwwwwwwwwwwwwwwwwwwwwwwwwwwwwwwwwwwwwwwwwwwwwwwwwwwwwwwwwwwwwwwwwwwwwwwwwwwwwwwwwwwwwwwwwwwwwwwwwwwwwwwwwwwwwwwwwwwwwwwwwwwwwww",
"Pwwwwwwwwwwwwwwwwwwwwwwwwwwwwwwwwwwwwwwwwwwwwwwwwwwwwwwwwwwwwwwwwwwwwwwwwwwwwwwwwwwwwwwwwwwwwwwwwwwwwwwwwwwwwwwwwwwwwwwwwwwwwwwww",
"Pwwwwwwwwwwwwwwwwwwwwwwwwwwwwwwwwwwwwwwwwwwwwwwwwwwwwwwwwwwwwwwwwwwwwwwwwwwwwwwwwwwwwwwwwwwwwwwwwwwwwwwwwwwwwwwwwwwwwwwwwwwwwwwww",
"Pwwwwwwwwwwwwwwwwwwwwwwwwwwwwwwwwwwwwwwwwwwwwwwwwwwwwwwwwwwwwwwwwwwwwwwwwwwwwwwwwwwwwwwwwwwwwwwwwwwwwwwwwwwwwwwwwwwwwwwwwwwwwwwww",
"Pwwwwwwwwwwwwwwwwwwwwwwwwwwwwwwwwwwwwwwwwwwwwwwwwwwwwwwwwwwwwwwwwwwwwwwwwwwwwwwwwwwwwwwwwwwwwwwwwwwwwwwwwwwwwwwwwwwwwwwwwwwwwwwww",
"Pwwwwwwwwwwwwwwwwwwwwwwwwwwwwwwwwwwwwwwwwwwwwwwwwwwwwwwwwwwwwwwwwwwwwwwwwwwwwwwwwwwwwwwwwwwwwwwwwwwwwwwwwwwwwwwwwwwwwwwwwwwwwwwww",
"Pwwwwwwwwwwwwwwwwwwwwwwwwwwwwwwwwwwwwwwwwwwwwwwwwwwwww**************************wwwwwwwwwwwwwwwwwwwwwwwwwwwwwwwwwwwwwwwwwwwwwwwww",
"Pwwwwwwwwwwwwwwwwwwwwwwwwwwwwwwwwwwwwwwwwwwwwwwwwwwww*=99999999999999999999999=* wwwwwwwwwwwwwwwwwwwwwwwwwwwwwwwwwwwwwwwwwwwwwwww",
"Pwwwwwwwwwwwwwwwwwwwwwwwwwwwwwwwwwwwwwwwwwwwwwwwwwwww***=999999999999999999=**   wwwwwwwwwwwwwwwwwwwwwwwwwwwwwwwwwwwwwwwwwwwwwwww",
"Pwwwwwwwwwwwwwwwwwwwwwwwwwwwwwwwwwwwwwwwwwwwwwwwwwwww**&&&&****========**OO      wwwwwwwwwwwwwwwwwwwwwwwwwwwwwwwwwwwwwwwwwwwwwwww",
"Pwwwwwwwwwwwwwwwwwwwwwwwwwwwwwwwwwwwwwwwwwwwwwwwwwwww*=&&&&&&&&********OO    OO= wwwwwwwwwwwwwwwwwwwwwwwwwwwwwwwwwwwwwwwwwwwwwwww",
"Pwwwwwwwwwwwwwwwwwwwwwwwwwwwwwwwwwwwwwwwwwwwwwwwwwwww*=0rEEETr00=&&&&=00rTEEEr0= wwwwwwwwwwwwwwwwwwwwwwwwwwwwwwwwwwwwwwwwwwwwwwww",
"Pwwwwwwwwwwwwwwwwwwwwwwwwwwwwwwwwwwwwwwwwwwwwwwwwwwww*0rEWQ~WWERUreerUREEEWEWEr0 wwwwwwwwwwwwwwwwwwwwwwwwwwwwwwwwwwwwwwwwwwwwwwww",
"Pwwwwwwwwwwwwwwwwwwwwwwwwwwwwwwwwwwwwwwwwwwwwwwwwwwww*0rEWQ~~~WEQ~^^~QEW~~WEWEr0 wwwwwwwwwwwwwwwwwwwwwwwwwwwwwwwwwwwwwwwwwwwwwwww",
"Pwwwwwwwwwwwwwwwwwwwwwwwwwwwwwwwwwwwwwwwwwwwwwwwwwwww*0rYRQQQQ~~~QQQQ~~~QQQQRYr0 wwwwwwwwwwwwwwwwwwwwwwwwwwwwwwwwwwwwwwwwwwwwwwww",
"Pwwwwwwwwwwwwwwwwwwwwwwwwwwwwwwwwwwwwwwwwwwwwwwwwwwww*0eYQ~~~~QQQ~~~~QQQ~~^^QYe0 wwwwwwwwwwwwwwwwwwwwwwwwwwwwwwwwwwwwwwwwwwwwwwww",
"Pwwwwwwwwwwwwwwwwwwwwwwwwwwwwwwwwwwwwwwwwwwwwwwwwwwww*0rYEWQ^^^~~QQQQQ~^^^~EEYr0 wwwwwwwwwwwwwwwwwwwwwwwwwwwwwwwwwwwwwwwwwwwwwwww",
"Pwwwwwwwwwwwwwwwwwwwwwwwwwwwwwwwwwwwwwwwwwwwwwwwwwwww*0UTWWWTT^^~WTTW~^^TTQTWTU0 wwwwwwwwwwwwwwwwwwwwwwwwwwwwwwwwwwwwwwwwwwwwwwww",
"PwwwwwwwwwwwwwwwwwwwwwwwwwwwwwwwwwwwwwwwwwwwwwwwwwwweqqUWWUe99Y^^WYYW^^Y9*=0TWUqqewwwwwwwwwwwwwwwwwwwwwwwwwwwwwwwwwwwwwwwwwwwwwww",
"PwwwwwwwwwwwwwwwwwwwwwwwwwwwwwwwwwwwwwwwwwwwwwwwwwwwTqrUQU=   *=0rrer0=**  ==WUrqTwwwwwwwwwwwwwwwwwwwwwwwwwwwwwwwwwwwwwwwwwwwwwww",
"PwwwwwwwwwwwwwwwwwwwwwwwwwwwwwwwwwwwwwwwwwwwwwwwwwwwY&rEQe 7LL*   =0=   LL7 =TUr&Ywwwwwwwwwwwwwwwwwwwwwwwwwwwwwwwwwwrrrwwwwwwwwww",
"PwwwwwwwwwwwwwwwwwwwwwwwwwwwwwwwwwwwwwwwwwwwwwwwwwwwY&eWET KI!K= &U^U& K!IK TWUe&Ywwwwwwwwwwwwwwwwwwwwwwwwwwwwwwwwwrrrrwwwwwwwwww",
"PwwwwwwwwwwwwwwwwwwwwwwwwwwwwwwwwwwwwwwwwwwwwwwwwwwwY&eW~^QETeTETeRReeETeTEQ^WTe&YwwwwwwwwwwwwwwwwwwwwwwwwwwwwwwwwYYYqqwwwwwwwwww",
"Pwwwwwwwwwwwwwwwwwwwwwwwwwwwwwwwwwwwwwwwwwwwwwwwwwwwr&eW~^^QQ^WETRE~ETEW^^Q^^WTe&rwwwwwwwwwwwwwwwwwwwwwwwwwwwwwwwYYYYqqwwwwwwwwww",
"PwwwwwwwwwwwwwwwwwwwwwwwwwwwwwwwwwwwwwwwwwwwwwwwwwwwrTrRW^QWQQUUTWW~WTTUQQWW^RYeTrwwwwwwwwwwwwwwwwwwwwwwwwwwwwwwwYYrrqqwwwwwwwwww",
"PwwwwwwwwwwwwwwwwwwwwwwwwwwwwwwwwwwwwwwwwwwwwwwwwwwwrreUEEEQEUe90eW~Te099EQERYrerrwwwwwwwwwwwwwwwwwwwwwwwwwwwwwwwYYrrqqwwwwwwwwww",
"PwwwwwwwwwwwwwwUUwwwwwwwwwwwwwwwwwwwwwwwwwwwwwwwwwwwr00qUUYQYe90e0999=009YQYUeq00rwwwwwwwwwwwwwwwwwwwwwwwwwwwwwwwTTeeqqwwwwwwwwww",
"PwwwwwwwwwwwwwTUrwwwwwwwwwwwwwwwwwwwwwwwwwwwwwwwwwwww09q0rUWY0qrUU=*=Urq0YQUe0q90wwwwwwwwwwwwwwwwwwwwwwwwwwwwwwwwTTeeqqwwwwwwwwww",
"PwwwwwwwwwwwwTTrrwwwwwwwwwwwwwwwwwwwwwwwwwwwwwwwwwwwww9q0qUWU0qYRRrqrRTq0UQUq0q9wwwwwwwwwwwwwwwwwwwwwwwwwwwwwwwww~~eeqqwwwwwwwwww",
"PwwwwwwwwwwwQTTrrwwwwwwwwwwwwwwwwwwwwwwwwwwwwwwwwwwww<<eeqUWUqqrrYYrYrrqqUQUqeqwwwwwwwwwwwwwwwwwwwwwwwwwwwwwwwwww~~eeqqwwwwwwwwww",
"PwwwwwwwwwwQQTUeCwwwwwwwwwwwwwwwwwwwwwwwwwwwwwwwwwwww<<ereUWUe00qYRWRYq0eUQUeUq##wwwwwwwwwwwwwwwwwwwwwwwwwwwwwwww~~eeqqwwwwwwwwww",
"PwwwwwwwwwwQQTUekwwwwwwwwwwwwwwwwwwwwwwwwwwwwwwwwww44<<qYeUWUrq        qrUQUeYq#####wwwwwwwwwwwRRRRwwwwwwwwwwwwww~~eeqqwwwwwwwwww",
"PwwwwwwwwwwQQUUCjwwwwwwwwwwwwwwwwwwwwwwwwwwweeCh44444%#qTeUWUrq        qrUQUrTq########wwwwwwwwhCRRwwwwwwwwwwwwww~~eeqqwwwwwwwwww",
"PwwwwwwwwwwQQUUkjwwwwwwwwwwwwwwwwwwwwwwwwweeYYCh44443%#qYrUWTYY9>>>>>>9eYTQUrYq##########wwwwwwhCRRwwwwwwwwwwwwww~~eeqqwwwwwwwwww",
"PwwwwwwwwwwQQUUjfwwwwwwwwwwwwwwwwwwwww24eeYYRRCh44443%#9UrUWETYe900009eYTEQUUY9#########%%%%%11hC^^wwwwwwwwwwwwww~~eeqqwwwwwwwwww",
"PwwwwwwwwwwQQUCffwwwwwwwwwwwwwwwwwww22eeYYYRRRCh44442%#=qUrWWRTRTYYYYYRYRWQUYq=########%%%%%%11hC^^wwwwwwwwwwwwww~~eeqqwwwwwwwwww",
"PwwwwwwwwwwQQCkffwwwwwwwwwwwwwww2222eeYYYYRRRRCh44422%##=qUWWEETRWQQWRTTWQRYq=#####%%%%<<<<1122hC~~2222wwwwwwwwww~~eeqqwwwwwwwwww",
"PwwwwwwwwwwQQkjffwwwwwwwwwwww2222224YYYYYYRRRECh444222%##9qYWWEEYeqqqUTWWEYU9####%%%%%%<<<<1122hC~~5cc52wwwwwwwww~~eeqqwwwwwwwwww",
"PwwwwwwwwwwEEjhffwwwwwwwwwcccerUREEEYYYYYYRRRECh4p>222%###99YWWWETYYTEWQWY99####%%<11<<1<<<<<11hC~~%%3c5222222www~~eeqqwwwwwwwwww",
"PwwwwwwwwwwEEhhffwwwwwwcccccrUEERTTTYYYYYYRRRECh44p>111%####9YE~~~^^~~~EY9#####%%<<>><33311<<11hC~~%%23cc444432ww~~eeqqwwwwwwwwww",
"PwwwwwwwwwwEEffddwwwwwcvnv5rYEERTYrqYYYYYYREWWCh432p>11%%#####qYEWEEEEYe9####%1%<>t><3344443<11hC~~<<%34433344322~~eeqq11wwwwwwww",
"PwwwwwwwwwwEEffddwwwwcvn42rYEERTYrq0YYYYYTREWWCh422,p>11%####################%11tu><<1122334311hC~~<<%<33%%<15vv5~~eeqq11%wwwwwww",
"PwwwwwwwwwwEEffddww44vn42rYEERTr0Y**YYYYTRWW~RCh4<<<,p,<##<<00qrrrryyqq999=<<11tp>:112345544322hC~~11<%11%<25vc51~~YYqqee%%wwwwww",
"PwwwwwwwwwwEEffddww44nn2rYTERRYr9cc3YYYTRRWWRYCh4<<<<,p,#<=0qrrrrrryurrre9=<<2pptut112444454422hC~~11<%%%<14c5211~~YYqqee9%%wwwww",
"PwwwwwwwwwwEEffdd445bn42rTEERTr0cc31YYTREERYUree111<<1,p,,r77770&&&uu&&7777=tpdpat1224313345542hC~~2211#%<152qqYYRRee00ee00%%wwww",
"PwwwwwwwwwwEEffdd445bn32YEEERTr0c1%%TTRREYUree<11111<1=,p,,,J886&,>uu&8JKJ8tsdpat11243211134554hC~~221%#%<15%qqYYRRee00eeq09%wwww",
"PwwwwwwwwwwEEffdd55cbn3%YEEETYr0%%%%EEEYUeee<<<<1111<=0t,pp,, 6>::yuu>J6 >ypdp,t<%12411<122ccc5hCWW221##%<12%rrRRRRbb33eeqq99wwww",
"PwwwwwwwwwwEEffdd554cn3%REERTYr09%%%EUreee%%%<1<<11<<0e=t,pp,,ty,:uuuyt>typMptt:<#1221<112c5222hCWW22%###<12%rqrRrrrrrrTYqq99wwww",
"PwwwwwwwwwwRRffsscc35b3%TRRTTr00099=eee#%%%##11<<<<<=e=&&y,ppppapppppppassNpt,>&@#%22<%11542qqqYYWW9*%###<<2%UqURRRRRRTTYqq99wwww",
"PwwwwwwwwccRRffssc42cb2%TTTTU0qq0099#####%%##1111<<<0=&&&>ypNppssssssssddNpt,t&&@#%22<%1141qqrrYYWWq9*%##%<2%U0UUUUUUUUYRqq99wwww",
"PwwwwwwwccnRRee00c32cc5#%rUU0qqq0099######@@#<11111=0&&&& t,pSpddddddddkSdt,t&&&&##1%#%22<qrqr0ee000q0=%##%2%UqrrrrrrrrYYqq99wwww",
"PwwwwwwccnnRRee002322cc3#%U0qq00999=0###@@@@@%<1111q=&&&& >,,pSNdkkkkkNSNp,t &&&&&#1%#%22qUrqY=ee00=r00=%#%2%UqURRRRRRTUYqq99wwww",
"PwwwwwccYEEVVVV55TT223c4##########%%%%%#@@++@#%<111q&&&777tps,NGSNkkNSSSdt,7777&&&#%#@%11qTUrR=bb33=Yr09=$%%%9rUUUUUUUUUR00==wwww",
"PwwwwccYYEEVVVV55EEr<1c43########%%%%%%#@@@++@#%111q&&8JJ>yps,xSGSDDDSSNx:,JJ886&&#%#@%11<qqrRrrrrrrTY09=@%%%9qrrrrrrrrr000==wwww",
"PwwwwcYQQEEVV5555YTEr<14432#####<%%%%%#@###@++@#%%10&yuuuuupsyxNZDFFFDZxx:::: 676&&%@@#%%11qURRRRRRTTYe9=@$%%%qqTTYYYUeUY00==wwww",
"PwwwwcYQQQEVV5555YYTr<+344211<<<<%%%%%#@#%#@@@+@#%%0&yytyylzmmBASDGGDSAMxxllt,>76&&@@@#%%110UUUUUUUUYRe9=+@$%%qqrrrrrrrYR00==wwww",
"PwwwwcYEQQQQeeeYYYYrr<@+34311<<<<%%%%###%%#@@@@+@-@9&8KasxZZZZZSFGHHGFSZZZZxxait>&&XX@##%##qrrrrrrrrYY09=@+#%%90qqqqqqqq9==##wwww",
"PwwwwcYEEQQQQYYYYUUrr#<@o34311<<<%%####%%%#@@@#@@@@9&78iasdgkAZSFGHHGFSZMjdsaap>>&&XX+@#%##qURRRRRRTUYe9=@+@$%990erreqqUU==##wwww",
"PwwwwcYEEQQQQQQWYeeqq#<#o%33111<%####%%%%##@@@##@@@=& 7,tyiasjADSDGGDSAMjgdi,,;6 &&@++@@%##rUUUUUUUUURe==#@+@$%990qqqq09=<<#wwwww",
"PwwwwcYEEEEWQQQWUrrqq#<#+o%%<111<%%%%11%###@@##%###=&  **>yas,,SGGSSSSSka::****  &&@@++@###qrrrrrrrrr00==#@++@#%9900009==<##wwwww",
"PwwwwcTEEEEEEEEUrqqq9#<#@+o%%%<111111%%####@@#%%###*&&    t::dNGSNSNNSSNj::     &&##@@+++@#qqTTYYYUeUYe==##@+++############wwwwww",
"PwwwwcTEEEEEEEEUrqqq9#<#@@+o%%%<<%%########@######%&&&&   ,:adSNykNkyaNSNu:7   &&&###@@++@@qqrrrrrrrYRe==##@+#ww#########wwwwwwww",
"PwwwwcUTTEETTTTUrqq99#%#@@@o%###################<<<%&&&&&::apN:::yky:ypNSm,::&&&&##@@++  +@90qqqqqqqq99=###@#wwwwwwwwwwwwwwwwwwww",
"PwwwwcqUTEETTTTrrqq99#%#@###%##########%%%<####<<<<%@&&&&:ypM::::yky:,,pmNu,:&&&&####@@@+  990erreqqUU=######wwwwwwwwwwwwwwwwwwww",
"Pwwww4qqUTTTTYYqqqq###%#@##wwwwwwww%%%###%%<<<223443@&&&::ay:   :yky:8Ktupmu,:&&&#@@@@@@@+ 1990qqqq09=######wwwwwwwwwwwwwwwwwwwww",
"Pwwww4<qqUUTTYUqqqq###%#@##wwwwwwwwww%%%####<<<12332$+&::a:::=  :yky:78=tuphu:&&##@@@@@@@@+119900009=###%###wwwwwwwwwwwwwwwwwwwww",
"Pwwwww4#qqqqqqqqq99###%###wwwwwwwwwwwww%%%###%%<<<<<<@+:::: 7=99:tyt& 7=9tuay,:@#####@@@@@@#%1%########%%##wwwwwwwwwwwwwwwwwwwwww",
"Pwwwww4<#99999999####%%##wwwwwwwwwwwwwww%#######<<<<<$:::&&  ***:>y:&  ***>tau,@##@@@@@@@@@ #11%######%%%##wwwwwwwwwwwwwwwwwwwwww",
"Pwwwwww4%###########111#wwwwwwwwwwwwwww<12333211<1122::,+&&&     >t&&&     :tau:#%233211<%#  #%11%%%#%%##wwwwwwwwwwwwwwwwwwwwwwww",
"Pwwwwww44<%#######<1111wwwwwwwwwwwwwww<1<<<<<<<<<1111:,$@++&&&   >>&&&&   ++@ta::233332221%#  #%%%%#####wwwwwwwwwwwwwwwwwwwwwwwww",
"Pwwwwwwww44<<<<<<<<1wwwwwwwwwwwwwwwwww%%%%%%%%%<<<<<p,<<<$@+++&&&&&&&&&+++@@##tu:#%%%%%%%%%%%    wwwwwwwwwwwwwwwwwwwwwwwwwwwwwwww",
"Pwwwwwwwww4<<<<<<wwwwwwwwwwwwwwwwwwww%%##########<<p,221<%%%@@@++++ +++@@######t:###########%%#  wwwwwwwwwwwwwwwwwwwwwwwwwwwwwwww",
"Pwwwwwwwwwwwwwwwwwwwwwwwwwwwwwwwwwwww%#####%%222<<p<<12222%%%%##############%%%133443311<<%##%%#+wwwwwwwwwwwwwwwwwwwwwwwwwwwwwwww",
"Pwwwwwwwwwwwwwwwwwwwwwwwwwwwwwwwwwww#####%%%%%%<3p3222<%122<%%%###@  @####%%%111224432211<%%%%%%#wwwwwwwwwwwwwwwwwwwwwwwwwwwwwwww",
"Pwwwwwwwwwwwwwwwwwwwwwwwwwwwwwwwwww##############%%3442<<122<#@###@  +@##%%1111<<<<<<<<<%%####%%%<wwwwwwwwwwwwwwwwwwwwwwwwwwwwwww",
"Pwwwwwwwwwwwwwwwwwwwwwwwwwwwwwwwww#################113442%%12<#+@#+   +#%%111<%%%%%%%%%##########%%wwwwwwwwwwwwwwwwwwwwwwwwwwwwww",
"Pwwwwwwwwwwwwwwwwwwwwwwwwwwwwwwww###%%%%%%%##########%%322%%%<$ +@    +#%11<%<<<<11111111<<<<<<%%##%wwwwwwwwwwwwwwwwwwwwwwwwwwwww",
"Pwwwwwwwwwwwwwwwwwwwwwwwwwwwwwwww#%%%%%%%%%%%%###@+@###%32%@#$$  @     %%1<%%<<<<11111111111<<<%%%%#%wwwwwwwwwwwwwwwwwwwwwwwwwwww",
"Pwwwwwwwwwwwwwwwwwwwwwwwwwwwwwww11111<<<%%%%%%%%%##+@@###%<$  +  +     <%%%<<1122222222222211<<<<%%%#<wwwwwwwwwwwwwwwwwwwwwwwwwww",
"Pwwwwwwwwwwwwwwwwwwwwwwwwwwwwww1111111111<<%%%%%%%%#++@@@$$$+  + +     <%%%<<11222222222222111<<<%%%%<wwwwwwwwwwwwwwwwwwwwwwwwwww",
"Pwwwwwwwwwwwwwwwwwwwwwwwwwwwwww223333222211<<1<<%%%%#++@@+  ++ +       %###<<11222222333333221111<<<%%%wwwwwwwwwwwwwwwwwwwwwwwwww",
"Pwwwwwwwwwwwwwwwwwwwwwwwwwwwww1223333322211<<211<%%%%#++@@+  +         ####<<112222233333333333111<<%<%wwwwwwwwwwwwwwwwwwwwwwwwww",
"Pwwwwwwwwwwwwwwwwwwwwwwwwwwww22333444332211<<23#<<<%%%@+@+@+  +         #%%11222222333444444333311<<%<%<wwwwwwwwwwwwwwwwwwwwwwwww",
"Pwwwwwwwwwwwwwwwwwwwwwwwwwww222444554432221<<13<#%<%%%#o+++@+ @         #%%112222223344444444333111<<<1<wwwwwwwwwwwwwwwwwwwwwwwww",
"Pwwwwwwwwwwwwwwwwwwwwwwwwww2234455cc5443221<<<33<###%%%o+#o#@+#  ++++   #<%11221122334444444443321111<1%%wwwwwwwwwwwwwwwwwwwwwwww",
"Pwwwwwwwwwwwwwwwwwwwwwwwww2234455ccc5443221<<<253#++#%%..#o@#+# +####@ +#<%11221122333444444443322111<<1%wwwwwwwwwwwwwwwwwwwwwwww",
"Pwwwwwwwwwwwwwwwwwwwwwwww2234455cvvc54432211<%%352#+ +#@+#o+#@#wwwwww#@+#%<111122223334444444443322111<1%<wwwwwwwwwwwwwwwwwwwwwww",
"Pwwwwwwwwwwwwwwwwwwwwwww2234455cvvvc54432211<%%253#o .+#+#. ##wwwwwwww#+#%<111122223334444444443322111<11<wwwwwwwwwwwwwwwwwwwwwww",
"Pwwwwwwwwwwwwwwwwwwwwww2235555cvvvc5543322111<%%352#.  +#@  ##wwwwwwww#+#%<<111112333334444444433211111<1%%wwwwwwwwwwwwwwwwwwwwww",
"Pwwwwwwwwwwwwwwwwwwwwww2355555cvvc55443322111<%%252#o   @+++#wwwwwwwwww+##<<<11113333333444444433211111<1%%wwwwwwwwwwwwwwwwwwwwww",
"Pwwwwwwwwwwwwwwwwwwwww334555555cc55443322111<%%%232<#.  ++@#wwwwwwwwwww###%<<<1133333333334444433211111<<1%<wwwwwwwwwwwwwwwwwwwww",
"Pwwwwwwwwwwwwwwwwwwwww334444555555443332211<<%11111<#+ ++@#wwwwwwwwwwwww###<<<3333333333333444333211111<<1%<wwwwwwwwwwwwwwwwwwwww",
"Pwwwwwwwwwwwwwwwwwwwww33344444444433332111<<355c53<###+@##wwwwwwwwwwwwww###%<22333333333333333323333333321<<wwwwwwwwwwwwwwwwwwwww",
"Pwwwwwwwwwwwwwwwwwwwww3333333333333333211<<35vc33<<###+##wwwwwwwwwwwwwwww###%223322111111333333233333333321<wwwwwwwwwwwwwwwwwwwww",
"Pwwwwwwwwwwwwwwwwwwwwww222222222222222111<<35c1##   ###wwwwwwwwwwwwwwwwww####<2221111111111111111<<<<%%%122%wwwwwwwwwwwwwwwwwwwww",
"Pwwwwwwwwwwwwwwwwwwwwww22222222222222111<<<2331##    #wwwwwwwwwwwwwwwwwwww####12111111111111111<<<<<<##%%11%wwwwwwwwwwwwwwwwwwwww",
"Pwwwwwwwwwwwwwwwwwwwwww%<11111111111<<<%%%%1235%%#   #wwwwwwwwwwwwwwwwwwww##%%%1112222211<<<<<<<<<<<<##%%11#wwwwwwwwwwwwwwwwwwwww",
"Pwwwwwwwwwwwwwwwwwwwwww%<<<<<<<<<<<<%%%%%%%<1235%#   #wwwwwwwwwwwwwwwwwwwww##%%11%<1211<<<<<<<<<<<<<###%<1@#wwwwwwwwwwwwwwwwwwwww",
"Pwwwwwwwwwwwwwwwwwwwwwww%%%%%%%%%%%%%%%%##%%<123%#   wwwwwwwwwwwwwwwwwwwwww####%1%%%%%%<<12221111<%%##%%%@+#wwwwwwwwwwwwwwwwwwwww",
"Pwwwwwwwwwwwwwwwwwwwwwww#%%%%%%%%%%%%%%#####%<13%#  #wwwwwwwwwwwwwwwwwwwwww####%11%%%%%<13431111<%%##%%%@++#wwwwwwwwwwwwwwwwwwwww",
"Pwwwwwwwwwwwwwwwwwwwwwwww#%%%%%%%%%%%######%<13#    #wwwwwwwwwwwwwwwwwwwwww<####%111%<<1431<%%%%%######@+++#wwwwwwwwwwwwwwwwwwwww",
"Pwwwwwwwwwwwwwwwwwwwwwwww###%%%%%%%#######%<13#    #wwwwwwwwwwwwwwwwwwwwwww<##@#%11311131<%%%%######@@@+++@#wwwwwwwwwwwwwwwwwwwww",
"Pwwwwwwwwwwwwwwwwwwwwwwwww###############%<13#  ###wwwwwwwwwwwwwwwwwwwwwwwww<#+@#%11332###########@oooo++@#wwwwwwwwwwwwwwwwwwwwww",
"Pwwwwwwwwwwwwwwwwwwwwwwwwww###########%<<11<####   wwwwwwwwwwwwwwwwwwwwwwwww<#+o+##%11%###############@oo##wwwwwwwwwwwwwwwwwwwwww",
"Pwwwwwwwwwwwwwwwwwwwwwwwwwwww#######<1111<###      wwwwwwwwwwwwwwwwwwwwwwwwww%#oo+#####              #####wwwwwwwwwwwwwwwwwwwwwww",
"Pwwwwwwwwwwwwwwwwwwwwwwwwwwww                      wwwwwwwwwwwwwwwwwwwwwwwwww%#oo.o##                   ##wwwwwwwwwwwwwwwwwwwwwww",
"Pwwwwwwwwwwwwwwwwwwwwwwwwwwww                      wwwwwwwwwwwwwwwwwwwwwwwwwww<#.o#  ******  &&          wwwwwwwwwwwwwwwwwwwwwwww",
"Pwwwwwwwwwwwwwwwwwwwwwwwwwwww                      wwwwwwwwwwwwwwwwwwwwwwwwwww<###   ******  &&          wwwwwwwwwwwwwwwwwwwwwwww",
"Pwwwwwwwwwwwwwwwwwwwwwwwwww&&&&&&&                 wwwwwwwwwwwwwwwwwwwwwwwwwwww##  &&**********&&  &&    wwwwwwwwwwwwwwwwwwwwwwww",
"Pwwwwwwwwwwwwwwwwwwwwwwwww&&&&&&&&&&               wwwwwwwwwwwwwwwwwwwwwwwwwwww##  &&**********&&  &&    wwwwwwwwwwwwwwwwwwwwwwww",
"Pwwwwwwwwwwwwwwwwwwwwwwww&&********&&              wwwwwwwwwwwwwwwwwwwwwwwwwwwwww  &&******  &&    &&    wwwwwwwwwwwwwwwwwwwwwwww",
"Pwwwwwwwwwwwwwwwwwwwwwwww&&**====**&&&             wwwwwwwwwwwwwwwwwwwwwwwwwwwwww  &&******  &&    &&    wwwwwwwwwwwwwwwwwwwwwwww",
"Pwwwwwwwwwwwwwwwwwwwwwwww&&*=999==**&&             wwwwwwwwwwwwwwwwwwwwwwwwwwwwww  **&&                wwwwwwwwwwwwwwwwwwwwwwwwww",
"Pwwwwwwwwwwwwwwwwwwwwwwww&&*=99===**&&&            wwwwwwwwwwwwwwwwwwwwwwwwwwwwww  **&&                wwwwwwwwwwwwwwwwwwwwwwwwww",
"Pwwwwwwwwwwwwwwwwwwwwwwww&&**====***&&&           wwwwwwwwwwwwwwwwwwwwwwwwwwwwwww  &&****  &&  &&      wwwwwwwwwwwwwwwwwwwwwwwwww",
"Pwwwwwwwwwwwwwwwwwwwwwwww&&&&******&&&&           wwwwwwwwwwwwwwwwwwwwwwwwwwwwwww  &&****  &&  &&      wwwwwwwwwwwwwwwwwwwwwwwwww",
"Pwwwwwwwwwwwwwwwwwwwwwwww  &&&&&&&&&&            wwwwwwwwwwwwwwwwwwwwwwwwwwwwwwww    ****&&&&&&      wwwwwwwwwwwwwwwwwwwwwwwwwwww",
"Pwwwwwwwwwwwwwwwwwwwwwwww  &&&&&&&&&&            wwwwwwwwwwwwwwwwwwwwwwwwwwwwwwww    ****&&&&&&      wwwwwwwwwwwwwwwwwwwwwwwwwwww",
"Pwwwwwwwwwwwwwwwwwwwwwwwww                      wwwwwwwwwwwwwwwwwwwwwwwwwwwwwwwww&&&&**====****&&&&&&  wwwwwwwwwwwwwwwwwwwwwwwwww",
"Pwwwwwwwwwwwwwwwwwwwwwwwwwww                   wwwwwwwwwwwwwwwwwwwwwwwwwwwwwwwwww&&&&**====****&&&&&&  wwwwwwwwwwwwwwwwwwwwwwwwww",
"Pwwwwwwwwwwwwwwwwwwwwwwwwwwwwwwwwwwwwwwwwwwwwwwwwwwwwwwwwwwwwwwwwwwwwwwwwwwwwwwww&&&&**********&&&&&&   wwwwwwwwwwwwwwwwwwwwwwwww",
"Pwwwwwwwwwwwwwwwwwwwwwwwwwwwwwwwwwwwwwwwwwwwwwwwwwwwwwwwwwwwwwwwwwwwwwwwwwwwwwwww&&&&**********&&&&&&   wwwwwwwwwwwwwwwwwwwwwwwww",
"Pwwwwwwwwwwwwwwwwwwwwwwwwwwwwwwwwwwwwwwwwwwwwwwwwwwwwwwwwwwwwwwwwwwwwwwwwwwwwwwww&&&&**********&&&&&&   wwwwwwwwwwwwwwwwwwwwwwwww",
"Pwwwwwwwwwwwwwwwwwwwwwwwwwwwwwwwwwwwwwwwwwwwwwwwwwwwwwwwwwwwwwwwwwwwwwwwwwwwwwwww&&&&**********&&&&&&   wwwwwwwwwwwwwwwwwwwwwwwww",
"Pwwwwwwwwwwwwwwwwwwwwwwwwwwwwwwwwwwwwwwwwwwwwwwwwwwwwwwwwwwwwwwwwwwwwwwwwwwwwwwww&&&&              #####wwwwwwwwwwwwwwwwwwwwwwwww",
"Pwwwwwwwwwwwwwwwwwwwwwwwwwwwwwwwwwwwwwwwwwwwwwwwwwwwwwwwwwwwwwwwwwwwwwwwwwwwwwwww&&&&              #####wwwwwwwwwwwwwwwwwwwwwwwww"
};
