/* XPM */
static const char *sprite_5[] = {
/* columns rows colors chars-per-pixel */
"129 129 49 1 ",
"  c black",
". c #0F0000",
"X c #1B0700",
"o c gray12",
"O c #230B00",
"+ c #2B1700",
"@ c #2B230F",
"# c #372300",
"$ c #3B2F17",
"% c #232323",
"& c #2F2F2F",
"* c gray23",
"= c #6F0000",
"- c #43331B",
"; c #4B3B1B",
": c #573F1F",
"> c #5F4323",
", c #6F4B27",
"< c #774F2B",
"1 c #004343",
"2 c #005B5B",
"3 c #007373",
"4 c #4B4B4B",
"5 c gray34",
"6 c #676767",
"7 c none",
"8 c gray45",
"9 c gray50",
"0 c #83532F",
"q c #8B5B33",
"w c #935F37",
"e c #9F633B",
"r c #A3673F",
"t c #AB6B43",
"y c #B77347",
"u c #008787",
"i c #009F9F",
"p c none",
"a c #00CFCF",
"s c gray56",
"d c #9B9B9B",
"f c gray67",
"g c #B7B7B7",
"h c #C3C3C3",
"j c LightGray",
"k c #DFDFDF",
"l c #DBFFFF",
"z c #EFEFEF",
"x c white",
/* pixels */
"ppppppppppppppppppppppppppppppppppppppppppppppppppppppppppppppppppppppppppppppppppppppppppppppppppppppppppppppppppppppppppppppppp",
"p77777777777777777777777777777777777777777777777777777777777777777777777777777777777777777777777777777777777777777777777777777777",
"p77777777777777777777777777777777777777777777777777777777777777777777777777777777777777777777777777777777777777777777777777777777",
"p7777777777777777777777777777777777777777777777777777777%&&&&&&&&&&&&&&&&&&&&&&&7777777777777777777777777777777777777777777777777",
"p777777777777777777777777777777777777777777777777777777%***********************& 777777777777777777777777777777777777777777777777",
"p77777777777777777777777777777777777777777777777777777&&&**********************&  77777777777777777777777777777777777777777777777",
"p77777777777777777777777777777777777777777777777777777&&&&*******************&&o  77777777777777777777777777777777777777777777777",
"p77777777777777777777777777777777777777777777777777777&&%&&&&*************&&&oo   77777777777777777777777777777777777777777777777",
"p77777777777777777777777777777777777777777777777777777&&%%%%&&&&********&&oo      77777777777777777777777777777777777777777777777",
"p77777777777777777777777777777777777777777777777777777&*%%%%%%%%&&&&&&&&oo    oo* 77777777777777777777777777777777777777777777777",
"p77777777777777777777777777777777777777777777777777777&554*%%%%%%%%%%%o    oo*455 77777777777777777777777777777777777777777777777",
"p77777777777777777777777777777777777777777777777777777&5888844*%%%%%%%ooo*4488885 77777777777777777777777777777777777777777777777",
"p77777777777777777777777777777777777777777777777777777&69fjjjf955*%%%%*559fjjjf96 77777777777777777777777777777777777777777777777",
"p77777777777777777777777777777777777777777777777777777&8shxxxxxkgs9889sgkxxxxxhs8 77777777777777777777777777777777777777777777777",
"p77777777777777777777777777777777777777777777777777777&8shxzzzzxxxxxxxxxxxzzzxhs8 77777777777777777777777777777777777777777777777",
"p77777777777777777777777777777777777777777777777777777&69gzkkkkzzxxxxxxzzzkkkzg96 77777777777777777777777777777777777777777777777",
"p77777777777777777777777777777777777777777777777777777&58fkzzzkkkkkkkkkkkkzzzkf85 77777777777777777777777777777777777777777777777",
"p77777777777777777777777777777777777777777777777777778659fhkxxzzkjhhhhjkzzxxkhf95687777777777777777777777777777777777777777777777",
"p7777777777777777777777777777777777777777777777777777f65sfhhkxxxxzjggjzxxxxkhhfs56f7777777777777777777777777777777777777777777777",
"p7777777777777777777777777777777777777777777777777777d%5sf6*&9fjxxzddzxxjf9&*6fs5%f7777777777777777777777777777777777777777777777",
"p7777777777777777777777777777777777777777777777777777d%5s6*  &49fjg88gjf94&  *6s5%d7777777777777777777777777777777777777777777777",
"p77777777777777777777777777777777777777777777777777779%dh6413211159955*11123146s8%97777777777777777777777777777777777777777777777",
"p77777777777777777777777777777777777777777777777777779%djhd3ialu 4fjf5  ulai3djs8%97777777777777777777777777777777777777777777777",
"p777777777777777777777777777777777777777777777777777795djxxhffffhkxxhgkhffffhxjf8597777777777777777777777777777777777777777777777",
"p777777777777777777777777777777777777777777777777777779djxxxkkkkkzxxjgzkkkkkxxjf8877777777777777777777777777777777777777777777777",
"p7777777777777777777777777777777777777777777777777777759hkxxxxxxjxxxkgzjxxxxxxgd8577777777777777777777777777777777777777777777777",
"p7777777777777777777777777777777777777777777777777777748shxxxxxjhkxxzgkhjxxxxkd98477777777777777777777777777777777777777777777777",
"p7777777777777777777777777777777777777777777777777::;--56shxxxh9sgzxjgds9hxxxh865777777777777777777777777777777777777777777777777",
"p7777777777777777777777777777777777777777777777::>>:;--486shzzh5889999885fzzh8564@@7777777777777777777777777777777777777777777777",
"p77777777777777777777777777777777777777777::::>>>,,,,:-@988skzf8gf866sfg8sjhs566@@@@@@@@@@@@@777777777777777777777777777777777777",
"p77777777777777777777777777777777777777:::>>>>,,,0000,-@998sjzfffkhddhkfssjgs686@-;:;----------@@77777777777777777777777777777777",
"p777777777777777777777777777777777777::>>,,,00000qqqq0-@8s8sjz9699dddd9969jgs896@$;;::>>::::;-@$$@@777777777777777777777777777777",
"p7777777777777777777777777777777777:>>>>,0000qqqqqq00<-@698sjz9&========&9jgs996@$;$;::::;;$;-@$;$-@@7777777777777777777777777777",
"p77777777777777777777777777777777::,<<>:>00000000q0,,,:@4689jzfdsddddddsdsjgs984@$;$$;::;-$@--@$;;$$-@@77777777777777777777777777",
"p777777777777777777777777777777::,<<<0,;:,0<<,,<0q<,>,>@@469jzs9sfjkkjfs9sjgs94@$$;$@$;:-$@@--@$;$$@$$-@@777777777777777777777777",
"p77777777777777777777777777777:<0qqq0<,;$><,,,,<<0,>:>,-@@46jzd9998888999sjgs4@@$$;$@@;:-$@@-$@$;$@@@$;$$@@7777777777777777777777",
"p7777777777777777777777777777:0qqqqq0<>;$><,>>:,<0,>::>,-@@4djhffgghhgfddghd4@@@$;$@@@;>-$@$-@@$;$@@@@$;;$@@777777777777777777777",
"p777777777777777777777777777:0w0000qq0>;$;<>:::><<,>:::>,-@@4djjjjzxxkjjjjd4@@@$$;$@@$;>-$$--@@$;;@$$;;:;;$@@77777777777777777777",
"p77777777777777777777777777:0w0<,,,,00>;-;,>:::>><,:::;;>,-@@4dhzzzzzzzzhd4@@@@$;$@$$;;>;-$;-@@$;;$;;:;;;;:;$@7777777777777777777",
"p7777777777777777777777777:,w0<,>>>>,<>;$;>;;;;:><>:;:;;;:>-@@46dhjzzjhd84@@@@$;;--;;;:>>;;-$@@$;>;;:;----;:;$@777777777777777777",
"p777777777777777777777777:0wq0,>;;;>>,:;$;>;;;;::<>;;;;-$;:>;;@@@@@@@@@@@@@@@$;;;;:::::>>>>-@@@;:>>::-$$-::;-$$@@7777777777777777",
"p77777777777777777777777:<ww0,>;;;;:>,;$@;;;;dh;:,:;;;;;;;;2u32%%%%%%%%2u32%---;:::::;;:>>;-@@@$;>:;;$$-:;$$$$-$$@777777777777777",
"p7777777777777777777777:<wew0:::;;;;:,-$@$;;9fdh:>:;;;;56%3uu331%%%%%%3uiu32%---;::;;;;;:>;-@++@$;$$$$$;;$@@@@$;$$@77777777777777",
"p777777777777777777777:,wrreq,>;--;;:>$@@$;9fdshk>;;;;59%2u1  121%%%%2u1  122%---::;$$;;:;-@+XX+@$@@@555$@@$$;:;;;$@7777777777777",
"p77777777777777777777:,<wewqqq<:$--;:>$@@$9fdsgkk>;;;58%%uu    22%%%%ui    22%%--;:;@$;----+XXXX+@++5585$@$;:;$$$$$$@777777777777",
"p7777777777777777777:,<0000<0q0,:$--:;@@@9fdsgkk;:;;59%%%33    11%%%%3i    21%%@$$;$@$;$$$@+X++++XX558865$;:;$$@@@@@$@77777777777",
"p777777777777777777:,<0<,,>>,<0<>-$-;-@@9fdsgkk;;:;;5%%%%231  111%%%%231  111%%%@$;@@$;$@$++X  +@@5588865;:;$@@@@@@@@@77777777777",
"p77777777777777777>,,0<,>;-$;><0>-$--$@9fdsgkk;;;;;66%%%%%122111%%%%%%222111%%%%%@$@@$$@@@+      558888885:$@@@$-;;-$@@7777777777",
"p7777777777777777>,,,,,>:;-$@->::-@-$@9fddhkk;;;;;;6%%%%%%%2211%%%%%%%%1211%%%%%%%$@@$$@@+ OO++++5d9888885:@@@-;:;-$$$$7777777777",
"p7777777777777777>,<<<<<<:;-@@$;;$@$@9fddhkk$--;;;;9%%%2u32%%%%%%1221%%%%%%2u32%%%$@@$$@@O O@@@@@fd98888865@@$;:;-@@@@$$777777777",
"p777777777777777>,,<<0qq00>>-@@$$@@@9ffdhkk$;--;;;;9%%3uu331%%%%122221%%%%3uu331%%@@@$$@@ O+@$$$$$fd9888865@$;::$@@@@@@$777777777",
"p777777777777777>,,<0q<<>;-$$$@@@@@9gffhkk@$:;-----9%2u1  121%%12211221%%2u1  121%%@@$@@+O+$$$-;;-fd98888665-:::;;;$@@@$@77777777",
"p777777777777777>,,0q<>>,<;$$$@@@@9ggfhkk+@$::-----9%uu    22%%22111122%%uu    22%%@@$@@O+$$;:>,,>;fd9888665;:>>:;;;$$@@@77777777",
"p777777777777777>,,0<>,qttttq:$@@gggfhkk@+@$::$@@$$6%33    11%%22111122%%33    11%%@@$@+@@$;>>>::;;fd98886665:>>>>:;;$$@@77777777",
"p777777777777777>,,0<qqwwwww0<:@gggghkk@++@$::$@@$$6%231  111%%12211221%%231  111%%@$$@@@$;>:;;-$$$$fd9886665>>>;;;;;;$$@77777777",
"p777777777777777><<0qrw,>:::dddkgggggk-@++@$::-@+@$6%%122111%%%%122221%%%%122111%%%@$$@@@$:;---;-$$$fd98888665:;;$$$;;;$@77777777",
"p7777777777777>>><<0qw>:;:dggg9kkkkkk--@++@$;:-@++$6%%%2211%%%%%%1221%%%%%%2211%%%%@$@@@$;;-@+$$-;:::fd9888665;$$$$$$$;;$77777777",
"p777777777777>>$>,,,q:--dgggd9ywww-----@+++@-;$@+++4%%%%%%%%%2u32%%%%%%2u32%%%%%%%@$@@@$;;-@+@$-;:;;;fd9888666655554*$@;$77777777",
"p77777777777>0-@>,,,>;-ddfgd9yywww----$@++++@$@@+O+4%%%%%%%%3uiu32%%%%3uiu32%%%%%%@$@@$;;-@++@-;;-$$$$fd988666655554**$@$77777777",
"p7777777777>0w-@>,,>:-dddfgd95000----$@$@++++@@++O++$%%%%%%2u1  122%%2u1  122%%%%@$@@$;;-@+++$$;$$#$--fd98855dd5554*****$@7777777",
"p777777777>0wq-@>,,:;ddddffd9550-----@@@$@++++++OOO++%%%%%%ui    22%%ui    22%%%%$@@@$;-@+.++$$-$##-;;>fd8855dd>54******@@7777777",
"p777777777>qq0;@;>,::fdddffff98555-7777@@$@++++OOOOO++%%%%%3i    21%%3i    11%%@@@@@$$-@+O..+$$$##-;>>:fd9899>>>>64******@7777777",
"p777777777>q0<;$@;>:dfddhhs8sd9686-77777@@@@++OOOOOOOO+%%%%231  111%%231  111%%@@$$$$@++O...+@$@#-;>:;$$f98995>>564******@7777777",
"p77777777>,q<<>;$@-5dfdhsss98ss8867777777@++++OOOOOOOOOO%%%%222111%%%%222111%@@@@@@@++OO++O.X+$$#;;;-$@+f9@ss999654*******7777777",
"p77777777>0q0<,>;$@5dfhhs8sd9888677777777@++++++OOOOOOOOO%%%%1211%%%%%%1211%%@@@+++OOO+++++O.X+$$;;$@++@@@@ss999655*******7777777",
"p77777777:0qq00,>;;5dfssf9sss857777777777+++++++++++++OOOOO%%%%%%%%%%%%%%%%@@@d++++++++@@@++O.XX@$$@+@@$$$$ssss6555*******7777777",
"p77777777:0q0,,,,>;5dfs8ss9888577777777dddddd@@@@@@@@@++OOOOOO%%%%%%%%%%%@@OOd88@@@@@@@@@@@++OXXX@O+@$$$;;$ssss66564*****77777777",
"p77777777:00<-----::5ff98ss8577777799dddddddd--------@@@@@+OOOOOOOO      OOOd8888@@$$$$$@@@@++OXXO+@->;;;;;--55555554****77777777",
"p77777777:<,-@@@@@@-:8sd98s5577999999dddddddd--;:::;$$$@@@@@@@++OOO   OOOO+d888888@$$$$$$$@@@+OXO+@->::;;;;--ss666564***777777777",
"p77777777::@@sffffds8::ss8599999999ffghkkkkkk;;:>>>>:;;$$@@@@@@@+OO  OOO@+d88888888----$$$$@@@+XO$$;,<,,,>;;---5556644**777777777",
"p77777777:@@hhhhhhfds8:5885999ffghkkkkk77-;;;;;;;;;;;;;;;$@@@@@@++OOO+++@d8888888888---$$$$$@@+O+$;<qq0<,,>;;--ss6666447777777777",
"p77777777:shhhhkkjdss880099kkkkkkk777777-;;;::;;;;;;;;;;;;$@@@@@@++++@@@x988888888888-$$$$$$@@+O@;<q0,,>:::>;--$$@@77777777777777",
"p77777777shhhkkjsssss880099kk77777777777:;;;;;;;;;;;;;;>>:$$$@@@@+++@@@xxf988888888888$$$$$$$@@O@;<0,>>>>:;;;--$$@@77777777777777",
"p77777777hhjkjfsss866880077777777777777:;;;;;;;;;;;;;;>>>:;$-$@@@+++@@@$kk9988888888888$$$$$$@@@$:<,,,<,>>>;-$$$$@@77777777777777",
"p77777777jjffss888866880077777777777777;;;;;:>>>>:;;;>,>::;$$-@@@@++@@@@$kk9988888888888$$$$$$$$;<,::::;;;>>;$$$$@@77777777777777",
"p77777777jd889968688866557777777777777;;;;-:>,,,,>>>>,>;:>;-$$$@@@@+@@@$@$kk9988888888888$$--@@$;,>:,<,;$@$;>;$@@@777777777777777",
"p77777777dd888686666844577777777777777;;$->,<<<<<,,,,::>>;---;$@@$$ @@$$$$$kks988888888888$--@@$;::::;;;;$@@-;@++@777777777777777",
"p77777777ds688868686577777777777777777;--;,<<000<<,,,>>,>;;::;$@$@$ @@$$$---kks988888888888@@699655**@@$$$$@@$@+@7777777777777777",
"p777777777s86888666577777777777777777-;:;>,000000<<,,,,,,>>;;$$$-@@@ @$$$----kks98888888888@@9ddd5544;@@@$$@+++@77777777777777777",
"p777777777788646577777777777777777777-;>>><0000000<<0,,>>;;$$$$;-@$@ @$$$--;;;khs888888888588>4d6554444@@@@@++@777777777777777777",
"p777777777778865777777777777777777777-->>,0000000000,>>:;;---;:;-@$@ @$$$--;;;;hhs88888885588>>d65544444@+++++@777777777777777777",
"p77777777777777777777777777777777777;>;>,0000000000,,::;;;:;;;>;$@$@ @$$$-;;;;:>ggs88888-dd>>6d655444444$@+++@7777777777777777777",
"p77777777777777777777777777777777777;;>,,000000000<,>::>>:>,>>;$@$$@ @$$$-;;;;:>>ggs888-ddd4>665544444444@++@77777777777777777777",
"p77777777777777777777777777777777777>::,,000000000<,:>,>:>,>;-$@@-$@ @-$$-;;;;:>,,gfs8>,ddddd955444444444@+@777777777777777777777",
"p77777777777777777777777777777777777;>,,000000000<,>,,>::,:-$@@@-$@@ @-$$-;;;;>,,,,ff,,,9ddd9554444444444@@7777777777777777777777",
"p7777777777777777777777777777777777;;:,<000000000<,,,>;;>,:--$$-$@@  @-$$-;;;;>,,,,,,,,,,,999665544444444777777777777777777777777",
"p7777777777777777777777777777777777;;>,0000000000<,,>;;:<0,:;$$$@@   @;$$--;;;>,,,,,,,,,,,999965544444444777777777777777777777777",
"p777777777777777777777777777777777>;;>,00000000000,<>>:,0,>;$$$@@    @;-$---;;:>,,,,,,,,,>>-9995555444447777777777777777777777777",
"p77777777777777777777777777777777:>;>,,00qqqqq00000<<<<0,>:$$$$@@    @;-$---;;;>,,,,,,,,>>;--995555444447777777777777777777777777",
"p77777777777777777777777777777777>,,<00qqqqqqqqq00<,,,<00,:;$$@@@    $:;----;;;>>,,,,,,,>>;---98855444477777777777777777777777777",
"p77777777777777777777777777777777>,<qwwwwwwwwwwwwq<<>:><<,,:$@@@     $;:;--;;;:,,<0000<,,>>;;--8888444777777777777777777777777777",
"p77777777777777777777777777777777>,<qqqqqqqqqqqqq0,;;;;>>>:,>$@     @$-;:;;::>,,<0qqqq0<,,>>>>;;$$::$7777777777777777777777777777",
"p77777777777777777777777777777777::,q0<<<<<<<<<,,,:;;;;;;;:>>,@     @$$;;;:>,<<0qwwwwwq00<<<,,,>>;::$7777777777777777777777777777",
"p77777777777777777777777777777777::>0q,,,>>>,,,>;;;;;;-$$$;::>$@    @$$;>,,,,,,,0qwwwq0<<,,,,,,,,>>:-7777777777777777777777777777",
"p77777777777777777777777777777777::;<q>>;:>>>>;;;;;;---$$$;;::$@    @$;>,,,,,,,,,00000<,,,>>>>,,,,>:-7777777777777777777777777777",
"p77777777777777777777777777777777$$$;<q>;;;;;;;---$$$$$$$;;;;:$@   @$:,,,,>>>>>>,,,,,,,,>>:::::>,,>:-7777777777777777777777777777",
"p77777777777777777777777777777777$$$$;<0>;$$$$$$$$$$$$$$-;$---$@   @$,,,>>>>::::>>,,,,,>:::::::::,>;-7777777777777777777777777777",
"p777777777777777777777777777777777;$$$;<<>;$$$$$$$$$$$-;;$$$-$@    @;,>:>>>>::::::>>>>>::::::::::>>;-7777777777777777777777777777",
"p7777777777777777777777777777777777;$@$$;:::;$$$$$$--;;$$$$$$@     @>;;;:>>>;;;:::::::::::::;;;;:;:;$7777777777777777777777777777",
"p77777777777777777777777777777777777;$@@@$$;:::;-$$$$$$$@@@$@      @:$@-;>>>>;;;;;:::::::;;;;;;:;-:;$7777777777777777777777777777",
"p777777777777777777777777777777777777;$@@@@$$$$$$$$$$$@@@$$@       @$$@@$;;>>>>;;;;;;;;;;;;;;:::$-;-$7777777777777777777777777777",
"p7777777777777777777777777777777777777;$@@@@@@@@@@@@@@@$$@         @@$@@@$$;;>>>>:::::::::::::;$@-;$77777777777777777777777777777",
"p77777777777777777777777777777777777777;$@@@@@@@@@@@@@@             @$$@@@$$$;;;;:::::::::;;--@@@--$77777777777777777777777777777",
"p777777777777777777777777777777777777777777                         @@$@@@@@@$$$$$$$$$$$$$$@@@@@$;@777777777777777777777777777777",
"p7777777777777777777777777777777777777777777                         @@@@@@@@@@@@@@@@@@@@@@@@@@$;$@777777777777777777777777777777",
"p77777777777777777777777777777777777777777777                        @@@@@@@                @@$;$@7777777777777777777777777777777",
"p7777777777777777777777777777777777777777777777                      7@@@   %%%%%%%%%%%%%%%   @$@77777777777777777777777777777777",
"p7777777777777777777777777777777777777777777777%%%%%%%%  %%         77@  %%%%%&&&&%&&&&%%%%%%  @777777777777777777777777777777777",
"p777777777777777777777777777777777777777777777 %%%%%%%%  %%         777 %%%&&&&**&&***&&&&&&*% 7777777777777777777777777777777777",
"p77777777777777777777777777777777777777777777                       777 %%%&&&*  **  ***&&&&*% 7777777777777777777777777777777777",
"p77777777777777777777777777777777777777777777  %%%%%%               777 %%&&**&  %%  *&&*****% 7777777777777777777777777777777777",
"p77777777777777777777777777777777777777777777 %&&&&&&&%             777  &%%%%%  %%  %%%%%&*%  7777777777777777777777777777777777",
"p77777777777777777777777777777777777777777777 %&&&&&&&%%%%         77777 %                %%  77777777777777777777777777777777777",
"p77777777777777777777777777777777777777777777 %&&&&&%%%%%%%        777777  %&&%  &%  &&%%%   777777777777777777777777777777777777",
"p77777777777777777777777777777777777777777777 %&&&&&%%%%%%%        777777 %%%%%  %%  %%%%%%  777777777777777777777777777777777777",
"p77777777777777777777777777777777777777777777  %&&&%%%%%%%         777777                    777777777777777777777777777777777777",
"p77777777777777777777777777777777777777777777  %%%%%%%%%          7777777     %%%%%%%%%%%%   777777777777777777777777777777777777",
"p77777777777777777777777777777777777777777777                     777777  %%%&&&&&&&&%%%%%%%   7777777777777777777777777777777777",
"p777777777777777777777777777777777777777777777                   7777777 %%%&&&***&&&&%%%%%%%%  777777777777777777777777777777777",
"p7777777777777777777777777777777777777777777777                77777777  %%%&&&***&&&&%%%%%%%%  777777777777777777777777777777777",
"p777777777777777777777777777777777777777777777777            7777777777 %%%%&&&&&&&&&&%%%%%%%%% 777777777777777777777777777777777",
"p7777777777777777777777777777777777777777777777777777777777777777777777 %%%%%&&&&&&&&%%%%%%%%%% 777777777777777777777777777777777",
"p7777777777777777777777777777777777777777777777777777777777777777777777 %%%%%%%&&&&%%%%%%%%%%%% 777777777777777777777777777777777",
"p7777777777777777777777777777777777777777777777777777777777777777777777 %%%%%%%%%%%%%%%%%%%%%%% 777777777777777777777777777777777",
"p7777777777777777777777777777777777777777777777777777777777777777777777 %%%%%              %%%% 777777777777777777777777777777777",
"p7777777777777777777777777777777777777777777777777777777777777777777777                         777777777777777777777777777777777",
"p77777777777777777777777777777777777777777777777777777777777777777777777                       7777777777777777777777777777777777",
"p77777777777777777777777777777777777777777777777777777777777777777777777777777777777777777777777777777777777777777777777777777777",
"p77777777777777777777777777777777777777777777777777777777777777777777777777777777777777777777777777777777777777777777777777777777"
};
